<?xml version="1.0" standalone="no"?>
<!DOCTYPE svg PUBLIC "-//W3C//DTD SVG 1.1//EN" "http://www.w3.org/Graphics/SVG/1.1/DTD/svg11.dtd" >
<svg xmlns="http://www.w3.org/2000/svg" xmlns:xlink="http://www.w3.org/1999/xlink" version="1.1">
<metadata>
Created by FontForge 20150318 at Wed Nov 25 07:35:11 2015
 By uniteet7
Part of the digitally encoded machine readable outline data for producing the Typefaces provided is copyrighted (c) 2006 Linotype GmbH, www.linotype.com. All rights reserved. This software is the property of Linotype GmbH, and may not be reproduced, used, displayed, modified, disclosed or transferred without the express written approval of Linotype GmbH.  Copyright (c) 1988, 1990, 1993 Adobe Systems Incorporated. All Rights Reserved. Helvetica is a trademark of Heidelberger Druckmaschinen AG, exclusively licensed through Linotype GmbH, and may be registered in certain jurisdictions. This typeface is original artwork of Linotype Design Studio. The design may be protected in certain jurisdictions.
</metadata>
<defs>
<font id="HelveticaNeueLTComTh" horiz-adv-x="519" >
  <font-face 
    font-family="HelveticaNeueLTComTh"
    font-weight="250"
    font-stretch="normal"
    units-per-em="1000"
    panose-1="2 11 4 3 2 2 2 2 2 4"
    ascent="714"
    descent="-286"
    x-height="514"
    cap-height="714"
    bbox="-169 -217 1041 949"
    underline-thickness="50"
    underline-position="-50"
    unicode-range="U+000D-FB02"
  />
<missing-glyph horiz-adv-x="512" 
d="M222 117v67h56v-67h-56zM225 234l-2 17q0 55 13 81t46 59q32 31 41 47.5t9 35.5q0 36 -22.5 60.5t-53.5 24.5t-53.5 -22t-28.5 -73l-50 8q7 71 44 104t91 33q53 0 88.5 -36t35.5 -95q0 -32 -12.5 -58.5t-50.5 -61.5q-37 -33 -43 -52t-6 -72h-46zM462 50v617h-412v-617
h412zM512 718v-718h-512v718h512z" />
    <glyph glyph-name="IJ" unicode="IJ" horiz-adv-x="681" 
d="M63 714h44v-714h-44v714zM264 227q-3 -40 1 -77t20 -65.5t47.5 -46t84.5 -17.5q62 0 94 20t46 51t15.5 69.5t1.5 75.5v477h44v-492q0 -21 -0.5 -47t-6 -52.5t-17 -51.5t-33.5 -44.5t-55.5 -31.5t-83.5 -12q-72 0 -113 23t-60.5 59t-24 79t-4.5 83h44z" />
    <glyph glyph-name="ij" unicode="ij" horiz-adv-x="345" 
d="M65 611v103h38v-103h-38zM65 0v514h38v-514h-38zM242 611v103h38v-103h-38zM280 514v-569q0 -26 -4 -49.5t-15.5 -41t-32 -28t-53.5 -10.5h-16t-16 1v33q5 -1 11 -1.5t14 -0.5q20 0 34 4.5t23 16t13 31t4 48.5v566h38z" />
    <glyph glyph-name="napostrophe" unicode="&#x22;n" horiz-adv-x="536" 
d="M73 514h38v-110h2q10 29 28.5 51.5t43 38.5t53.5 24t59 8q45 0 76.5 -11t51.5 -29t31.5 -40.5t16.5 -45.5t6 -44.5t1 -37.5v-318h-38v325q0 20 -3 48.5t-17.5 55t-44 45.5t-81.5 19q-43 0 -77.5 -16t-58.5 -44.5t-36.5 -68t-12.5 -86.5v-278h-38v514zM29 681
q13 3 21 10.5t10 22.5h-25v93h57v-80q0 -31 -16 -47.5t-47 -18.5v20z" />
    <glyph glyph-name="fi" unicode="fi" horiz-adv-x="389" 
d="M286 514h38v-514h-38v514zM286 714h38v-103h-38v103zM0 514h92v106q0 27 9 46.5t24.5 31.5t36 18t43.5 6q20 0 45 -5v-33q-25 5 -45 5q-32 0 -53.5 -14.5t-21.5 -57.5v-103h107v-33h-107v-481h-38v481h-92v33z" />
    <glyph glyph-name="fl" unicode="fl" horiz-adv-x="389" 
d="M286 714h38v-714h-38v714zM0 514h92v106q0 27 9 46.5t24.5 31.5t36 18t43.5 6q20 0 45 -5v-33q-25 5 -45 5q-32 0 -53.5 -14.5t-21.5 -57.5v-103h107v-33h-107v-481h-38v481h-92v33z" />
    <glyph glyph-name=".notdef" horiz-adv-x="512" 
d="M222 117v67h56v-67h-56zM225 234l-2 17q0 55 13 81t46 59q32 31 41 47.5t9 35.5q0 36 -22.5 60.5t-53.5 24.5t-53.5 -22t-28.5 -73l-50 8q7 71 44 104t91 33q53 0 88.5 -36t35.5 -95q0 -32 -12.5 -58.5t-50.5 -61.5q-37 -33 -43 -52t-6 -72h-46zM462 50v617h-412v-617
h412zM512 718v-718h-512v718h512z" />
    <glyph glyph-name=".null" horiz-adv-x="500" 
 />
    <glyph glyph-name=".null" horiz-adv-x="500" 
 />
    <glyph glyph-name="nonmarkingreturn" unicode="&#xd;" horiz-adv-x="0" 
 />
    <glyph glyph-name="space" unicode=" " horiz-adv-x="278" 
 />
    <glyph glyph-name="exclam" unicode="!" horiz-adv-x="259" 
d="M104 0v103h51v-103h-51zM154 714v-241l-12 -290h-24l-12 290v241h48z" />
    <glyph glyph-name="quotedbl" unicode="&#x22;" horiz-adv-x="315" 
d="M197 714h38v-229h-38v229zM80 714h38v-229h-38v229z" />
    <glyph glyph-name="numbersign" unicode="#" horiz-adv-x="556" 
d="M185 264h169l24 173h-169zM447 690l-31 -220h110v-33h-115l-24 -173h111v-33h-116l-32 -231h-33l32 231h-169l-32 -231h-33l32 231h-117v33h122l24 173h-118v33h123l31 220h33l-31 -220h169l31 220h33z" />
    <glyph glyph-name="dollar" unicode="$" horiz-adv-x="556" 
d="M258 -17q-55 5 -100.5 20.5t-77.5 45.5t-50 75.5t-18 110.5h38q0 -94 52 -151t156 -63v333l-47 11q-32 7 -63.5 18.5t-57 31t-41 50t-15.5 76.5q0 11 2 29t9 38.5t21.5 41.5t39.5 38.5t62 29t90 13.5v49h32v-49q52 -1 94 -14t72 -40t47 -68t19 -98h-38q-6 98 -57 139.5
t-137 43.5v-310l78 -19q49 -12 82 -30.5t53 -42t28 -51t8 -58.5q0 -55 -21.5 -93t-56.5 -61.5t-80 -34t-91 -11.5v-88h-32v88zM258 693q-51 -2 -86 -14.5t-57.5 -32.5t-32.5 -47t-10 -58q0 -35 11.5 -58.5t31 -39.5t46 -25t56.5 -16l41 -9v300zM290 21q43 0 81 9t67 28.5
t46 50.5t17 74q0 57 -36 93t-114 56l-61 15v-326z" />
    <glyph glyph-name="percent" unicode="%" horiz-adv-x="778" 
d="M205 379q30 0 54 12t40.5 32.5t25.5 46.5t9 53q0 29 -8 55.5t-24.5 46.5t-40.5 32t-55 12t-55 -12t-40 -32t-24.5 -46.5t-8.5 -55.5q0 -27 9 -53t25.5 -46.5t40 -32.5t52.5 -12zM206 346q-38 0 -68.5 14t-52.5 38t-33.5 56.5t-11.5 68.5q0 37 11.5 69.5t33 57t52.5 38.5
t70 14t70 -13.5t52 -37.5t32 -57t11 -71q0 -36 -11.5 -68t-33.5 -56t-52.5 -38.5t-68.5 -14.5zM571 21q30 0 54 12t40.5 32.5t25.5 46.5t9 53q0 29 -8 55.5t-24.5 46.5t-40.5 32t-55 12t-55 -12t-40 -32t-24.5 -46.5t-8.5 -55.5q0 -27 9 -53t25.5 -46.5t40 -32.5t52.5 -12z
M572 -12q-38 0 -68.5 14t-52.5 38t-33.5 56.5t-11.5 68.5q0 37 11.5 69.5t33 57t52.5 38.5t70 14t70 -13.5t52 -37.5t32 -57t11 -71q0 -36 -11.5 -68t-33.5 -56t-52.5 -38.5t-68.5 -14.5zM603 714h40l-465 -738h-40z" />
    <glyph glyph-name="ampersand" unicode="&#x26;" horiz-adv-x="593" 
d="M458 106q-33 -55 -85.5 -86.5t-117.5 -31.5q-45 0 -83.5 11.5t-67 34t-45 57t-16.5 79.5q0 44 17.5 77t44.5 59.5t60 47t64 40.5q-17 21 -34 41.5t-31 43t-23 47.5t-9 53t13 50.5t34 38.5t48 25t55 9q29 0 56 -8t48 -23.5t33.5 -38.5t12.5 -53q0 -38 -13.5 -66
t-34.5 -50.5t-47.5 -41t-52.5 -37.5l170 -209q11 28 17.5 58t6.5 61h38q-2 -39 -11.5 -77.5t-24.5 -73.5l116 -143h-51zM249 366q-28 -18 -57.5 -36.5t-54 -41.5t-40.5 -51.5t-16 -66.5q0 -35 15 -63t39.5 -47t55.5 -29t64 -10q45 0 78.5 17.5t56 38.5t33 39.5t10.5 20.5z
M262 412q22 14 45 30.5t42.5 36.5t32 44.5t12.5 55.5q0 20 -10 36.5t-25.5 28.5t-35.5 18.5t-41 6.5t-41 -6.5t-35.5 -18.5t-25.5 -28.5t-10 -36.5q0 -26 10 -48.5t24 -43t30 -39t28 -36.5z" />
    <glyph glyph-name="quotesingle" unicode="'" horiz-adv-x="204" 
d="M83 714h38v-229h-38v229z" />
    <glyph glyph-name="parenleft" unicode="(" horiz-adv-x="241" 
d="M194 -184q-61 100 -95 215.5t-34 234.5q0 122 34.5 241t96.5 224h35q-63 -106 -95.5 -224t-32.5 -241q0 -119 31 -233t94 -217h-34z" />
    <glyph glyph-name="parenright" unicode=")" horiz-adv-x="241" 
d="M47 731q61 -100 95 -215.5t34 -234.5q0 -122 -34.5 -241t-96.5 -224h-35q63 106 95.5 224t32.5 241q0 119 -31 233t-94 217h34z" />
    <glyph glyph-name="asterisk" unicode="*" horiz-adv-x="352" 
d="M190 714v-130l122 41l10 -28l-123 -41l76 -102l-22 -20l-77 106l-80 -106l-24 20l81 102l-124 41l9 28l123 -41v130h29z" />
    <glyph glyph-name="plus" unicode="+" horiz-adv-x="600" 
d="M281 504h38v-233h233v-38h-233v-233h-38v233h-233v38h233v233z" />
    <glyph glyph-name="comma" unicode="," horiz-adv-x="278" 
d="M100 -93q11 5 17.5 16.5t10.5 25t5 27.5t1 24h-21v103h51v-103q0 -40 -13.5 -76t-50.5 -50v33z" />
    <glyph glyph-name="hyphen" unicode="-" horiz-adv-x="352" 
d="M69 253v38h214v-38h-214z" />
    <glyph glyph-name="period" unicode="." horiz-adv-x="278" 
d="M113 0v103h51v-103h-51z" />
    <glyph glyph-name="slash" unicode="/" horiz-adv-x="333" 
d="M-13 -17l318 748h41l-318 -748h-41z" />
    <glyph glyph-name="zero" unicode="0" horiz-adv-x="556" 
d="M278 21q65 0 106 31t64.5 79t32.5 105t9 109t-9 109t-32.5 105t-64.5 79t-106 31t-106 -31t-64.5 -79t-32.5 -105t-9 -109t9 -109t32.5 -105t64.5 -79t106 -31zM278 -12q-75 0 -123 32.5t-76.5 84t-39.5 115t-11 125.5t11 125.5t39.5 115t76.5 84t123 32.5t123 -32.5
t76.5 -84t39.5 -115t11 -125.5t-11 -125.5t-39.5 -115t-76.5 -84t-123 -32.5z" />
    <glyph glyph-name="one" unicode="1" horiz-adv-x="556" 
d="M331 0h-38v616q-37 -39 -85 -61t-100 -27v33q60 9 109 42.5t80 86.5h34v-690z" />
    <glyph glyph-name="two" unicode="2" horiz-adv-x="556" 
d="M506 38v-38h-460q3 48 22 86.5t48.5 70t66 58.5t74.5 52q37 25 73 50.5t64.5 54.5t45.5 63.5t17 78.5q0 35 -14 63.5t-37.5 49t-54 31.5t-64.5 11q-47 0 -82 -16.5t-58 -45t-34.5 -67t-11.5 -83.5h-38q6 125 61 185t157 60q44 0 83 -11.5t68 -35t46 -59t17 -83.5
q0 -45 -16.5 -82.5t-43.5 -69.5t-62 -59t-72 -52t-73 -49t-65 -49.5t-47.5 -53.5t-21.5 -60h412z" />
    <glyph glyph-name="three" unicode="3" horiz-adv-x="556" 
d="M74 228q-2 -48 11.5 -86.5t39.5 -65t64 -41t86 -14.5q38 0 74 11t63.5 32.5t44 53.5t16.5 73q0 49 -20 81.5t-53 50.5t-74.5 24t-84.5 3v33q38 -2 76.5 4t69.5 22t50.5 45t19.5 74q0 36 -16.5 63t-43 44t-59 25.5t-63.5 8.5q-45 0 -79 -15t-56.5 -41t-34.5 -62t-14 -79
h-38q0 51 15.5 93.5t44.5 72.5t70 47t92 17q42 0 81.5 -10t70 -31t49.5 -54t19 -79q0 -31 -9.5 -58t-27.5 -48t-43 -34.5t-55 -17.5v-2q35 -4 63 -19t47.5 -38.5t30 -54t10.5 -65.5q0 -51 -19 -89t-51 -63.5t-75 -38t-91 -12.5q-57 0 -102.5 16t-76.5 46.5t-47 75t-13 102.5
h38z" />
    <glyph glyph-name="four" unicode="4" horiz-adv-x="556" 
d="M365 638h-2l-296 -429h298v429zM403 690v-481h116v-33h-116v-176h-38v176h-336v38l336 476h38z" />
    <glyph glyph-name="five" unicode="5" horiz-adv-x="556" 
d="M130 690h349v-33h-319l-59 -275l2 -2q30 42 74.5 62.5t96.5 20.5q51 0 94 -17.5t74 -48.5t48.5 -74.5t17.5 -94.5t-17 -95t-48 -76.5t-74 -50.5t-95 -18q-50 0 -94 15.5t-77 44t-51 70t-15 93.5h38q-1 -43 14.5 -78t42.5 -60t63.5 -38.5t78.5 -13.5q44 0 80 16.5t62 44.5
t40 66t14 80t-14.5 79t-41 64t-62.5 43t-78 16q-59 0 -101.5 -24.5t-75.5 -72.5h-39z" />
    <glyph glyph-name="six" unicode="6" horiz-adv-x="556" 
d="M469 520q-6 33 -21 60.5t-37.5 47t-51.5 30.5t-63 11q-71 0 -114 -37t-65.5 -91.5t-29.5 -117t-7 -113.5l2 -2q11 33 32 60.5t48 47t59 30t67 10.5q51 0 93.5 -18t73 -49.5t47.5 -74.5t17 -94q0 -50 -17.5 -92.5t-48 -73.5t-73 -48.5t-92.5 -17.5q-72 0 -119.5 27
t-75.5 71.5t-39.5 103t-11.5 121.5q0 42 4 87.5t14.5 89t28.5 82.5t46.5 68.5t68 46.5t92.5 17q87 0 144 -47t67 -135h-38zM288 21q42 0 77 16t61 43t40.5 63t14.5 77q0 40 -14.5 77t-40 65t-61 44.5t-77.5 16.5q-43 0 -78.5 -16t-61.5 -43.5t-40.5 -64.5t-14.5 -79
q0 -43 15.5 -79.5t41.5 -63t61.5 -41.5t76.5 -15z" />
    <glyph glyph-name="seven" unicode="7" horiz-adv-x="556" 
d="M56 690h445v-38q-52 -58 -100.5 -119t-88 -137t-68 -172.5t-40.5 -223.5h-44q6 74 20.5 150t47.5 157t89.5 167.5t145.5 182.5h-407v33z" />
    <glyph glyph-name="eight" unicode="8" horiz-adv-x="556" 
d="M453 529q0 39 -14.5 66t-39 43.5t-56 23.5t-65.5 7t-65.5 -7t-56 -23.5t-39 -43.5t-14.5 -66q0 -37 15 -63t39.5 -42.5t56 -24t64.5 -7.5t64.5 7.5t56 24t39.5 42.5t15 63zM65 529q0 49 18 82t48 53t68.5 29t78.5 9t78.5 -9t68.5 -29t48 -53t18 -82q0 -58 -32 -98.5
t-95 -52.5v-2q71 -8 112 -56t41 -122q0 -54 -19 -93.5t-51 -65.5t-76 -38.5t-93 -12.5q-50 0 -93.5 12.5t-75.5 38.5t-51 65.5t-19 93.5q0 74 41 122t112 56v2q-63 12 -95 52.5t-32 98.5zM479 198q0 43 -16 73.5t-44 50t-64.5 28.5t-76.5 9q-41 0 -77 -9t-64 -28.5t-44 -50
t-16 -73.5q0 -46 16.5 -79.5t44 -55t64 -32t76.5 -10.5t76 10.5t64 32t44.5 55t16.5 79.5z" />
    <glyph glyph-name="nine" unicode="9" horiz-adv-x="556" 
d="M93 170q6 -33 20.5 -60.5t37 -47t52 -30.5t63.5 -11q47 0 81.5 17.5t58.5 46t39 65.5t23 76t11 77t3 69l-2 2q-11 -29 -28.5 -54t-42.5 -44.5t-57.5 -30.5t-72.5 -11q-52 0 -95 17.5t-73.5 49t-47.5 74.5t-17 95q0 51 17.5 93.5t48.5 73.5t73.5 48t93.5 17q26 0 54.5 -5
t55 -17.5t50.5 -35.5t42 -58.5t28.5 -86.5t10.5 -120q0 -42 -4 -87.5t-14.5 -89t-28.5 -82.5t-46.5 -68.5t-68 -46.5t-92.5 -17q-87 0 -144 47t-67 135h38zM279 267q43 0 78.5 16t61.5 43.5t40.5 64.5t14.5 79q0 41 -15 77.5t-41 63.5t-61.5 42.5t-77.5 15.5t-77.5 -16
t-61.5 -43t-41 -63t-15 -77t15 -78t41 -64.5t61.5 -44t77.5 -16.5z" />
    <glyph glyph-name="colon" unicode=":" horiz-adv-x="278" 
d="M113 0v103h51v-103h-51zM164 514v-103h-51v103h51z" />
    <glyph glyph-name="semicolon" unicode=";" horiz-adv-x="278" 
d="M164 514v-103h-51v103h51zM100 -93q11 5 17.5 16.5t10.5 25t5 27.5t1 24h-21v103h51v-103q0 -40 -13.5 -76t-50.5 -50v33z" />
    <glyph glyph-name="less" unicode="&#x3c;" horiz-adv-x="600" 
d="M554 472l-475 -218l475 -220v-42l-508 236v52l508 234v-42z" />
    <glyph glyph-name="equal" unicode="=" horiz-adv-x="600" 
d="M552 137h-504v38h504v-38zM552 331h-504v38h504v-38z" />
    <glyph glyph-name="greater" unicode="&#x3e;" horiz-adv-x="600" 
d="M46 34l475 218l-475 220v42l508 -236v-52l-508 -234v42z" />
    <glyph glyph-name="question" unicode="?" 
d="M231 103h51v-103h-51v103zM43 493q0 53 14.5 97t42.5 75.5t69.5 48.5t95.5 17q40 0 75.5 -11t62.5 -33t42.5 -56t15.5 -79q0 -32 -7.5 -56.5t-20 -44t-28.5 -36.5t-33 -33q-17 -15 -34.5 -31.5t-31.5 -39.5t-23 -54.5t-9 -75.5h-38q0 40 7 70.5t19 54.5t28 43.5t34 36.5
t36 35.5t32 38.5t22.5 43t8.5 49q0 37 -13.5 63.5t-36 44t-51.5 25.5t-60 8q-45 0 -79 -15t-56.5 -42t-34 -63.5t-11.5 -79.5h-38z" />
    <glyph glyph-name="at" unicode="@" horiz-adv-x="800" 
d="M513 264q-5 -16 -10.5 -32.5t-5.5 -27.5q0 -15 11.5 -24.5t27.5 -9.5q34 0 66.5 23.5t57.5 60.5t40.5 82t15.5 87q0 63 -26 113.5t-68 86.5t-96 55.5t-109 19.5q-69 0 -129.5 -27.5t-105.5 -75t-71.5 -110t-26.5 -132.5q0 -74 29 -136t76 -106.5t107 -69.5t123 -25
q41 0 81 11t75.5 30.5t65.5 47.5t53 63h44q-23 -43 -57.5 -77t-76.5 -58t-89.5 -37t-95.5 -13q-80 0 -148 29.5t-118 80.5t-78.5 120t-28.5 147q0 77 29.5 144.5t80 118t117.5 79.5t142 29q71 0 133 -23t107.5 -64.5t72 -98.5t26.5 -125q0 -57 -21 -109t-54.5 -91.5
t-74 -63.5t-79.5 -24q-26 0 -45.5 17.5t-20.5 53.5h-2q-24 -35 -58.5 -53t-75.5 -18q-29 0 -52.5 12t-40 32.5t-26 48t-9.5 57.5q0 52 17.5 105t49 96t74.5 70t95 27q24 0 43.5 -7.5t33.5 -20.5t23 -29t12 -34h2l23 71h41zM425 547q-42 0 -77.5 -26t-61 -65t-39.5 -84.5
t-14 -84.5q0 -56 29.5 -89t73.5 -33q29 0 60.5 22.5t55.5 56.5q14 20 26 44t20.5 48.5t13.5 48.5t5 44q0 14 -2.5 34t-12 39t-28 32t-49.5 13z" />
    <glyph glyph-name="A" unicode="A" horiz-adv-x="593" 
d="M454 267l-153 404h-2l-159 -404h314zM323 714l282 -714h-47l-90 229h-342l-91 -229h-47l287 714h48z" />
    <glyph glyph-name="B" unicode="B" horiz-adv-x="630" 
d="M107 390h242q90 0 135.5 40.5t45.5 106.5q0 39 -15 65.5t-40 43t-57.5 23.5t-68.5 7h-242v-286zM63 714h286q64 0 107 -16t69 -42t37.5 -59.5t11.5 -67.5q0 -29 -10 -55t-28.5 -46t-44 -33.5t-56.5 -17.5l2 -2q7 1 33 -6t54.5 -26.5t51 -54t22.5 -88.5q0 -49 -18 -86
t-50.5 -62.5t-78.5 -38.5t-102 -13h-286v714zM107 38h242q95 0 150 41t55 121q0 46 -19 75.5t-48.5 46.5t-66 23.5t-71.5 6.5h-242v-314z" />
    <glyph glyph-name="C" unicode="C" horiz-adv-x="704" 
d="M619 501q-7 45 -29 80.5t-55 60.5t-73.5 38t-85.5 13q-70 0 -125 -27t-93 -72.5t-58 -106.5t-20 -130t20 -130t58 -106.5t93 -72.5t125 -27q52 0 97.5 21.5t79.5 57t54.5 82t23.5 96.5h44q-6 -64 -31.5 -118t-65 -93.5t-91.5 -61.5t-111 -22q-80 0 -143.5 29t-107 79.5
t-66.5 119t-23 146.5t23 146.5t66.5 119t107 79.5t143.5 29q63 0 109 -16.5t77.5 -41t51.5 -53.5t30.5 -54.5t14.5 -44t4 -20.5h-44z" />
    <glyph glyph-name="D" unicode="D" horiz-adv-x="667" 
d="M63 714h234q96 0 159.5 -30t101.5 -80t53.5 -114t15.5 -132q0 -76 -19.5 -141.5t-60.5 -113.5t-103.5 -75.5t-148.5 -27.5h-232v714zM107 38h192q50 0 100.5 15.5t91.5 52t66.5 98t25.5 154.5q0 73 -14.5 125t-38 87.5t-54 56t-63 31.5t-65 14.5t-58.5 3.5h-183v-638z
" />
    <glyph glyph-name="E" unicode="E" horiz-adv-x="560" 
d="M548 38v-38h-485v714h480v-38h-436v-286h410v-38h-410v-314h441z" />
    <glyph glyph-name="F" unicode="F" horiz-adv-x="514" 
d="M107 352v-352h-44v714h448v-38h-404v-286h364v-38h-364z" />
    <glyph glyph-name="G" unicode="G" horiz-adv-x="741" 
d="M683 350v-350h-38v152h-2q-13 -39 -39 -70.5t-61.5 -53t-79 -33.5t-90.5 -12q-81 0 -143.5 29t-105.5 79t-65 117.5t-22 144.5q0 76 22.5 144.5t65.5 120.5t105.5 82.5t143.5 30.5q55 0 105 -16t89.5 -47t66.5 -75t36 -100h-42q-25 93 -90.5 146.5t-163.5 53.5
q-72 0 -127 -28t-92 -75t-56 -108.5t-19 -128.5q0 -68 18.5 -128.5t55 -105.5t91.5 -71.5t129 -26.5q64 0 115 21t86.5 59t53.5 91.5t15 119.5h-263v38h301z" />
    <glyph glyph-name="H" unicode="H" horiz-adv-x="670" 
d="M107 352v-352h-44v714h44v-324h456v324h44v-714h-44v352h-456z" />
    <glyph glyph-name="I" unicode="I" horiz-adv-x="170" 
d="M63 714h44v-714h-44v714z" />
    <glyph glyph-name="J" unicode="J" horiz-adv-x="481" 
d="M64 227q-3 -40 1 -77t20 -65.5t47.5 -46t84.5 -17.5q62 0 94 20t46 51t15.5 69.5t1.5 75.5v477h44v-492q0 -21 -0.5 -47t-6 -52.5t-17 -51.5t-33.5 -44.5t-55.5 -31.5t-83.5 -12q-72 0 -113 23t-60.5 59t-24 79t-4.5 83h44z" />
    <glyph glyph-name="K" unicode="K" horiz-adv-x="613" 
d="M63 714h44v-411l449 411h57l-326 -297l346 -417h-55l-323 387l-148 -135v-252h-44v714z" />
    <glyph glyph-name="L" unicode="L" horiz-adv-x="500" 
d="M63 714h44v-676h405v-38h-449v714z" />
    <glyph glyph-name="M" unicode="M" horiz-adv-x="809" 
d="M63 714h63l279 -665h2l276 665h63v-714h-44v660h-2l-272 -660h-44l-275 660h-2v-660h-44v714z" />
    <glyph glyph-name="N" unicode="N" horiz-adv-x="678" 
d="M63 714h55l451 -655h2v655h44v-714h-52l-454 660h-2v-660h-44v714z" />
    <glyph glyph-name="O" unicode="O" horiz-adv-x="741" 
d="M75 357q0 -69 20 -130t58 -106.5t93 -72.5t125 -27t124.5 27t92.5 72.5t58 106.5t20 130t-20 130t-58 106.5t-92.5 72.5t-124.5 27t-125 -27t-93 -72.5t-58 -106.5t-20 -130zM710 357q0 -78 -23 -146.5t-66.5 -119t-106.5 -79.5t-143 -29t-143.5 29t-107 79.5t-66.5 119
t-23 146.5t23 146.5t66.5 119t107 79.5t143.5 29t143 -29t106.5 -79.5t66.5 -119t23 -146.5z" />
    <glyph glyph-name="P" unicode="P" horiz-adv-x="591" 
d="M63 714h304q30 0 66.5 -7t68 -28.5t52.5 -61t21 -103.5q0 -94 -58.5 -145t-165.5 -51h-244v-318h-44v714zM107 356h251q48 0 81.5 14.5t53.5 37.5t29 51t9 56q0 20 -6 47.5t-24 53t-50.5 43t-86.5 17.5h-257v-320z" />
    <glyph glyph-name="Q" unicode="Q" horiz-adv-x="741" 
d="M573 48q-41 -32 -91.5 -48.5t-110.5 -16.5q-80 0 -143.5 29t-107 79.5t-66.5 119t-23 146.5t23 146.5t66.5 119t107 79.5t143.5 29t143 -29t106.5 -79.5t66.5 -119t23 -146.5q0 -88 -27.5 -160.5t-79.5 -122.5l111 -80l-23 -31zM568 99q48 47 73 114t25 144q0 69 -20 130
t-58 106.5t-92.5 72.5t-124.5 27t-125 -27t-93 -72.5t-58 -106.5t-20 -130t20 -130t58 -106.5t93 -72.5t125 -27q50 0 91.5 13.5t75.5 39.5l-108 77l23 31z" />
    <glyph glyph-name="R" unicode="R" horiz-adv-x="630" 
d="M63 714h298q47 0 88 -9.5t72 -31t48.5 -56.5t17.5 -87q0 -72 -40.5 -121.5t-112.5 -61.5v-2q40 -5 65.5 -19t41 -34.5t22.5 -46t10 -53.5t3 -56t1 -53.5t5 -47t15 -35.5h-49q-10 18 -13 42t-3.5 50.5t0 54t-2.5 53.5t-12.5 48.5t-28 39.5t-49.5 27t-78 10h-254v-325h-44
v714zM361 363q39 0 72.5 9.5t57.5 29.5t38 51t14 74q0 40 -15 68.5t-40 46.5t-58 26t-69 8h-254v-313h254z" />
    <glyph glyph-name="S" unicode="S" horiz-adv-x="630" 
d="M529 510q-2 46 -19.5 80t-47.5 57t-71.5 34.5t-90.5 11.5q-30 0 -64.5 -7t-64 -24.5t-48.5 -47t-19 -73.5q0 -43 21 -70t55 -43.5t78 -26.5t89 -19q46 -9 89.5 -21.5t78 -34t55.5 -55.5t21 -87q0 -56 -24 -94t-60.5 -62t-81 -34.5t-85.5 -10.5q-63 0 -118 13.5t-96 44
t-64.5 78.5t-22.5 117h44q-3 -59 16.5 -99.5t55.5 -66.5t84 -37.5t101 -11.5q32 0 68.5 8t67 27t51 50t20.5 78q0 45 -21 73.5t-55.5 46t-78 28t-89.5 19.5q-45 9 -89 21t-78 32.5t-55 53t-21 83.5t21.5 87.5t56 59t77.5 33t85 10.5q56 0 104.5 -12.5t85 -39t58.5 -68.5
t25 -101h-44z" />
    <glyph glyph-name="T" unicode="T" 
d="M-14 676v38h547v-38h-252v-676h-44v676h-251z" />
    <glyph glyph-name="U" unicode="U" horiz-adv-x="672" 
d="M107 714v-428q0 -21 2.5 -49t10 -57.5t22 -58t39.5 -51t61.5 -36t88.5 -13.5q66 0 110.5 18.5t72 53t39.5 83.5t12 110v428h44v-428q0 -64 -13.5 -119t-45.5 -96t-85.5 -64.5t-133.5 -23.5q-63 0 -108 16t-74.5 41.5t-46.5 58.5t-26 66.5t-11 65t-2 55.5v428h44z" />
    <glyph glyph-name="V" unicode="V" horiz-adv-x="556" 
d="M277 38h2l247 676h44l-267 -714h-51l-266 714h46z" />
    <glyph glyph-name="W" unicode="W" horiz-adv-x="889" 
d="M-6 714h45l186 -667h2l189 667h55l192 -667h2l183 667h47l-205 -714h-50l-196 676h-2l-193 -676h-49z" />
    <glyph glyph-name="X" unicode="X" horiz-adv-x="556" 
d="M1 714h51l226 -314l231 314h50l-252 -347l266 -367h-53l-242 334l-243 -334h-52l268 367z" />
    <glyph glyph-name="Y" unicode="Y" horiz-adv-x="574" 
d="M546 714h49l-287 -415v-299h-44v299l-285 415h50l258 -378z" />
    <glyph glyph-name="Z" unicode="Z" horiz-adv-x="537" 
d="M28 714h501v-38l-484 -638h493v-38h-539v38l482 638h-453v38z" />
    <glyph glyph-name="bracketleft" unicode="[" horiz-adv-x="241" 
d="M132 698v-849h99v-33h-137v915h137v-33h-99z" />
    <glyph glyph-name="backslash" unicode="\" horiz-adv-x="333" 
d="M305 -17l-318 748h41l318 -748h-41z" />
    <glyph glyph-name="bracketright" unicode="]" horiz-adv-x="241" 
d="M109 -151v849h-99v33h137v-915h-137v33h99z" />
    <glyph glyph-name="asciicircum" unicode="^" horiz-adv-x="600" 
d="M519 237l-218 420l-220 -420h-42l236 453h52l234 -453h-42z" />
    <glyph glyph-name="underscore" unicode="_" horiz-adv-x="500" 
d="M0 -125v50h500v-50h-500z" />
    <glyph glyph-name="grave" unicode="`" horiz-adv-x="167" 
d="M104 590l-134 140h51l120 -140h-37z" />
    <glyph glyph-name="a" unicode="a" horiz-adv-x="500" 
d="M435 95q0 -11 0.5 -22t3.5 -20t10 -14.5t20 -5.5q10 0 28 3v-32q-8 -2 -15.5 -3t-15.5 -1q-23 0 -36.5 6t-20.5 16t-9.5 23.5t-2.5 29.5v27h-2q-9 -23 -26 -43.5t-41.5 -36.5t-55.5 -25t-68 -9q-36 0 -67.5 7.5t-55 24.5t-36.5 44.5t-13 68.5q0 45 17.5 73.5t45 45
t61 23.5t65.5 10q64 4 99.5 9.5t52.5 17t21 30t4 50.5q0 9 -6 25.5t-21.5 33.5t-43.5 29.5t-72 12.5q-69 0 -111.5 -35t-46.5 -102h-38q4 85 54.5 127.5t141.5 42.5q34 0 66 -6t57.5 -21t41 -41t15.5 -66v-297zM397 292q-11 -13 -31 -19.5t-45.5 -9.5t-53.5 -5t-56 -6
q-68 -8 -104.5 -34.5t-36.5 -84.5q0 -47 33.5 -79.5t101.5 -32.5q65 0 103 23.5t58 54t25.5 59t5.5 38.5v96z" />
    <glyph glyph-name="b" unicode="b" horiz-adv-x="556" 
d="M65 714h38v-309h2q11 30 31 52.5t46 38t56.5 23t61.5 7.5q57 0 98.5 -20t69.5 -55t41.5 -81.5t13.5 -100.5q0 -92 -25 -147.5t-60 -85t-73 -39t-65 -9.5q-51 0 -86.5 16t-58.5 37.5t-35 42.5t-15 31h-2v-115h-38v714zM300 21q51 0 86 22t57 57.5t32 80t10 88.5
q0 43 -11.5 83t-35 71.5t-58 50.5t-80.5 19q-50 0 -87 -17t-61 -47t-36 -71t-12 -89q0 -47 11 -92t34.5 -79.5t60.5 -55.5t90 -21z" />
    <glyph glyph-name="c" unicode="c" 
d="M443 355q-3 34 -17.5 60t-37.5 43t-53.5 26t-65.5 9q-48 0 -85 -19.5t-62 -52t-38 -74t-13 -85.5q0 -52 12 -96t37 -76.5t62 -50.5t87 -18q36 0 66.5 12t54 33t38.5 50.5t20 64.5h38q-6 -46 -25.5 -82t-48 -60.5t-65 -37.5t-78.5 -13q-63 0 -107.5 22.5t-73 60.5
t-42 87.5t-13.5 103.5t15.5 102t45.5 84t74 57t101 21q42 0 78.5 -10.5t65 -31.5t46.5 -53t22 -76h-38z" />
    <glyph glyph-name="d" unicode="d" horiz-adv-x="556" 
d="M453 110h-2q-32 -61 -80 -91.5t-117 -30.5q-58 0 -100 22t-69 59t-40 85.5t-13 101.5q0 57 14 106.5t42.5 85.5t71.5 57t101 21q31 0 61 -8.5t55.5 -24.5t44.5 -40t29 -54h2v315h38v-714h-38v110zM262 21q49 0 84.5 20t59 53t35 75.5t11.5 86.5q0 45 -11.5 87.5t-34.5 76
t-59.5 53.5t-85.5 20q-51 0 -87 -19.5t-59.5 -52.5t-34 -76t-10.5 -89q0 -45 11.5 -87.5t35 -75.5t59.5 -52.5t86 -19.5z" />
    <glyph glyph-name="e" unicode="e" 
d="M448 285q-1 40 -14 78t-37 66.5t-58.5 46t-78.5 17.5q-43 0 -76.5 -18t-57.5 -47.5t-38 -67t-17 -75.5h377zM71 252q-1 -45 10.5 -87t35.5 -74t59.5 -51t83.5 -19q73 0 121.5 40.5t62.5 112.5h38q-15 -91 -72.5 -138.5t-149.5 -47.5q-56 0 -99 20.5t-71.5 56t-43 83
t-13.5 100.5q-1 53 12.5 103t42 89t71.5 62.5t101 23.5q60 0 104 -22t72 -59.5t40.5 -87.5t9.5 -105h-415z" />
    <glyph glyph-name="f" unicode="f" horiz-adv-x="241" 
d="M0 481v33h92v106q0 27 9 46.5t24.5 31.5t36 18t43.5 6q20 0 45 -5v-33q-25 5 -45 5q-32 0 -53.5 -14.5t-21.5 -57.5v-103h107v-33h-107v-481h-38v481h-92z" />
    <glyph glyph-name="g" unicode="g" horiz-adv-x="537" 
d="M481 514v-487q0 -10 -1 -31t-7 -46.5t-19.5 -52t-38 -48t-63 -34.5t-93.5 -11q-41 0 -77 8.5t-62.5 27t-43 49t-18.5 75.5h38q3 -34 17 -58t36.5 -39.5t50.5 -22.5t60 -7q45 0 76 11t51.5 28.5t31.5 38.5t16.5 41t6.5 36.5t1 25.5v118h-2q-27 -57 -73.5 -87t-112.5 -30
q-57 0 -98.5 19.5t-69 54t-41 80.5t-13.5 100q0 51 14.5 97t42.5 80.5t69.5 55t95.5 20.5q30 0 59 -8t53.5 -23t43.5 -37t30 -51h2v107h38zM255 493q-47 0 -81.5 -19t-57 -50t-34 -70.5t-11.5 -80.5q0 -45 11.5 -85.5t35 -70.5t58 -47.5t79.5 -17.5q47 0 82 18t58.5 49
t35 70.5t11.5 83.5q0 43 -11.5 83t-35 70.5t-58.5 48.5t-82 18z" />
    <glyph glyph-name="h" unicode="h" 
d="M94 714v-310h2q10 29 28.5 51.5t43 38.5t53.5 24t59 8q45 0 76.5 -11t51.5 -29t31.5 -40.5t16.5 -45.5t6 -44.5t1 -37.5v-318h-38v325q0 20 -3 48.5t-17.5 55t-44 45.5t-81.5 19q-43 0 -77.5 -16t-58.5 -44.5t-36.5 -68t-12.5 -86.5v-278h-38v714h38z" />
    <glyph glyph-name="i" unicode="i" horiz-adv-x="168" 
d="M65 611v103h38v-103h-38zM65 0v514h38v-514h-38z" />
    <glyph glyph-name="j" unicode="j" horiz-adv-x="168" 
d="M65 611v103h38v-103h-38zM103 514v-569q0 -26 -4 -49.5t-15.5 -41t-32 -28t-53.5 -10.5h-16t-16 1v33q5 -1 11 -1.5t14 -0.5q20 0 34 4.5t23 16t13 31t4 48.5v566h38z" />
    <glyph glyph-name="k" unicode="k" horiz-adv-x="463" 
d="M58 714h38v-473l317 273h55l-225 -192l241 -322h-52l-219 293l-117 -99v-194h-38v714z" />
    <glyph glyph-name="l" unicode="l" horiz-adv-x="168" 
d="M103 714v-714h-38v714h38z" />
    <glyph glyph-name="m" unicode="m" horiz-adv-x="796" 
d="M57 514h38v-105h2q6 24 21 45.5t36.5 37.5t48 25t55.5 9q37 0 64 -9.5t46 -25t30 -35t15 -39.5h2q23 53 61.5 81t101.5 28q35 0 64.5 -10.5t51 -32t33.5 -54.5t12 -78v-351h-38v352q0 49 -15 77t-35.5 42.5t-41 18t-31.5 3.5q-35 0 -64.5 -12t-51 -36t-33.5 -59.5
t-12 -81.5v-304h-38v352q0 48 -14.5 76.5t-34 42.5t-40 18t-32.5 4q-27 0 -56 -11t-53 -34t-39 -59t-15 -85v-304h-38v514z" />
    <glyph glyph-name="n" unicode="n" 
d="M56 514h38v-110h2q10 29 28.5 51.5t43 38.5t53.5 24t59 8q45 0 76.5 -11t51.5 -29t31.5 -40.5t16.5 -45.5t6 -44.5t1 -37.5v-318h-38v325q0 20 -3 48.5t-17.5 55t-44 45.5t-81.5 19q-43 0 -77.5 -16t-58.5 -44.5t-36.5 -68t-12.5 -86.5v-278h-38v514z" />
    <glyph glyph-name="o" unicode="o" horiz-adv-x="537" 
d="M70 257q0 -46 13 -88.5t38 -75.5t62 -52.5t85 -19.5t85 19.5t62 52.5t38 75.5t13 88.5t-13 88.5t-38 75.5t-62 52.5t-85 19.5t-85 -19.5t-62 -52.5t-38 -75.5t-13 -88.5zM32 257q0 55 15.5 103.5t45.5 85.5t74 58.5t101 21.5t101 -21.5t74 -58.5t45.5 -85.5t15.5 -103.5
t-15.5 -104t-45.5 -85.5t-74 -58t-101 -21.5t-101 21.5t-74 58t-45.5 85.5t-15.5 104z" />
    <glyph glyph-name="p" unicode="p" horiz-adv-x="556" 
d="M103 396h2q6 19 20 42t37 42.5t55.5 32.5t74.5 13q59 0 102.5 -22t72 -59t42.5 -86t14 -103q0 -59 -14 -108t-42.5 -84.5t-72 -55.5t-102.5 -20q-64 0 -114 28t-73 91h-2v-291h-38v698h38v-118zM292 21q50 0 86.5 19t60 51t35 74.5t11.5 90.5q0 44 -11 86.5t-34 76
t-59.5 54t-88.5 20.5q-51 0 -87 -20t-58.5 -53t-32.5 -75.5t-10 -88.5t9 -88.5t30.5 -75t58 -52t90.5 -19.5z" />
    <glyph glyph-name="q" unicode="q" horiz-adv-x="556" 
d="M453 115h-2q-10 -30 -29 -54t-44.5 -40t-55.5 -24.5t-61 -8.5q-58 0 -101 21t-71.5 57t-42.5 85.5t-14 106.5q0 53 13 101.5t40 85.5t69 59t100 22q69 0 117 -30.5t80 -91.5h2v110h38v-698h-38v299zM261 21q49 0 85.5 20t59.5 53.5t34.5 76t11.5 87.5q0 44 -11.5 86.5
t-35 75.5t-59 53t-84.5 20q-50 0 -86 -19.5t-59.5 -52.5t-35 -75.5t-11.5 -87.5q0 -47 10.5 -89.5t34 -75.5t59.5 -52.5t87 -19.5z" />
    <glyph glyph-name="r" unicode="r" horiz-adv-x="278" 
d="M94 400h3q7 25 26 47t45 38t58.5 24.5t67.5 7.5v-38q-30 4 -68.5 -6t-73.5 -44q-14 -15 -24.5 -29t-17.5 -31t-11 -38t-5 -50v-281h-38v514h38v-114z" />
    <glyph glyph-name="s" unicode="s" horiz-adv-x="481" 
d="M74 171q2 -36 16 -63.5t36.5 -47t52.5 -29.5t65 -10q25 0 53.5 4.5t53 16.5t40.5 33.5t16 54.5t-15 53t-40 32t-56.5 19t-64.5 14t-65 16t-57 24.5t-40 41t-15 64.5q0 38 17 63.5t43.5 40.5t59.5 21.5t66 6.5q41 0 75.5 -9t60 -29t40 -51t14.5 -75h-38q0 35 -12 60
t-32 40.5t-48 23t-60 7.5q-26 0 -52.5 -5t-47.5 -17t-34.5 -31t-13.5 -46q0 -31 15 -50t39.5 -30.5t55 -18.5t61.5 -14q38 -7 71.5 -16.5t58 -26t38.5 -42.5t14 -66q0 -42 -19 -69t-48 -43.5t-64.5 -23t-69.5 -6.5q-44 0 -81.5 11.5t-65.5 35t-44 57.5t-17 79h38z" />
    <glyph glyph-name="t" unicode="t" horiz-adv-x="259" 
d="M245 481h-112v-359q0 -31 7 -49t21.5 -27t35 -11.5t47.5 -1.5v-33q-29 -2 -56.5 0.5t-48.5 15t-33.5 37.5t-10.5 69v359h-95v33h95v160h38v-160h112v-33z" />
    <glyph glyph-name="u" unicode="u" 
d="M463 0h-38v110h-2q-10 -29 -28.5 -51.5t-43 -38.5t-53.5 -24t-59 -8q-45 0 -76.5 11t-51.5 29t-31.5 40.5t-16.5 45.5t-6 44.5t-1 37.5v318h38v-325q0 -20 3 -48.5t17.5 -55t43.5 -45.5t82 -19q43 0 77.5 16t58.5 44.5t36.5 68t12.5 86.5v278h38v-514z" />
    <glyph glyph-name="v" unicode="v" horiz-adv-x="444" 
d="M252 0h-47l-207 514h44l186 -470h2l174 470h42z" />
    <glyph glyph-name="w" unicode="w" horiz-adv-x="704" 
d="M184 44h2l140 470h51l141 -470h2l144 470h42l-165 -514h-47l-141 466h-2l-142 -466h-48l-163 514h41z" />
    <glyph glyph-name="x" unicode="x" horiz-adv-x="444" 
d="M196 270l-188 244h53l161 -215l162 215h49l-186 -244l203 -270h-52l-176 241l-180 -241h-48z" />
    <glyph glyph-name="y" unicode="y" horiz-adv-x="444" 
d="M-6 514h45l191 -469l176 469h43l-220 -569q-16 -38 -29.5 -65.5t-30.5 -40.5q-20 -16 -48 -19.5t-72 -3.5v33q41 0 64 6.5t43 26.5q11 11 23 40.5t30 80.5z" />
    <glyph glyph-name="z" unicode="z" horiz-adv-x="426" 
d="M417 33v-33h-408v36l345 445h-318v33h365v-36l-346 -445h362z" />
    <glyph glyph-name="braceleft" unicode="{" horiz-adv-x="333" 
d="M293 698h-48q-31 0 -41.5 -23t-10.5 -80v-157q0 -50 -9 -80.5t-21 -48t-23.5 -24t-16.5 -9.5q5 -5 16.5 -12.5t23.5 -25.5t21 -48.5t9 -80.5v-157q0 -57 10.5 -80t41.5 -23h48v-33h-50q-42 0 -65 25t-23 93v158q0 30 -3 59t-11 51.5t-22 36.5t-36 15v38q22 1 36 15
t22 36.5t11 51.5t3 59v159q0 68 23 93t65 25h50v-33z" />
    <glyph glyph-name="bar" unicode="|" horiz-adv-x="222" 
d="M92 786h38v-1000h-38v1000z" />
    <glyph glyph-name="braceright" unicode="}" horiz-adv-x="333" 
d="M40 -151h48q31 0 41.5 23t10.5 80v157q0 50 9 80.5t21 48.5t23.5 25.5t16.5 12.5q-5 3 -16.5 9.5t-23.5 24t-21 48t-9 80.5v157q0 57 -10.5 80t-41.5 23h-48v33h50q42 0 65 -25t23 -93v-159q0 -30 3 -59t11 -51.5t22 -36.5t36 -15v-38q-22 -1 -36 -15t-22 -36.5
t-11 -51.5t-3 -59v-158q0 -68 -23 -93t-65 -25h-50v33z" />
    <glyph glyph-name="asciitilde" unicode="~" horiz-adv-x="600" 
d="M528 284q-10 -15 -22 -30t-26.5 -27.5t-32.5 -20t-40 -7.5q-28 0 -54 10.5t-60 27.5q-8 4 -20 9.5t-24.5 10t-25 7.5t-22.5 3q-22 0 -38.5 -7t-28 -18.5t-19.5 -24.5t-13 -25l-29 30q23 38 49.5 60.5t72.5 22.5q30 0 53.5 -8.5t57.5 -23.5q21 -10 45.5 -23t56.5 -13
q15 0 28.5 7t25.5 18.5t22 24.5t16 25z" />
    <glyph glyph-name="uni00A0" unicode="&#xa0;" horiz-adv-x="278" 
 />
    <glyph glyph-name="exclamdown" unicode="&#xa1;" horiz-adv-x="259" 
d="M155 535v-103h-51v103h51zM105 -184v241l12 290h24l12 -290v-241h-48z" />
    <glyph glyph-name="cent" unicode="&#xa2;" horiz-adv-x="556" 
d="M272 -12q-59 3 -100.5 26.5t-68.5 61t-39.5 86t-12.5 100.5t14.5 98.5t42.5 82.5t69.5 58t94.5 25v89h32v-89q39 -2 73 -13.5t60 -32.5t42 -52.5t20 -72.5h-38q-5 64 -48.5 98.5t-108.5 39.5v-472q33 3 60.5 16t48.5 34t34.5 49t18.5 61h38q-6 -44 -23.5 -78.5t-43.5 -59
t-60 -38.5t-73 -17v-106h-32v106zM272 493q-45 -3 -79 -24t-57 -52.5t-35 -72t-12 -82.5q0 -50 11.5 -93t34 -75t57 -51t80.5 -22v472z" />
    <glyph glyph-name="sterling" unicode="&#xa3;" horiz-adv-x="556" 
d="M50 363h60q-23 41 -41.5 84.5t-18.5 91.5q0 47 18.5 83t50 60t72.5 36.5t86 12.5q117 0 177.5 -61.5t57.5 -185.5h-38q-1 102 -47 155.5t-149 53.5q-88 0 -139 -40.5t-51 -111.5q0 -27 6.5 -51t16.5 -45.5t21.5 -42t20.5 -39.5h160v-33h-141q10 -15 16.5 -42.5t6.5 -65.5
q0 -29 -8.5 -56t-22 -51.5t-31.5 -46t-37 -37.5l2 -2q22 15 45 25.5t49 10.5q31 0 56 -7t48 -16q23 -8 45 -14.5t46 -6.5q44 0 75.5 21t59.5 47l22 -33q-29 -31 -68 -52t-83 -21q-31 0 -57 7t-51 15q-24 8 -47.5 15t-48.5 7q-38 0 -63.5 -12.5t-56.5 -31.5l-25 34
q21 20 41.5 42.5t36 48t25.5 54.5t10 62q0 30 -8 58t-21 48h-78v33z" />
    <glyph glyph-name="currency" unicode="&#xa4;" horiz-adv-x="556" 
d="M278 135q41 0 78 16.5t65 45t44.5 66.5t16.5 82q0 43 -16.5 81.5t-44.5 67t-65 45t-78 16.5t-78 -16.5t-65 -45t-44.5 -67t-16.5 -81.5q0 -44 16.5 -82t44.5 -66.5t65 -45t78 -16.5zM492 104l-53 54q-35 -31 -77 -46t-85 -15t-84 15t-76 46l-55 -56l-27 27l56 55
q-30 35 -45 76.5t-16 84.5q0 43 15 84.5t46 76.5l-57 56l27 27l56 -56q35 29 76 44t84 16q43 0 85 -15t77 -46l54 55l27 -27l-55 -54q31 -35 46 -76.5t15 -84.5t-15 -84.5t-46 -75.5l54 -54z" />
    <glyph glyph-name="yen" unicode="&#xa5;" horiz-adv-x="556" 
d="M41 714l238 -374l239 374h45l-238 -372h92v-33h-120v-78h120v-33h-120v-198h-38v198h-120v33h120v78h-120v33h92l-238 372h48z" />
    <glyph glyph-name="brokenbar" unicode="&#xa6;" horiz-adv-x="222" 
d="M92 661h38v-250h-38v250zM92 161h38v-250h-38v250z" />
    <glyph glyph-name="section" unicode="&#xa7;" horiz-adv-x="556" 
d="M411 536q1 30 -7.5 59.5t-26 52t-43.5 36.5t-59 14q-22 1 -44.5 -6.5t-41 -21t-30.5 -33.5t-12 -44q0 -34 15.5 -60t40.5 -47t56.5 -38.5t64.5 -34.5t65 -35.5t57.5 -41.5t41 -53t15.5 -70q0 -58 -31.5 -90.5t-79.5 -45.5q30 -28 43.5 -54t13.5 -69q0 -38 -13.5 -64
t-36.5 -42.5t-53.5 -24t-64.5 -7.5q-44 0 -77.5 14.5t-57 40t-35.5 61t-12 77.5h38q1 -33 10 -62t26.5 -51t44 -34.5t62.5 -12.5q60 0 95.5 25t35.5 80q0 33 -15.5 58.5t-41 46.5t-58 39t-65.5 36q-38 22 -71 42.5t-58 44t-38.5 51.5t-11.5 65q0 24 9 45t24.5 38t35.5 30
t42 21q-17 12 -28.5 29.5t-17.5 35t-8 33t0 24.5q0 31 14 57t37.5 44.5t53 28t61.5 8.5q87 0 130 -53t44 -142h-38zM187 449q-18 -7 -35 -17.5t-31 -24.5t-22.5 -31.5t-8.5 -38.5q0 -26 10 -46t26 -36.5t35 -29t37 -23.5q42 -25 83 -50t82 -51q4 -1 12 1.5t17.5 8t19.5 12
t18 12.5q15 14 25 34t10 44q0 26 -12 47.5t-30.5 39.5t-40.5 32.5t-43 26.5z" />
    <glyph glyph-name="dieresis" unicode="&#xa8;" horiz-adv-x="167" 
d="M140 603v103h44v-103h-44zM-18 603v103h44v-103h-44z" />
    <glyph glyph-name="copyright" unicode="&#xa9;" horiz-adv-x="800" 
d="M400 731q78 0 146 -29.5t118.5 -80t80 -118.5t29.5 -146t-29.5 -146t-80 -118.5t-118.5 -80t-146 -29.5t-146 29.5t-118.5 80t-80 118.5t-29.5 146t29.5 146t80 118.5t118.5 80t146 29.5zM561 438q-11 57 -52.5 89.5t-99.5 32.5q-44 0 -78.5 -15t-58.5 -42t-36.5 -64
t-12.5 -80q0 -42 13 -79.5t37.5 -65.5t59 -44.5t78.5 -16.5q61 0 98.5 35.5t51.5 92.5h38q-5 -36 -21 -66t-41.5 -51t-57.5 -32.5t-68 -11.5q-51 0 -93 18t-71.5 50t-45.5 75.5t-16 94.5t15.5 94.5t44.5 74.5t70 48.5t93 17.5q36 0 68.5 -10t58 -30t42.5 -49t22 -66h-38z
M401 698q-72 0 -134 -26t-107 -72t-70.5 -108t-25.5 -134q0 -71 26 -133.5t71 -109t106.5 -73t133.5 -26.5t133 27t106 73.5t70.5 108.5t25.5 133q0 72 -25.5 134t-70 107.5t-106 72t-133.5 26.5z" />
    <glyph glyph-name="ordfeminine" unicode="&#xaa;" horiz-adv-x="310" 
d="M29 596q12 106 132 106q23 0 45 -3.5t39 -13.5t27 -26.5t10 -41.5v-178q0 -14 2 -25.5t16 -11.5h7q5 0 11 2v-27q-5 -1 -10 -1.5t-10 -0.5q-29 0 -37 13t-8 32v14h-2q-9 -27 -41 -47.5t-82 -20.5q-25 0 -46 4.5t-36.5 15.5t-24 29.5t-8.5 46.5t11.5 46t29 28.5t39.5 14.5
t43 6q41 3 64 6.5t34.5 10t14 18t2.5 30.5q0 26 -26 39.5t-67 13.5t-67.5 -20.5t-29.5 -58.5h-32zM250 554q-7 -8 -20 -12t-29 -6t-34 -3t-34 -3q-42 -5 -65 -20.5t-23 -47.5q0 -29 21 -49t59 -20q42 0 67 14t38 32t16.5 35.5t3.5 23.5v56z" />
    <glyph glyph-name="guillemotleft" unicode="&#xab;" horiz-adv-x="389" 
d="M195 252v40l114 131v-51l-85 -100l85 -102v-49zM67 252v40l114 131v-51l-85 -100l85 -102v-49z" />
    <glyph glyph-name="logicalnot" unicode="&#xac;" horiz-adv-x="600" 
d="M514 331h-466v38h504v-261h-38v223z" />
    <glyph glyph-name="uni00AD" unicode="&#xad;" horiz-adv-x="352" 
d="M69 253v38h214v-38h-214z" />
    <glyph glyph-name="registered" unicode="&#xae;" horiz-adv-x="800" 
d="M400 731q78 0 146 -29.5t118.5 -80t80 -118.5t29.5 -146t-29.5 -146t-80 -118.5t-118.5 -80t-146 -29.5t-146 29.5t-118.5 80t-80 118.5t-29.5 146t29.5 146t80 118.5t118.5 80t146 29.5zM401 698q-72 0 -134 -26t-107 -72t-70.5 -108.5t-25.5 -134.5q0 -71 26 -133
t71 -108.5t106.5 -73t133.5 -26.5t133 27t106 73.5t70.5 108.5t25.5 133q0 72 -25.5 134t-70 107.5t-106 72t-133.5 26.5zM302 373h94q25 0 50 2.5t45 11t32.5 25t12.5 45.5q0 25 -10 42t-26 27.5t-36 14.5t-40 4h-122v-172zM264 578h166q75 0 109.5 -31t34.5 -91
q0 -54 -33.5 -82t-80.5 -35l132 -203h-42l-133 204h-115v-204h-38v442z" />
    <glyph glyph-name="macron" unicode="&#xaf;" horiz-adv-x="167" 
d="M-37 638v33h242v-33h-242z" />
    <glyph glyph-name="degree" unicode="&#xb0;" horiz-adv-x="400" 
d="M200 416q-30 0 -56 11t-45.5 30.5t-30.5 45.5t-11 56t11 56t30.5 45.5t45.5 30.5t56 11t56 -11t45.5 -30.5t30.5 -45.5t11 -56t-11 -56t-30.5 -45.5t-45.5 -30.5t-56 -11zM200 669q-23 0 -42 -9t-33 -24t-22 -35t-8 -42q0 -23 8 -43t22 -35t33 -23.5t42 -8.5
q22 0 41.5 8.5t33.5 23.5t22 35t8 43q0 22 -8 42t-22 35t-33.5 24t-41.5 9z" />
    <glyph glyph-name="plusminus" unicode="&#xb1;" horiz-adv-x="600" 
d="M48 38h504v-38h-504v38zM281 504h38v-189h233v-38h-233v-189h-38v189h-233v38h233v189z" />
    <glyph glyph-name="twosuperior" unicode="&#xb2;" horiz-adv-x="333" 
d="M316 302v-27h-300q1 31 13 55t31 44t43 36.5t48 31.5t47.5 30t42 32t29.5 37t11 44q0 16 -6.5 32.5t-20 29t-34.5 20.5t-50 8q-60 0 -85.5 -33.5t-28.5 -90.5h-32q2 34 10.5 61.5t25.5 47.5t44 31t66 11q30 0 56 -7t45.5 -21.5t30.5 -37t11 -52.5q0 -25 -10.5 -46.5
t-28.5 -40.5t-40.5 -35.5t-46.5 -31.5t-46 -28.5t-40 -28t-32 -31.5t-21 -40h268z" />
    <glyph glyph-name="threesuperior" unicode="&#xb3;" horiz-adv-x="333" 
d="M50 415q-2 -57 33 -89.5t96 -32.5q24 0 46.5 6.5t40.5 19t28.5 31t10.5 41.5q0 28 -13 46t-34 28.5t-48 14t-55 1.5v27q24 -1 49 2t45.5 13t33 27t12.5 43q0 21 -11 36.5t-27.5 25.5t-37.5 15t-40 5q-58 0 -87 -32.5t-31 -83.5h-32q1 66 40.5 104.5t114.5 38.5
q27 0 52.5 -6t46 -19t32.5 -33.5t12 -50.5q0 -37 -24 -63.5t-64 -31.5v-2q46 -5 72 -34t26 -71q0 -32 -12 -55.5t-33 -39t-49 -23t-59 -7.5q-82 0 -125.5 37.5t-40.5 111.5h32z" />
    <glyph glyph-name="acute" unicode="&#xb4;" horiz-adv-x="167" 
d="M146 730h51l-134 -140h-37z" />
    <glyph glyph-name="mu" unicode="&#xb5;" 
d="M463 0h-38v110h-2q-10 -29 -28.5 -51.5t-43 -38.5t-53.5 -24t-59 -8q-41 0 -79.5 12t-63.5 44h-2v-228h-38v698h38v-325q0 -20 3 -48.5t17.5 -55t43.5 -45.5t82 -19q43 0 77.5 16t58.5 44.5t36.5 68t12.5 86.5v278h38v-514z" />
    <glyph glyph-name="paragraph" unicode="&#xb6;" horiz-adv-x="600" 
d="M273 324q-44 0 -82 15.5t-65.5 42t-43.5 62t-16 74.5q0 97 58.5 146.5t164.5 49.5h217v-860h-38v827h-157v-827h-38v470z" />
    <glyph glyph-name="periodcentered" unicode="&#xb7;" horiz-adv-x="278" 
d="M85 317q0 21 16.5 37.5t37.5 16.5t38 -16t17 -38t-16.5 -38.5t-38.5 -16.5t-38 17t-16 38z" />
    <glyph glyph-name="cedilla" unicode="&#xb8;" horiz-adv-x="167" 
d="M117 0l-48 -56l2 -2q7 3 16 5.5t21 2.5q29 1 51.5 -16.5t22.5 -52.5t-24 -56t-74 -21q-32 0 -55.5 8.5t-36.5 16.5l11 24q17 -8 35.5 -15t44.5 -7q24 0 42.5 11.5t18.5 38.5q0 12 -4.5 19t-12 13t-16 8.5t-15.5 2.5q-16 0 -29 -3.5t-24 -8.5l-16 13l56 75h34z" />
    <glyph glyph-name="onesuperior" unicode="&#xb9;" horiz-adv-x="333" 
d="M208 275h-32v371q-46 -47 -117 -53v27q37 5 68.5 24.5t51.5 48.5h29v-418z" />
    <glyph glyph-name="ordmasculine" unicode="&#xba;" horiz-adv-x="334" 
d="M167 393q33 0 56.5 11.5t39 31t23 45t7.5 53.5t-7.5 53.5t-23 45t-39 31t-56.5 11.5t-56.5 -11.5t-39 -31t-23 -45t-7.5 -53.5t7.5 -53.5t23 -45t39 -31t56.5 -11.5zM167 366q-38 0 -67.5 12.5t-49.5 35t-30.5 53.5t-10.5 67t10.5 66.5t30.5 53t49.5 35.5t67.5 13
t67.5 -13t49.5 -35.5t30.5 -53t10.5 -66.5t-10.5 -67t-30.5 -53.5t-49.5 -35t-67.5 -12.5z" />
    <glyph glyph-name="guillemotright" unicode="&#xbb;" horiz-adv-x="389" 
d="M208 170l85 102l-85 100v51l114 -131v-40l-114 -131v49zM80 170l85 102l-85 100v51l114 -131v-40l-114 -131v49z" />
    <glyph glyph-name="onequarter" unicode="&#xbc;" horiz-adv-x="834" 
d="M641 381h-2l-177 -250h179v250zM673 414v-283h71v-27h-71v-104h-32v104h-215v27l200 283h47zM243 275h-32v371q-46 -47 -117 -53v27q37 5 68.5 24.5t51.5 48.5h29v-418zM616 714h40l-465 -738h-40z" />
    <glyph glyph-name="onehalf" unicode="&#xbd;" horiz-adv-x="834" 
d="M783 27v-27h-300q1 31 13 55t31 44t43 36.5t48 31.5t47.5 30t42 32t29.5 37t11 44q0 16 -6.5 32.5t-20 29t-34.5 20.5t-50 8q-60 0 -85.5 -33.5t-28.5 -90.5h-32q2 34 10.5 61.5t25.5 47.5t44 31t66 11q30 0 56 -7t45.5 -21.5t30.5 -37t11 -52.5q0 -25 -10.5 -46.5
t-28.5 -40.5t-40.5 -35.5t-46.5 -31.5t-46 -28.5t-40 -28t-31 -31.5t-20 -40h266zM213 275h-32v371q-46 -47 -117 -53v27q37 5 68.5 24.5t51.5 48.5h29v-418zM586 714h40l-465 -738h-40z" />
    <glyph glyph-name="threequarters" unicode="&#xbe;" horiz-adv-x="834" 
d="M671 381h-2l-177 -250h179v250zM703 414v-283h71v-27h-71v-104h-32v104h-215v27l200 283h47zM663 714h40l-465 -738h-40zM65 415q-2 -57 33 -89.5t96 -32.5q24 0 46.5 6.5t40.5 19t28.5 31t10.5 41.5q0 28 -13 46t-34 28.5t-48 14t-55 1.5v27q24 -1 49 2t45.5 13t33 27
t12.5 43q0 21 -11 36.5t-27.5 25.5t-37.5 15t-40 5q-58 0 -87 -32.5t-31 -83.5h-32q1 66 40.5 104.5t114.5 38.5q27 0 52.5 -6t46 -19t32.5 -33.5t12 -50.5q0 -37 -24 -63.5t-64 -31.5v-2q46 -5 72 -34t26 -71q0 -32 -12 -55.5t-33 -39t-49 -23t-59 -7.5q-82 0 -125.5 37.5
t-40.5 111.5h32z" />
    <glyph glyph-name="questiondown" unicode="&#xbf;" 
d="M287 432h-51v103h51v-103zM475 42q0 -53 -14.5 -97t-42.5 -75.5t-69.5 -48.5t-95.5 -17q-40 0 -75.5 11t-62.5 33t-42.5 56t-15.5 79q0 32 7.5 56.5t20 44t28.5 36t33 33.5q17 15 34.5 31.5t31.5 39.5t23 54.5t9 75.5h38q0 -40 -7 -70.5t-19 -54.5t-28 -43.5t-34 -36.5
t-36 -35.5t-32 -38.5t-22.5 -43t-8.5 -49q0 -37 13.5 -63.5t36 -44t51.5 -25.5t60 -8q45 0 79 15t56.5 42t34 63.5t11.5 79.5h38z" />
    <glyph glyph-name="Agrave" unicode="&#xc0;" horiz-adv-x="593" 
d="M454 267l-153 404h-2l-159 -404h314zM323 714l282 -714h-47l-90 229h-342l-91 -229h-47l287 714h48zM286 780l-134 140h51l120 -140h-37z" />
    <glyph glyph-name="Aacute" unicode="&#xc1;" horiz-adv-x="593" 
d="M454 267l-153 404h-2l-159 -404h314zM323 714l282 -714h-47l-90 229h-342l-91 -229h-47l287 714h48zM395 920h51l-134 -140h-37z" />
    <glyph glyph-name="Acircumflex" unicode="&#xc2;" horiz-adv-x="593" 
d="M454 267l-153 404h-2l-159 -404h314zM323 714l282 -714h-47l-90 229h-342l-91 -229h-47l287 714h48zM319 920l116 -140h-38l-98 115l-97 -115h-38l115 140h40z" />
    <glyph glyph-name="Atilde" unicode="&#xc3;" horiz-adv-x="593" 
d="M454 267l-153 404h-2l-159 -404h314zM323 714l282 -714h-47l-90 229h-342l-91 -229h-47l287 714h48zM156 799q1 16 7 32.5t15.5 29t23 20.5t31.5 8t35 -7.5t35 -18.5t35.5 -21t32.5 -10q21 0 32 18.5t13 38.5h29q-2 -17 -7 -33t-14 -28t-22 -20.5t-33 -8.5q-17 0 -35 9.5
t-34 19.5q-31 19 -42.5 23.5t-25.5 4.5q-20 0 -31.5 -17t-15.5 -40h-29z" />
    <glyph glyph-name="Adieresis" unicode="&#xc4;" horiz-adv-x="593" 
d="M454 267l-153 404h-2l-159 -404h314zM323 714l282 -714h-47l-90 229h-342l-91 -229h-47l287 714h48zM357 793v103h44v-103h-44zM199 793v103h44v-103h-44z" />
    <glyph glyph-name="Aring" unicode="&#xc5;" horiz-adv-x="593" 
d="M454 267l-153 404h-2l-159 -404h314zM323 714l282 -714h-47l-90 229h-342l-91 -229h-47l287 714h48zM227 850q0 -30 21 -51t51 -21t51 21t21 51t-21 51t-51 21t-51 -21t-21 -51zM200 850q0 42 28.5 70.5t70.5 28.5t70.5 -28.5t28.5 -70.5t-28.5 -70.5t-70.5 -28.5
t-70.5 28.5t-28.5 70.5z" />
    <glyph glyph-name="AE" unicode="&#xc6;" horiz-adv-x="870" 
d="M431 676h-47l-201 -384h248v384zM364 714h490v-38h-379v-286h350v-38h-350v-314h380v-38h-424v254h-268l-132 -254h-40z" />
    <glyph glyph-name="Ccedilla" unicode="&#xc7;" horiz-adv-x="704" 
d="M619 501q-7 45 -29 80.5t-55 60.5t-73.5 38t-85.5 13q-70 0 -125 -27t-93 -72.5t-58 -106.5t-20 -130t20 -130t58 -106.5t93 -72.5t125 -27q52 0 97.5 21.5t79.5 57t54.5 82t23.5 96.5h44q-6 -64 -31.5 -118t-65 -93.5t-91.5 -61.5t-111 -22h-1l-33 -39l2 -2q7 3 16 5.5
t21 2.5q29 1 51.5 -16.5t22.5 -52.5t-24 -56t-74 -21q-32 0 -55.5 8.5t-36.5 16.5l11 24q17 -8 35.5 -15t44.5 -7q24 0 42.5 11.5t18.5 38.5q0 12 -4.5 19t-12 13t-16 8.5t-15.5 2.5q-16 0 -29 -3.5t-24 -8.5l-16 13l44 59q-61 5 -112 28q-63 29 -106.5 79.5t-66.5 119
t-23 146.5t23 146.5t66.5 119t107 79.5t143.5 29q63 0 109 -16.5t77.5 -41t51.5 -53.5t30.5 -54.5t14.5 -44t4 -20.5h-44z" />
    <glyph glyph-name="Egrave" unicode="&#xc8;" horiz-adv-x="560" 
d="M548 38v-38h-485v714h480v-38h-436v-286h410v-38h-410v-314h441zM306 780l-134 140h51l120 -140h-37z" />
    <glyph glyph-name="Eacute" unicode="&#xc9;" horiz-adv-x="560" 
d="M548 38v-38h-485v714h480v-38h-436v-286h410v-38h-410v-314h441zM403 920h51l-134 -140h-37z" />
    <glyph glyph-name="Ecircumflex" unicode="&#xca;" horiz-adv-x="560" 
d="M548 38v-38h-485v714h480v-38h-436v-286h410v-38h-410v-314h441zM317 920l116 -140h-38l-98 115l-97 -115h-38l115 140h40z" />
    <glyph glyph-name="Edieresis" unicode="&#xcb;" horiz-adv-x="560" 
d="M548 38v-38h-485v714h480v-38h-436v-286h410v-38h-410v-314h441zM361 793v103h44v-103h-44zM203 793v103h44v-103h-44z" />
    <glyph glyph-name="Igrave" unicode="&#xcc;" horiz-adv-x="170" 
d="M63 714h44v-714h-44v714zM72 780l-134 140h51l120 -140h-37z" />
    <glyph glyph-name="Iacute" unicode="&#xcd;" horiz-adv-x="170" 
d="M63 714h44v-714h-44v714zM184 920h51l-134 -140h-37z" />
    <glyph glyph-name="Icircumflex" unicode="&#xce;" horiz-adv-x="170" 
d="M63 714h44v-714h-44v714zM105 920l116 -140h-38l-98 115l-97 -115h-38l115 140h40z" />
    <glyph glyph-name="Idieresis" unicode="&#xcf;" horiz-adv-x="170" 
d="M63 714h44v-714h-44v714zM142 793v103h44v-103h-44zM-16 793v103h44v-103h-44z" />
    <glyph glyph-name="Eth" unicode="&#xd0;" horiz-adv-x="667" 
d="M371 396v-33h-264v-325h192q50 0 100.5 15.5t91.5 52t66.5 98t25.5 154.5q0 73 -14.5 125t-38 87.5t-54 56t-63 31.5t-65 14.5t-58.5 3.5h-183v-280h264zM63 714h234q96 0 159.5 -30t101.5 -80t53.5 -114t15.5 -132q0 -76 -19.5 -141.5t-60.5 -113.5t-103.5 -75.5
t-148.5 -27.5h-232v363h-68v33h68v318z" />
    <glyph glyph-name="Ntilde" unicode="&#xd1;" horiz-adv-x="678" 
d="M63 714h55l451 -655h2v655h44v-714h-52l-454 660h-2v-660h-44v714zM206 799q1 16 7 32.5t15.5 29t23 20.5t31.5 8t35 -7.5t35 -18.5t35.5 -21t32.5 -10q21 0 32 18.5t13 38.5h29q-2 -17 -7 -33t-14 -28t-22 -20.5t-33 -8.5q-17 0 -35 9.5t-34 19.5q-31 19 -42.5 23.5
t-25.5 4.5q-20 0 -31.5 -17t-15.5 -40h-29z" />
    <glyph glyph-name="Ograve" unicode="&#xd2;" horiz-adv-x="741" 
d="M75 357q0 -69 20 -130t58 -106.5t93 -72.5t125 -27t124.5 27t92.5 72.5t58 106.5t20 130t-20 130t-58 106.5t-92.5 72.5t-124.5 27t-125 -27t-93 -72.5t-58 -106.5t-20 -130zM710 357q0 -78 -23 -146.5t-66.5 -119t-106.5 -79.5t-143 -29t-143.5 29t-107 79.5t-66.5 119
t-23 146.5t23 146.5t66.5 119t107 79.5t143.5 29t143 -29t106.5 -79.5t66.5 -119t23 -146.5zM364 780l-134 140h51l120 -140h-37z" />
    <glyph glyph-name="Oacute" unicode="&#xd3;" horiz-adv-x="741" 
d="M75 357q0 -69 20 -130t58 -106.5t93 -72.5t125 -27t124.5 27t92.5 72.5t58 106.5t20 130t-20 130t-58 106.5t-92.5 72.5t-124.5 27t-125 -27t-93 -72.5t-58 -106.5t-20 -130zM710 357q0 -78 -23 -146.5t-66.5 -119t-106.5 -79.5t-143 -29t-143.5 29t-107 79.5t-66.5 119
t-23 146.5t23 146.5t66.5 119t107 79.5t143.5 29t143 -29t106.5 -79.5t66.5 -119t23 -146.5zM457 920h51l-134 -140h-37z" />
    <glyph glyph-name="Ocircumflex" unicode="&#xd4;" horiz-adv-x="741" 
d="M75 357q0 -69 20 -130t58 -106.5t93 -72.5t125 -27t124.5 27t92.5 72.5t58 106.5t20 130t-20 130t-58 106.5t-92.5 72.5t-124.5 27t-125 -27t-93 -72.5t-58 -106.5t-20 -130zM710 357q0 -78 -23 -146.5t-66.5 -119t-106.5 -79.5t-143 -29t-143.5 29t-107 79.5t-66.5 119
t-23 146.5t23 146.5t66.5 119t107 79.5t143.5 29t143 -29t106.5 -79.5t66.5 -119t23 -146.5zM392 920l116 -140h-38l-98 115l-97 -115h-38l115 140h40z" />
    <glyph glyph-name="Otilde" unicode="&#xd5;" horiz-adv-x="741" 
d="M75 357q0 -69 20 -130t58 -106.5t93 -72.5t125 -27t124.5 27t92.5 72.5t58 106.5t20 130t-20 130t-58 106.5t-92.5 72.5t-124.5 27t-125 -27t-93 -72.5t-58 -106.5t-20 -130zM710 357q0 -78 -23 -146.5t-66.5 -119t-106.5 -79.5t-143 -29t-143.5 29t-107 79.5t-66.5 119
t-23 146.5t23 146.5t66.5 119t107 79.5t143.5 29t143 -29t106.5 -79.5t66.5 -119t23 -146.5zM227 799q1 16 7 32.5t15.5 29t23 20.5t31.5 8t35 -7.5t35 -18.5t35.5 -21t32.5 -10q21 0 32 18.5t13 38.5h29q-2 -17 -7 -33t-14 -28t-22 -20.5t-33 -8.5q-17 0 -35 9.5t-34 19.5
q-31 19 -42.5 23.5t-25.5 4.5q-20 0 -31.5 -17t-15.5 -40h-29z" />
    <glyph glyph-name="Odieresis" unicode="&#xd6;" horiz-adv-x="741" 
d="M75 357q0 -69 20 -130t58 -106.5t93 -72.5t125 -27t124.5 27t92.5 72.5t58 106.5t20 130t-20 130t-58 106.5t-92.5 72.5t-124.5 27t-125 -27t-93 -72.5t-58 -106.5t-20 -130zM710 357q0 -78 -23 -146.5t-66.5 -119t-106.5 -79.5t-143 -29t-143.5 29t-107 79.5t-66.5 119
t-23 146.5t23 146.5t66.5 119t107 79.5t143.5 29t143 -29t106.5 -79.5t66.5 -119t23 -146.5zM430 793v103h44v-103h-44zM272 793v103h44v-103h-44z" />
    <glyph glyph-name="multiply" unicode="&#xd7;" horiz-adv-x="600" 
d="M273 252l-194 195l26 27l195 -195l194 195l27 -27l-194 -195l194 -194l-27 -27l-194 195l-195 -195l-26 27z" />
    <glyph glyph-name="Oslash" unicode="&#xd8;" horiz-adv-x="741" 
d="M113 102q-40 50 -61 115t-21 140q0 78 23 146.5t66.5 119t107 79.5t143.5 29q72 0 130.5 -24t101.5 -67l68 74l26 -24l-70 -76q41 -50 62 -115.5t21 -141.5q0 -78 -23 -146.5t-66.5 -119t-106.5 -79.5t-143 -29q-74 0 -133 24t-102 69l-76 -84l-26 24zM575 609
q-38 39 -89 61.5t-115 22.5q-70 0 -125 -27t-93 -72.5t-58 -106.5t-20 -130q0 -64 17 -121t51 -102zM165 108q38 -41 89.5 -64t116.5 -23q70 0 124.5 27t92.5 72.5t58 106.5t20 130q0 65 -17.5 122.5t-50.5 102.5z" />
    <glyph glyph-name="Ugrave" unicode="&#xd9;" horiz-adv-x="672" 
d="M107 714v-428q0 -21 2.5 -49t10 -57.5t22 -58t39.5 -51t61.5 -36t88.5 -13.5q66 0 110.5 18.5t72 53t39.5 83.5t12 110v428h44v-428q0 -64 -13.5 -119t-45.5 -96t-85.5 -64.5t-133.5 -23.5q-63 0 -108 16t-74.5 41.5t-46.5 58.5t-26 66.5t-11 65t-2 55.5v428h44zM331 780
l-134 140h51l120 -140h-37z" />
    <glyph glyph-name="Uacute" unicode="&#xda;" horiz-adv-x="672" 
d="M107 714v-428q0 -21 2.5 -49t10 -57.5t22 -58t39.5 -51t61.5 -36t88.5 -13.5q66 0 110.5 18.5t72 53t39.5 83.5t12 110v428h44v-428q0 -64 -13.5 -119t-45.5 -96t-85.5 -64.5t-133.5 -23.5q-63 0 -108 16t-74.5 41.5t-46.5 58.5t-26 66.5t-11 65t-2 55.5v428h44zM412 920
h51l-134 -140h-37z" />
    <glyph glyph-name="Ucircumflex" unicode="&#xdb;" horiz-adv-x="672" 
d="M107 714v-428q0 -21 2.5 -49t10 -57.5t22 -58t39.5 -51t61.5 -36t88.5 -13.5q66 0 110.5 18.5t72 53t39.5 83.5t12 110v428h44v-428q0 -64 -13.5 -119t-45.5 -96t-85.5 -64.5t-133.5 -23.5q-63 0 -108 16t-74.5 41.5t-46.5 58.5t-26 66.5t-11 65t-2 55.5v428h44zM354 920
l116 -140h-38l-98 115l-97 -115h-38l115 140h40z" />
    <glyph glyph-name="Udieresis" unicode="&#xdc;" horiz-adv-x="672" 
d="M107 714v-428q0 -21 2.5 -49t10 -57.5t22 -58t39.5 -51t61.5 -36t88.5 -13.5q66 0 110.5 18.5t72 53t39.5 83.5t12 110v428h44v-428q0 -64 -13.5 -119t-45.5 -96t-85.5 -64.5t-133.5 -23.5q-63 0 -108 16t-74.5 41.5t-46.5 58.5t-26 66.5t-11 65t-2 55.5v428h44zM396 793
v103h44v-103h-44zM238 793v103h44v-103h-44z" />
    <glyph glyph-name="Yacute" unicode="&#xdd;" horiz-adv-x="574" 
d="M546 714h49l-287 -415v-299h-44v299l-285 415h50l258 -378zM384 920h51l-134 -140h-37z" />
    <glyph glyph-name="Thorn" unicode="&#xde;" horiz-adv-x="593" 
d="M107 236h251q48 0 81.5 14.5t53.5 37.5t29 51.5t9 56.5q0 20 -6 47.5t-24 52.5t-50.5 42.5t-86.5 17.5h-257v-320zM63 714h44v-120h260q30 0 66.5 -7t68 -28.5t52.5 -60.5t21 -103q0 -95 -58.5 -146t-165.5 -51h-244v-198h-44v714z" />
    <glyph glyph-name="germandbls" unicode="&#xdf;" horiz-adv-x="500" 
d="M207 412q36 0 69 8t58.5 26t40.5 46t15 68q0 33 -12 58t-32.5 41.5t-47.5 25t-58 8.5q-76 0 -110 -42t-34 -114v-537h-38v537q0 91 44.5 140t137.5 49q39 0 73.5 -10t60 -31t40 -52t14.5 -73q0 -62 -28.5 -102.5t-90.5 -54.5v-2q78 -9 116 -59t38 -128q0 -73 -23 -115.5
t-55 -64.5t-66 -28t-57 -6h-55v33h38q22 0 52.5 5t59 23.5t48.5 54.5t20 98q0 49 -17 81t-46 51t-69 26t-86 7v33z" />
    <glyph glyph-name="agrave" unicode="&#xe0;" horiz-adv-x="500" 
d="M435 95q0 -11 0.5 -22t3.5 -20t10 -14.5t20 -5.5q10 0 28 3v-32q-8 -2 -15.5 -3t-15.5 -1q-23 0 -36.5 6t-20.5 16t-9.5 23.5t-2.5 29.5v27h-2q-9 -23 -26 -43.5t-41.5 -36.5t-55.5 -25t-68 -9q-36 0 -67.5 7.5t-55 24.5t-36.5 44.5t-13 68.5q0 45 17.5 73.5t45 45
t61 23.5t65.5 10q64 4 99.5 9.5t52.5 17t21 30t4 50.5q0 9 -6 25.5t-21.5 33.5t-43.5 29.5t-72 12.5q-69 0 -111.5 -35t-46.5 -102h-38q4 85 54.5 127.5t141.5 42.5q34 0 66 -6t57.5 -21t41 -41t15.5 -66v-297zM397 292q-11 -13 -31 -19.5t-45.5 -9.5t-53.5 -5t-56 -6
q-68 -8 -104.5 -34.5t-36.5 -84.5q0 -47 33.5 -79.5t101.5 -32.5q65 0 103 23.5t58 54t25.5 59t5.5 38.5v96zM249 590l-134 140h51l120 -140h-37z" />
    <glyph glyph-name="aacute" unicode="&#xe1;" horiz-adv-x="500" 
d="M435 95q0 -11 0.5 -22t3.5 -20t10 -14.5t20 -5.5q10 0 28 3v-32q-8 -2 -15.5 -3t-15.5 -1q-23 0 -36.5 6t-20.5 16t-9.5 23.5t-2.5 29.5v27h-2q-9 -23 -26 -43.5t-41.5 -36.5t-55.5 -25t-68 -9q-36 0 -67.5 7.5t-55 24.5t-36.5 44.5t-13 68.5q0 45 17.5 73.5t45 45
t61 23.5t65.5 10q64 4 99.5 9.5t52.5 17t21 30t4 50.5q0 9 -6 25.5t-21.5 33.5t-43.5 29.5t-72 12.5q-69 0 -111.5 -35t-46.5 -102h-38q4 85 54.5 127.5t141.5 42.5q34 0 66 -6t57.5 -21t41 -41t15.5 -66v-297zM397 292q-11 -13 -31 -19.5t-45.5 -9.5t-53.5 -5t-56 -6
q-68 -8 -104.5 -34.5t-36.5 -84.5q0 -47 33.5 -79.5t101.5 -32.5q65 0 103 23.5t58 54t25.5 59t5.5 38.5v96zM339 730h51l-134 -140h-37z" />
    <glyph glyph-name="acircumflex" unicode="&#xe2;" horiz-adv-x="500" 
d="M435 95q0 -11 0.5 -22t3.5 -20t10 -14.5t20 -5.5q10 0 28 3v-32q-8 -2 -15.5 -3t-15.5 -1q-23 0 -36.5 6t-20.5 16t-9.5 23.5t-2.5 29.5v27h-2q-9 -23 -26 -43.5t-41.5 -36.5t-55.5 -25t-68 -9q-36 0 -67.5 7.5t-55 24.5t-36.5 44.5t-13 68.5q0 45 17.5 73.5t45 45
t61 23.5t65.5 10q64 4 99.5 9.5t52.5 17t21 30t4 50.5q0 9 -6 25.5t-21.5 33.5t-43.5 29.5t-72 12.5q-69 0 -111.5 -35t-46.5 -102h-38q4 85 54.5 127.5t141.5 42.5q34 0 66 -6t57.5 -21t41 -41t15.5 -66v-297zM397 292q-11 -13 -31 -19.5t-45.5 -9.5t-53.5 -5t-56 -6
q-68 -8 -104.5 -34.5t-36.5 -84.5q0 -47 33.5 -79.5t101.5 -32.5q65 0 103 23.5t58 54t25.5 59t5.5 38.5v96zM276 730l116 -140h-38l-98 115l-97 -115h-38l115 140h40z" />
    <glyph glyph-name="atilde" unicode="&#xe3;" horiz-adv-x="500" 
d="M435 95q0 -11 0.5 -22t3.5 -20t10 -14.5t20 -5.5q10 0 28 3v-32q-8 -2 -15.5 -3t-15.5 -1q-23 0 -36.5 6t-20.5 16t-9.5 23.5t-2.5 29.5v27h-2q-9 -23 -26 -43.5t-41.5 -36.5t-55.5 -25t-68 -9q-36 0 -67.5 7.5t-55 24.5t-36.5 44.5t-13 68.5q0 45 17.5 73.5t45 45
t61 23.5t65.5 10q64 4 99.5 9.5t52.5 17t21 30t4 50.5q0 9 -6 25.5t-21.5 33.5t-43.5 29.5t-72 12.5q-69 0 -111.5 -35t-46.5 -102h-38q4 85 54.5 127.5t141.5 42.5q34 0 66 -6t57.5 -21t41 -41t15.5 -66v-297zM397 292q-11 -13 -31 -19.5t-45.5 -9.5t-53.5 -5t-56 -6
q-68 -8 -104.5 -34.5t-36.5 -84.5q0 -47 33.5 -79.5t101.5 -32.5q65 0 103 23.5t58 54t25.5 59t5.5 38.5v96zM112 609q1 16 7 32.5t15.5 29t23 20.5t31.5 8t35 -7.5t35 -18.5t35.5 -21t32.5 -10q21 0 32 18.5t13 38.5h29q-2 -17 -7 -33t-14 -28t-22 -20.5t-33 -8.5
q-17 0 -35 9.5t-34 19.5q-31 19 -42.5 23.5t-25.5 4.5q-20 0 -31.5 -17t-15.5 -40h-29z" />
    <glyph glyph-name="adieresis" unicode="&#xe4;" horiz-adv-x="500" 
d="M435 95q0 -11 0.5 -22t3.5 -20t10 -14.5t20 -5.5q10 0 28 3v-32q-8 -2 -15.5 -3t-15.5 -1q-23 0 -36.5 6t-20.5 16t-9.5 23.5t-2.5 29.5v27h-2q-9 -23 -26 -43.5t-41.5 -36.5t-55.5 -25t-68 -9q-36 0 -67.5 7.5t-55 24.5t-36.5 44.5t-13 68.5q0 45 17.5 73.5t45 45
t61 23.5t65.5 10q64 4 99.5 9.5t52.5 17t21 30t4 50.5q0 9 -6 25.5t-21.5 33.5t-43.5 29.5t-72 12.5q-69 0 -111.5 -35t-46.5 -102h-38q4 85 54.5 127.5t141.5 42.5q34 0 66 -6t57.5 -21t41 -41t15.5 -66v-297zM397 292q-11 -13 -31 -19.5t-45.5 -9.5t-53.5 -5t-56 -6
q-68 -8 -104.5 -34.5t-36.5 -84.5q0 -47 33.5 -79.5t101.5 -32.5q65 0 103 23.5t58 54t25.5 59t5.5 38.5v96zM313 603v103h44v-103h-44zM155 603v103h44v-103h-44z" />
    <glyph glyph-name="aring" unicode="&#xe5;" horiz-adv-x="500" 
d="M435 95q0 -11 0.5 -22t3.5 -20t10 -14.5t20 -5.5q10 0 28 3v-32q-8 -2 -15.5 -3t-15.5 -1q-23 0 -36.5 6t-20.5 16t-9.5 23.5t-2.5 29.5v27h-2q-9 -23 -26 -43.5t-41.5 -36.5t-55.5 -25t-68 -9q-36 0 -67.5 7.5t-55 24.5t-36.5 44.5t-13 68.5q0 45 17.5 73.5t45 45
t61 23.5t65.5 10q64 4 99.5 9.5t52.5 17t21 30t4 50.5q0 9 -6 25.5t-21.5 33.5t-43.5 29.5t-72 12.5q-69 0 -111.5 -35t-46.5 -102h-38q4 85 54.5 127.5t141.5 42.5q34 0 66 -6t57.5 -21t41 -41t15.5 -66v-297zM397 292q-11 -13 -31 -19.5t-45.5 -9.5t-53.5 -5t-56 -6
q-68 -8 -104.5 -34.5t-36.5 -84.5q0 -47 33.5 -79.5t101.5 -32.5q65 0 103 23.5t58 54t25.5 59t5.5 38.5v96zM184 670q0 -30 21 -51t51 -21t51 21t21 51t-21 51t-51 21t-51 -21t-21 -51zM157 670q0 42 28.5 70.5t70.5 28.5t70.5 -28.5t28.5 -70.5t-28.5 -70.5t-70.5 -28.5
t-70.5 28.5t-28.5 70.5z" />
    <glyph glyph-name="ae" unicode="&#xe6;" horiz-adv-x="889" 
d="M445 252q-3 -47 7.5 -89t34 -73.5t60.5 -50t86 -18.5q73 0 120.5 38.5t58.5 111.5h38q-14 -86 -71.5 -134.5t-145.5 -48.5q-77 0 -132.5 37.5t-73.5 111.5h-2q-25 -69 -80 -109t-129 -40q-36 0 -69.5 8t-59 25.5t-40.5 44.5t-15 65q0 46 18 75.5t46 46t60.5 23t62.5 7.5
q33 4 67.5 4.5t62 7.5t44 24t13.5 54q0 62 -37 91t-113 29q-69 0 -114 -33t-50 -107h-38q6 89 61 131t141 42q35 0 66 -6t55.5 -21t40 -40t18.5 -64h2q24 67 74.5 99t120.5 32q59 0 103 -22.5t72.5 -60t40.5 -87t7 -104.5h-411zM406 289h-2q-6 -11 -24.5 -17t-44 -9.5
t-57 -5t-63.5 -4.5q-29 -2 -55.5 -9t-46.5 -21t-31.5 -36.5t-11.5 -55.5q0 -30 12.5 -50.5t33.5 -34t47 -19.5t53 -6q37 0 71 14t60.5 38t42 57t16.5 71v88zM818 285q1 42 -11.5 79.5t-36.5 66t-59 45.5t-78 17q-47 0 -81 -17t-57 -45.5t-35.5 -66t-15.5 -79.5h374z" />
    <glyph glyph-name="ccedilla" unicode="&#xe7;" 
d="M443 355q-3 34 -17.5 60t-37.5 43t-53.5 26t-65.5 9q-48 0 -85 -19.5t-62 -52t-38 -74t-13 -85.5q0 -52 12 -96t37 -76.5t62 -50.5t87 -18q36 0 66.5 12t54 33t38.5 50.5t20 64.5h38q-6 -46 -25.5 -82t-48 -60.5t-65.5 -37.5q-30 -10 -63 -12l-38 -45l2 -2q7 3 16 5.5
t21 2.5q29 1 51.5 -16.5t22.5 -52.5t-24 -56t-74 -21q-32 0 -55.5 8.5t-36.5 16.5l11 24q17 -8 35.5 -15t44.5 -7q24 0 42.5 11.5t18.5 38.5q0 12 -4.5 19t-12 13t-16 8.5t-15.5 2.5q-16 0 -29 -3.5t-24 -8.5l-16 13l47 64q-52 2 -90 21q-44 23 -72.5 61t-42 87.5
t-13.5 103.5t15.5 102t45.5 84t74 57t101 21q42 0 78.5 -10.5t65 -31.5t46.5 -53t22 -76h-38z" />
    <glyph glyph-name="egrave" unicode="&#xe8;" 
d="M448 285q-1 40 -14 78t-37 66.5t-58.5 46t-78.5 17.5q-43 0 -76.5 -18t-57.5 -47.5t-38 -67t-17 -75.5h377zM71 252q-1 -45 10.5 -87t35.5 -74t59.5 -51t83.5 -19q73 0 121.5 40.5t62.5 112.5h38q-15 -91 -72.5 -138.5t-149.5 -47.5q-56 0 -99 20.5t-71.5 56t-43 83
t-13.5 100.5q-1 53 12.5 103t42 89t71.5 62.5t101 23.5q60 0 104 -22t72 -59.5t40.5 -87.5t9.5 -105h-415zM254 590l-134 140h51l120 -140h-37z" />
    <glyph glyph-name="eacute" unicode="&#xe9;" 
d="M448 285q-1 40 -14 78t-37 66.5t-58.5 46t-78.5 17.5q-43 0 -76.5 -18t-57.5 -47.5t-38 -67t-17 -75.5h377zM71 252q-1 -45 10.5 -87t35.5 -74t59.5 -51t83.5 -19q73 0 121.5 40.5t62.5 112.5h38q-15 -91 -72.5 -138.5t-149.5 -47.5q-56 0 -99 20.5t-71.5 56t-43 83
t-13.5 100.5q-1 53 12.5 103t42 89t71.5 62.5t101 23.5q60 0 104 -22t72 -59.5t40.5 -87.5t9.5 -105h-415zM358 730h51l-134 -140h-37z" />
    <glyph glyph-name="ecircumflex" unicode="&#xea;" 
d="M448 285q-1 40 -14 78t-37 66.5t-58.5 46t-78.5 17.5q-43 0 -76.5 -18t-57.5 -47.5t-38 -67t-17 -75.5h377zM71 252q-1 -45 10.5 -87t35.5 -74t59.5 -51t83.5 -19q73 0 121.5 40.5t62.5 112.5h38q-15 -91 -72.5 -138.5t-149.5 -47.5q-56 0 -99 20.5t-71.5 56t-43 83
t-13.5 100.5q-1 53 12.5 103t42 89t71.5 62.5t101 23.5q60 0 104 -22t72 -59.5t40.5 -87.5t9.5 -105h-415zM279 730l116 -140h-38l-98 115l-97 -115h-38l115 140h40z" />
    <glyph glyph-name="edieresis" unicode="&#xeb;" 
d="M448 285q-1 40 -14 78t-37 66.5t-58.5 46t-78.5 17.5q-43 0 -76.5 -18t-57.5 -47.5t-38 -67t-17 -75.5h377zM71 252q-1 -45 10.5 -87t35.5 -74t59.5 -51t83.5 -19q73 0 121.5 40.5t62.5 112.5h38q-15 -91 -72.5 -138.5t-149.5 -47.5q-56 0 -99 20.5t-71.5 56t-43 83
t-13.5 100.5q-1 53 12.5 103t42 89t71.5 62.5t101 23.5q60 0 104 -22t72 -59.5t40.5 -87.5t9.5 -105h-415zM316 603v103h44v-103h-44zM158 603v103h44v-103h-44z" />
    <glyph glyph-name="igrave" unicode="&#xec;" horiz-adv-x="168" 
d="M65 0v514h38v-514h-38zM68 590l-134 140h51l120 -140h-37z" />
    <glyph glyph-name="iacute" unicode="&#xed;" horiz-adv-x="168" 
d="M65 0v514h38v-514h-38zM184 730h51l-134 -140h-37z" />
    <glyph glyph-name="icircumflex" unicode="&#xee;" horiz-adv-x="168" 
d="M65 0v514h38v-514h-38zM104 730l116 -140h-38l-98 115l-97 -115h-38l115 140h40z" />
    <glyph glyph-name="idieresis" unicode="&#xef;" horiz-adv-x="168" 
d="M65 0v514h38v-514h-38zM141 603v103h44v-103h-44zM-17 603v103h44v-103h-44z" />
    <glyph glyph-name="eth" unicode="&#xf0;" horiz-adv-x="537" 
d="M254 642q-25 19 -51.5 36t-51.5 29l28 24q60 -32 108 -71l115 64l20 -22l-109 -61q95 -76 143 -171.5t48 -220.5q0 -54 -14.5 -101.5t-44 -83t-73.5 -56t-103 -20.5q-60 0 -105 20t-74 55.5t-43.5 83t-14.5 102.5q0 52 15.5 98.5t46 82t74.5 56t101 20.5q45 0 86 -15
t77 -59l2 2q-22 51 -63 99.5t-92 88.5l-112 -62l-21 22zM269 473q-49 0 -86 -18.5t-62 -50t-38 -72t-13 -83.5q0 -44 12 -85.5t37 -73t62 -50.5t88 -19t88.5 18.5t61.5 50t35.5 73t11.5 86.5q0 43 -12.5 83.5t-37 72t-61.5 50t-86 18.5z" />
    <glyph glyph-name="ntilde" unicode="&#xf1;" 
d="M56 514h38v-110h2q10 29 28.5 51.5t43 38.5t53.5 24t59 8q45 0 76.5 -11t51.5 -29t31.5 -40.5t16.5 -45.5t6 -44.5t1 -37.5v-318h-38v325q0 20 -3 48.5t-17.5 55t-44 45.5t-81.5 19q-43 0 -77.5 -16t-58.5 -44.5t-36.5 -68t-12.5 -86.5v-278h-38v514zM118 609
q1 16 7 32.5t15.5 29t23 20.5t31.5 8t35 -7.5t35 -18.5t35.5 -21t32.5 -10q21 0 32 18.5t13 38.5h29q-2 -17 -7 -33t-14 -28t-22 -20.5t-33 -8.5q-17 0 -35 9.5t-34 19.5q-31 19 -42.5 23.5t-25.5 4.5q-20 0 -31.5 -17t-15.5 -40h-29z" />
    <glyph glyph-name="ograve" unicode="&#xf2;" horiz-adv-x="537" 
d="M70 257q0 -46 13 -88.5t38 -75.5t62 -52.5t85 -19.5t85 19.5t62 52.5t38 75.5t13 88.5t-13 88.5t-38 75.5t-62 52.5t-85 19.5t-85 -19.5t-62 -52.5t-38 -75.5t-13 -88.5zM32 257q0 55 15.5 103.5t45.5 85.5t74 58.5t101 21.5t101 -21.5t74 -58.5t45.5 -85.5t15.5 -103.5
t-15.5 -104t-45.5 -85.5t-74 -58t-101 -21.5t-101 21.5t-74 58t-45.5 85.5t-15.5 104zM266 590l-134 140h51l120 -140h-37z" />
    <glyph glyph-name="oacute" unicode="&#xf3;" horiz-adv-x="537" 
d="M70 257q0 -46 13 -88.5t38 -75.5t62 -52.5t85 -19.5t85 19.5t62 52.5t38 75.5t13 88.5t-13 88.5t-38 75.5t-62 52.5t-85 19.5t-85 -19.5t-62 -52.5t-38 -75.5t-13 -88.5zM32 257q0 55 15.5 103.5t45.5 85.5t74 58.5t101 21.5t101 -21.5t74 -58.5t45.5 -85.5t15.5 -103.5
t-15.5 -104t-45.5 -85.5t-74 -58t-101 -21.5t-101 21.5t-74 58t-45.5 85.5t-15.5 104zM365 730h51l-134 -140h-37z" />
    <glyph glyph-name="ocircumflex" unicode="&#xf4;" horiz-adv-x="537" 
d="M70 257q0 -46 13 -88.5t38 -75.5t62 -52.5t85 -19.5t85 19.5t62 52.5t38 75.5t13 88.5t-13 88.5t-38 75.5t-62 52.5t-85 19.5t-85 -19.5t-62 -52.5t-38 -75.5t-13 -88.5zM32 257q0 55 15.5 103.5t45.5 85.5t74 58.5t101 21.5t101 -21.5t74 -58.5t45.5 -85.5t15.5 -103.5
t-15.5 -104t-45.5 -85.5t-74 -58t-101 -21.5t-101 21.5t-74 58t-45.5 85.5t-15.5 104zM288 730l116 -140h-38l-98 115l-97 -115h-38l115 140h40z" />
    <glyph glyph-name="otilde" unicode="&#xf5;" horiz-adv-x="537" 
d="M70 257q0 -46 13 -88.5t38 -75.5t62 -52.5t85 -19.5t85 19.5t62 52.5t38 75.5t13 88.5t-13 88.5t-38 75.5t-62 52.5t-85 19.5t-85 -19.5t-62 -52.5t-38 -75.5t-13 -88.5zM32 257q0 55 15.5 103.5t45.5 85.5t74 58.5t101 21.5t101 -21.5t74 -58.5t45.5 -85.5t15.5 -103.5
t-15.5 -104t-45.5 -85.5t-74 -58t-101 -21.5t-101 21.5t-74 58t-45.5 85.5t-15.5 104zM124 609q1 16 7 32.5t15.5 29t23 20.5t31.5 8t35 -7.5t35 -18.5t35.5 -21t32.5 -10q21 0 32 18.5t13 38.5h29q-2 -17 -7 -33t-14 -28t-22 -20.5t-33 -8.5q-17 0 -35 9.5t-34 19.5
q-31 19 -42.5 23.5t-25.5 4.5q-20 0 -31.5 -17t-15.5 -40h-29z" />
    <glyph glyph-name="odieresis" unicode="&#xf6;" horiz-adv-x="537" 
d="M70 257q0 -46 13 -88.5t38 -75.5t62 -52.5t85 -19.5t85 19.5t62 52.5t38 75.5t13 88.5t-13 88.5t-38 75.5t-62 52.5t-85 19.5t-85 -19.5t-62 -52.5t-38 -75.5t-13 -88.5zM32 257q0 55 15.5 103.5t45.5 85.5t74 58.5t101 21.5t101 -21.5t74 -58.5t45.5 -85.5t15.5 -103.5
t-15.5 -104t-45.5 -85.5t-74 -58t-101 -21.5t-101 21.5t-74 58t-45.5 85.5t-15.5 104zM325 603v103h44v-103h-44zM167 603v103h44v-103h-44z" />
    <glyph glyph-name="divide" unicode="&#xf7;" horiz-adv-x="600" 
d="M250 51q0 22 15 37t36 15t36.5 -15t15.5 -37q0 -21 -15.5 -36t-36.5 -15t-36 15t-15 36zM250 452q0 22 15 37t36 15t36.5 -15t15.5 -37q0 -21 -15.5 -36t-36.5 -15t-36 15t-15 36zM48 233v38h504v-38h-504z" />
    <glyph glyph-name="oslash" unicode="&#xf8;" horiz-adv-x="537" 
d="M455 428q24 -35 36.5 -78.5t12.5 -92.5q0 -55 -15.5 -104t-45.5 -85.5t-74 -58t-101 -21.5q-53 0 -94.5 18.5t-70.5 50.5l-54 -57l-24 23l57 61q-25 35 -37.5 79t-12.5 94q0 55 15.5 103.5t45.5 85.5t74 58.5t101 21.5q54 0 95.5 -19t70.5 -52l55 58l24 -23zM129 84
q25 -29 59.5 -46t79.5 -17q48 0 85 19.5t62 52.5t38 75.5t13 88.5q0 39 -9 75.5t-29 67.5zM408 428q-23 29 -58.5 47t-81.5 18q-48 0 -85 -19.5t-62 -52.5t-38 -75.5t-13 -88.5q0 -40 9.5 -77.5t29.5 -67.5z" />
    <glyph glyph-name="ugrave" unicode="&#xf9;" 
d="M463 0h-38v110h-2q-10 -29 -28.5 -51.5t-43 -38.5t-53.5 -24t-59 -8q-45 0 -76.5 11t-51.5 29t-31.5 40.5t-16.5 45.5t-6 44.5t-1 37.5v318h38v-325q0 -20 3 -48.5t17.5 -55t43.5 -45.5t82 -19q43 0 77.5 16t58.5 44.5t36.5 68t12.5 86.5v278h38v-514zM260 590l-134 140
h51l120 -140h-37z" />
    <glyph glyph-name="uacute" unicode="&#xfa;" 
d="M463 0h-38v110h-2q-10 -29 -28.5 -51.5t-43 -38.5t-53.5 -24t-59 -8q-45 0 -76.5 11t-51.5 29t-31.5 40.5t-16.5 45.5t-6 44.5t-1 37.5v318h38v-325q0 -20 3 -48.5t17.5 -55t43.5 -45.5t82 -19q43 0 77.5 16t58.5 44.5t36.5 68t12.5 86.5v278h38v-514zM353 730h51
l-134 -140h-37z" />
    <glyph glyph-name="ucircumflex" unicode="&#xfb;" 
d="M463 0h-38v110h-2q-10 -29 -28.5 -51.5t-43 -38.5t-53.5 -24t-59 -8q-45 0 -76.5 11t-51.5 29t-31.5 40.5t-16.5 45.5t-6 44.5t-1 37.5v318h38v-325q0 -20 3 -48.5t17.5 -55t43.5 -45.5t82 -19q43 0 77.5 16t58.5 44.5t36.5 68t12.5 86.5v278h38v-514zM274 730l116 -140
h-38l-98 115l-97 -115h-38l115 140h40z" />
    <glyph glyph-name="udieresis" unicode="&#xfc;" 
d="M463 0h-38v110h-2q-10 -29 -28.5 -51.5t-43 -38.5t-53.5 -24t-59 -8q-45 0 -76.5 11t-51.5 29t-31.5 40.5t-16.5 45.5t-6 44.5t-1 37.5v318h38v-325q0 -20 3 -48.5t17.5 -55t43.5 -45.5t82 -19q43 0 77.5 16t58.5 44.5t36.5 68t12.5 86.5v278h38v-514zM312 603v103h44
v-103h-44zM154 603v103h44v-103h-44z" />
    <glyph glyph-name="yacute" unicode="&#xfd;" horiz-adv-x="444" 
d="M-6 514h45l191 -469l176 469h43l-220 -569q-16 -38 -29.5 -65.5t-30.5 -40.5q-20 -16 -48 -19.5t-72 -3.5v33q41 0 64 6.5t43 26.5q11 11 23 40.5t30 80.5zM327 730h51l-134 -140h-37z" />
    <glyph glyph-name="thorn" unicode="&#xfe;" horiz-adv-x="556" 
d="M65 714h38v-318h2q6 19 20 42t37 42.5t55.5 32.5t74.5 13q59 0 102.5 -22t72 -59t42.5 -86t14 -103q0 -59 -14 -108t-42.5 -84.5t-72 -55.5t-102.5 -20q-64 0 -114 28t-73 91h-2v-291h-38v898zM292 21q50 0 86.5 19t60 51t35 74.5t11.5 90.5q0 44 -11 86.5t-34 76
t-59.5 54t-88.5 20.5q-51 0 -87 -20t-58.5 -53t-32.5 -75.5t-10 -88.5t9 -88.5t30.5 -75t58 -52t90.5 -19.5z" />
    <glyph glyph-name="ydieresis" unicode="&#xff;" horiz-adv-x="444" 
d="M-6 514h45l191 -469l176 469h43l-220 -569q-16 -38 -29.5 -65.5t-30.5 -40.5q-20 -16 -48 -19.5t-72 -3.5v33q41 0 64 6.5t43 26.5q11 11 23 40.5t30 80.5zM286 603v103h44v-103h-44zM128 603v103h44v-103h-44z" />
    <glyph glyph-name="Amacron" unicode="&#x100;" horiz-adv-x="593" 
d="M454 267l-153 404h-2l-159 -404h314zM323 714l282 -714h-47l-90 229h-342l-91 -229h-47l287 714h48zM178 828v33h242v-33h-242z" />
    <glyph glyph-name="amacron" unicode="&#x101;" horiz-adv-x="500" 
d="M435 95q0 -11 0.5 -22t3.5 -20t10 -14.5t20 -5.5q10 0 28 3v-32q-8 -2 -15.5 -3t-15.5 -1q-23 0 -36.5 6t-20.5 16t-9.5 23.5t-2.5 29.5v27h-2q-9 -23 -26 -43.5t-41.5 -36.5t-55.5 -25t-68 -9q-36 0 -67.5 7.5t-55 24.5t-36.5 44.5t-13 68.5q0 45 17.5 73.5t45 45
t61 23.5t65.5 10q64 4 99.5 9.5t52.5 17t21 30t4 50.5q0 9 -6 25.5t-21.5 33.5t-43.5 29.5t-72 12.5q-69 0 -111.5 -35t-46.5 -102h-38q4 85 54.5 127.5t141.5 42.5q34 0 66 -6t57.5 -21t41 -41t15.5 -66v-297zM397 292q-11 -13 -31 -19.5t-45.5 -9.5t-53.5 -5t-56 -6
q-68 -8 -104.5 -34.5t-36.5 -84.5q0 -47 33.5 -79.5t101.5 -32.5q65 0 103 23.5t58 54t25.5 59t5.5 38.5v96zM139 638v33h242v-33h-242z" />
    <glyph glyph-name="Abreve" unicode="&#x102;" horiz-adv-x="593" 
d="M454 267l-153 404h-2l-159 -404h314zM323 714l282 -714h-47l-90 229h-342l-91 -229h-47l287 714h48zM435 910q-3 -24 -14.5 -46t-29 -38.5t-40 -26t-47.5 -9.5q-57 0 -95 31.5t-45 88.5h33q6 -25 18 -42.5t26.5 -28t30.5 -13.5t31 -3q39 0 65.5 24t33.5 63h33z" />
    <glyph glyph-name="abreve" unicode="&#x103;" horiz-adv-x="500" 
d="M435 95q0 -11 0.5 -22t3.5 -20t10 -14.5t20 -5.5q10 0 28 3v-32q-8 -2 -15.5 -3t-15.5 -1q-23 0 -36.5 6t-20.5 16t-9.5 23.5t-2.5 29.5v27h-2q-9 -23 -26 -43.5t-41.5 -36.5t-55.5 -25t-68 -9q-36 0 -67.5 7.5t-55 24.5t-36.5 44.5t-13 68.5q0 45 17.5 73.5t45 45
t61 23.5t65.5 10q64 4 99.5 9.5t52.5 17t21 30t4 50.5q0 9 -6 25.5t-21.5 33.5t-43.5 29.5t-72 12.5q-69 0 -111.5 -35t-46.5 -102h-38q4 85 54.5 127.5t141.5 42.5q34 0 66 -6t57.5 -21t41 -41t15.5 -66v-297zM397 292q-11 -13 -31 -19.5t-45.5 -9.5t-53.5 -5t-56 -6
q-68 -8 -104.5 -34.5t-36.5 -84.5q0 -47 33.5 -79.5t101.5 -32.5q65 0 103 23.5t58 54t25.5 59t5.5 38.5v96zM385 720q-3 -24 -14.5 -46t-29 -38.5t-40 -26t-47.5 -9.5q-57 0 -95 31.5t-45 88.5h33q6 -25 18 -42.5t26.5 -28t30.5 -13.5t31 -3q39 0 65.5 24t33.5 63h33z" />
    <glyph glyph-name="Aogonek" unicode="&#x104;" horiz-adv-x="593" 
d="M582 0q-25 -22 -40.5 -39.5t-24.5 -31.5t-13 -25.5t-4 -24.5q0 -20 13 -31t29 -11q20 0 32.5 7.5t26.5 27.5l23 -8q-12 -28 -33 -44t-53 -16q-11 0 -23 1.5t-26 8.5t-23.5 21.5t-9.5 36.5q0 12 3.5 24.5t15 29.5t32 35t51.5 39l-90 229h-342l-91 -229h-47l287 714h48
l282 -714h-23zM454 267l-153 404h-2l-159 -404h314z" />
    <glyph glyph-name="aogonek" unicode="&#x105;" horiz-adv-x="500" 
d="M435 95q0 -11 0.5 -22t3.5 -20t10 -14.5t20 -5.5q10 0 28 3v-32q-8 -2 -15.5 -3t-15.5 -1h-10q-25 -22 -40.5 -39.5t-24.5 -31.5t-13 -25.5t-4 -24.5q0 -20 13 -31t29 -11q20 0 32.5 7.5t26.5 27.5l23 -8q-12 -28 -33 -44t-53 -16q-11 0 -23 1.5t-26 8.5t-23.5 21.5
t-9.5 36.5q0 12 3.5 24.5t15 29.5t31.5 35q20 17 56 42q-4 1 -7 3q-13 6 -20 16t-9.5 23.5t-2.5 29.5v27h-2q-9 -23 -26 -43.5t-41.5 -36.5t-55.5 -25t-68 -9q-36 0 -67.5 7.5t-55 24.5t-36.5 44.5t-13 68.5q0 45 17.5 73.5t45 45t61 23.5t65.5 10q64 4 99.5 9.5t52.5 17
t21 30t4 50.5q0 9 -6 25.5t-21.5 33.5t-43.5 29.5t-72 12.5q-69 0 -111.5 -35t-46.5 -102h-38q4 85 54.5 127.5t141.5 42.5q34 0 66 -6t57.5 -21t41 -41t15.5 -66v-297zM397 292q-11 -13 -31 -19.5t-45.5 -9.5t-53.5 -5t-56 -6q-68 -8 -104.5 -34.5t-36.5 -84.5
q0 -47 33.5 -79.5t101.5 -32.5q65 0 103 23.5t58 54t25.5 59t5.5 38.5v96z" />
    <glyph glyph-name="Cacute" unicode="&#x106;" horiz-adv-x="704" 
d="M619 501q-7 45 -29 80.5t-55 60.5t-73.5 38t-85.5 13q-70 0 -125 -27t-93 -72.5t-58 -106.5t-20 -130t20 -130t58 -106.5t93 -72.5t125 -27q52 0 97.5 21.5t79.5 57t54.5 82t23.5 96.5h44q-6 -64 -31.5 -118t-65 -93.5t-91.5 -61.5t-111 -22q-80 0 -143.5 29t-107 79.5
t-66.5 119t-23 146.5t23 146.5t66.5 119t107 79.5t143.5 29q63 0 109 -16.5t77.5 -41t51.5 -53.5t30.5 -54.5t14.5 -44t4 -20.5h-44zM472 920h51l-134 -140h-37z" />
    <glyph glyph-name="cacute" unicode="&#x107;" 
d="M443 355q-3 34 -17.5 60t-37.5 43t-53.5 26t-65.5 9q-48 0 -85 -19.5t-62 -52t-38 -74t-13 -85.5q0 -52 12 -96t37 -76.5t62 -50.5t87 -18q36 0 66.5 12t54 33t38.5 50.5t20 64.5h38q-6 -46 -25.5 -82t-48 -60.5t-65 -37.5t-78.5 -13q-63 0 -107.5 22.5t-73 60.5
t-42 87.5t-13.5 103.5t15.5 102t45.5 84t74 57t101 21q42 0 78.5 -10.5t65 -31.5t46.5 -53t22 -76h-38zM365 730h51l-134 -140h-37z" />
    <glyph glyph-name="Ccircumflex" unicode="&#x108;" horiz-adv-x="704" 
d="M619 501q-7 45 -29 80.5t-55 60.5t-73.5 38t-85.5 13q-70 0 -125 -27t-93 -72.5t-58 -106.5t-20 -130t20 -130t58 -106.5t93 -72.5t125 -27q52 0 97.5 21.5t79.5 57t54.5 82t23.5 96.5h44q-6 -64 -31.5 -118t-65 -93.5t-91.5 -61.5t-111 -22q-80 0 -143.5 29t-107 79.5
t-66.5 119t-23 146.5t23 146.5t66.5 119t107 79.5t143.5 29q63 0 109 -16.5t77.5 -41t51.5 -53.5t30.5 -54.5t14.5 -44t4 -20.5h-44zM390 920l116 -140h-38l-98 115l-97 -115h-38l115 140h40z" />
    <glyph glyph-name="ccircumflex" unicode="&#x109;" 
d="M443 355q-3 34 -17.5 60t-37.5 43t-53.5 26t-65.5 9q-48 0 -85 -19.5t-62 -52t-38 -74t-13 -85.5q0 -52 12 -96t37 -76.5t62 -50.5t87 -18q36 0 66.5 12t54 33t38.5 50.5t20 64.5h38q-6 -46 -25.5 -82t-48 -60.5t-65 -37.5t-78.5 -13q-63 0 -107.5 22.5t-73 60.5
t-42 87.5t-13.5 103.5t15.5 102t45.5 84t74 57t101 21q42 0 78.5 -10.5t65 -31.5t46.5 -53t22 -76h-38zM290 730l116 -140h-38l-98 115l-97 -115h-38l115 140h40z" />
    <glyph glyph-name="Cdotaccent" unicode="&#x10a;" horiz-adv-x="704" 
d="M619 501q-7 45 -29 80.5t-55 60.5t-73.5 38t-85.5 13q-70 0 -125 -27t-93 -72.5t-58 -106.5t-20 -130t20 -130t58 -106.5t93 -72.5t125 -27q52 0 97.5 21.5t79.5 57t54.5 82t23.5 96.5h44q-6 -64 -31.5 -118t-65 -93.5t-91.5 -61.5t-111 -22q-80 0 -143.5 29t-107 79.5
t-66.5 119t-23 146.5t23 146.5t66.5 119t107 79.5t143.5 29q63 0 109 -16.5t77.5 -41t51.5 -53.5t30.5 -54.5t14.5 -44t4 -20.5h-44zM352 793v103h44v-103h-44z" />
    <glyph glyph-name="cdotaccent" unicode="&#x10b;" 
d="M443 355q-3 34 -17.5 60t-37.5 43t-53.5 26t-65.5 9q-48 0 -85 -19.5t-62 -52t-38 -74t-13 -85.5q0 -52 12 -96t37 -76.5t62 -50.5t87 -18q36 0 66.5 12t54 33t38.5 50.5t20 64.5h38q-6 -46 -25.5 -82t-48 -60.5t-65 -37.5t-78.5 -13q-63 0 -107.5 22.5t-73 60.5
t-42 87.5t-13.5 103.5t15.5 102t45.5 84t74 57t101 21q42 0 78.5 -10.5t65 -31.5t46.5 -53t22 -76h-38zM246 603v103h44v-103h-44z" />
    <glyph glyph-name="Ccaron" unicode="&#x10c;" horiz-adv-x="704" 
d="M619 501q-7 45 -29 80.5t-55 60.5t-73.5 38t-85.5 13q-70 0 -125 -27t-93 -72.5t-58 -106.5t-20 -130t20 -130t58 -106.5t93 -72.5t125 -27q52 0 97.5 21.5t79.5 57t54.5 82t23.5 96.5h44q-6 -64 -31.5 -118t-65 -93.5t-91.5 -61.5t-111 -22q-80 0 -143.5 29t-107 79.5
t-66.5 119t-23 146.5t23 146.5t66.5 119t107 79.5t143.5 29q63 0 109 -16.5t77.5 -41t51.5 -53.5t30.5 -54.5t14.5 -44t4 -20.5h-44zM350 780l-115 140h38l97 -115l98 115h38l-116 -140h-40z" />
    <glyph glyph-name="ccaron" unicode="&#x10d;" 
d="M443 355q-3 34 -17.5 60t-37.5 43t-53.5 26t-65.5 9q-48 0 -85 -19.5t-62 -52t-38 -74t-13 -85.5q0 -52 12 -96t37 -76.5t62 -50.5t87 -18q36 0 66.5 12t54 33t38.5 50.5t20 64.5h38q-6 -46 -25.5 -82t-48 -60.5t-65 -37.5t-78.5 -13q-63 0 -107.5 22.5t-73 60.5
t-42 87.5t-13.5 103.5t15.5 102t45.5 84t74 57t101 21q42 0 78.5 -10.5t65 -31.5t46.5 -53t22 -76h-38zM244 590l-115 140h38l97 -115l98 115h38l-116 -140h-40z" />
    <glyph glyph-name="Dcaron" unicode="&#x10e;" horiz-adv-x="667" 
d="M63 714h234q96 0 159.5 -30t101.5 -80t53.5 -114t15.5 -132q0 -76 -19.5 -141.5t-60.5 -113.5t-103.5 -75.5t-148.5 -27.5h-232v714zM107 38h192q50 0 100.5 15.5t91.5 52t66.5 98t25.5 154.5q0 73 -14.5 125t-38 87.5t-54 56t-63 31.5t-65 14.5t-58.5 3.5h-183v-638z
M270 780l-115 140h38l97 -115l98 115h38l-116 -140h-40z" />
    <glyph glyph-name="dcaron" unicode="&#x10f;" horiz-adv-x="615" 
d="M453 110h-2q-32 -61 -80 -91.5t-117 -30.5q-58 0 -100 22t-69 59t-40 85.5t-13 101.5q0 57 14 106.5t42.5 85.5t71.5 57t101 21q31 0 61 -8.5t55.5 -24.5t44.5 -40t29 -54h2v315h38v-714h-38v110zM262 21q49 0 84.5 20t59 53t35 75.5t11.5 86.5q0 45 -11.5 87.5t-34.5 76
t-59.5 53.5t-85.5 20q-51 0 -87 -19.5t-59.5 -52.5t-34 -76t-10.5 -89q0 -45 11.5 -87.5t35 -75.5t59.5 -52.5t86 -19.5zM610 714h51l-87 -140h-29z" />
    <glyph glyph-name="Dcroat" unicode="&#x110;" horiz-adv-x="667" 
d="M371 396v-33h-264v-325h192q50 0 100.5 15.5t91.5 52t66.5 98t25.5 154.5q0 73 -14.5 125t-38 87.5t-54 56t-63 31.5t-65 14.5t-58.5 3.5h-183v-280h264zM63 714h234q96 0 159.5 -30t101.5 -80t53.5 -114t15.5 -132q0 -76 -19.5 -141.5t-60.5 -113.5t-103.5 -75.5
t-148.5 -27.5h-232v363h-68v33h68v318z" />
    <glyph glyph-name="dcroat" unicode="&#x111;" horiz-adv-x="566" 
d="M453 110h-2q-32 -61 -80 -91.5t-117 -30.5q-58 0 -100 22t-69 59t-40 85.5t-13 101.5q0 57 14 106.5t42.5 85.5t71.5 57t101 21q31 0 61 -8.5t55.5 -24.5t44.5 -40t29 -54h2v204h-149v33h149v78h38v-78h75v-33h-75v-603h-38v110zM262 21q49 0 84.5 20t59 53t35 75.5
t11.5 86.5q0 45 -11.5 87.5t-34.5 76t-59.5 53.5t-85.5 20q-51 0 -87 -19.5t-59.5 -52.5t-34 -76t-10.5 -89q0 -45 11.5 -87.5t35 -75.5t59.5 -52.5t86 -19.5z" />
    <glyph glyph-name="Emacron" unicode="&#x112;" horiz-adv-x="560" 
d="M548 38v-38h-485v714h480v-38h-436v-286h410v-38h-410v-314h441zM183 828v33h242v-33h-242z" />
    <glyph glyph-name="emacron" unicode="&#x113;" 
d="M448 285q-1 40 -14 78t-37 66.5t-58.5 46t-78.5 17.5q-43 0 -76.5 -18t-57.5 -47.5t-38 -67t-17 -75.5h377zM71 252q-1 -45 10.5 -87t35.5 -74t59.5 -51t83.5 -19q73 0 121.5 40.5t62.5 112.5h38q-15 -91 -72.5 -138.5t-149.5 -47.5q-56 0 -99 20.5t-71.5 56t-43 83
t-13.5 100.5q-1 53 12.5 103t42 89t71.5 62.5t101 23.5q60 0 104 -22t72 -59.5t40.5 -87.5t9.5 -105h-415zM145 638v33h242v-33h-242z" />
    <glyph glyph-name="Ebreve" unicode="&#x114;" horiz-adv-x="560" 
d="M548 38v-38h-485v714h480v-38h-436v-286h410v-38h-410v-314h441zM434 910q-3 -24 -14.5 -46t-29 -38.5t-40 -26t-47.5 -9.5q-57 0 -95 31.5t-45 88.5h33q6 -25 18 -42.5t26.5 -28t30.5 -13.5t31 -3q39 0 65.5 24t33.5 63h33z" />
    <glyph glyph-name="ebreve" unicode="&#x115;" 
d="M448 285q-1 40 -14 78t-37 66.5t-58.5 46t-78.5 17.5q-43 0 -76.5 -18t-57.5 -47.5t-38 -67t-17 -75.5h377zM71 252q-1 -45 10.5 -87t35.5 -74t59.5 -51t83.5 -19q73 0 121.5 40.5t62.5 112.5h38q-15 -91 -72.5 -138.5t-149.5 -47.5q-56 0 -99 20.5t-71.5 56t-43 83
t-13.5 100.5q-1 53 12.5 103t42 89t71.5 62.5t101 23.5q60 0 104 -22t72 -59.5t40.5 -87.5t9.5 -105h-415zM404 720q-3 -24 -14.5 -46t-29 -38.5t-40 -26t-47.5 -9.5q-57 0 -95 31.5t-45 88.5h33q6 -25 18 -42.5t26.5 -28t30.5 -13.5t31 -3q39 0 65.5 24t33.5 63h33z" />
    <glyph glyph-name="Edotaccent" unicode="&#x116;" horiz-adv-x="560" 
d="M548 38v-38h-485v714h480v-38h-436v-286h410v-38h-410v-314h441zM282 793v103h44v-103h-44z" />
    <glyph glyph-name="edotaccent" unicode="&#x117;" 
d="M448 285q-1 40 -14 78t-37 66.5t-58.5 46t-78.5 17.5q-43 0 -76.5 -18t-57.5 -47.5t-38 -67t-17 -75.5h377zM71 252q-1 -45 10.5 -87t35.5 -74t59.5 -51t83.5 -19q73 0 121.5 40.5t62.5 112.5h38q-15 -91 -72.5 -138.5t-149.5 -47.5q-56 0 -99 20.5t-71.5 56t-43 83
t-13.5 100.5q-1 53 12.5 103t42 89t71.5 62.5t101 23.5q60 0 104 -22t72 -59.5t40.5 -87.5t9.5 -105h-415zM239 603v103h44v-103h-44z" />
    <glyph glyph-name="Eogonek" unicode="&#x118;" horiz-adv-x="560" 
d="M507 0q-25 -22 -40.5 -39.5t-24.5 -31.5t-13 -25.5t-4 -24.5q0 -20 13 -31t29 -11q20 0 32.5 7.5t26.5 27.5l23 -8q-12 -28 -33 -44t-53 -16q-11 0 -23 1.5t-26 8.5t-23.5 21.5t-9.5 36.5q0 12 3.5 24.5t15 29.5t32 35t51.5 39h-420v714h480v-38h-436v-286h410v-38h-410
v-314h441v-38h-41z" />
    <glyph glyph-name="eogonek" unicode="&#x119;" 
d="M71 252q-1 -45 10.5 -87t35.5 -74t59.5 -51t83.5 -19q73 0 121.5 40.5t62.5 112.5h38q-15 -91 -73 -139q-48 -39 -121 -46q-16 -15 -28 -28q-15 -18 -24 -32t-13 -25.5t-4 -24.5q0 -20 13 -31t29 -11q20 0 32.5 7.5t26.5 27.5l23 -8q-12 -28 -33 -44t-53 -16
q-11 0 -23 1.5t-26 8.5t-23.5 21.5t-9.5 36.5q0 12 3.5 24.5t15 29.5t31.5 35q15 13 34 27q-55 0 -98 20.5t-71.5 56t-43 83t-13.5 100.5q-1 53 12.5 103t42 89t71.5 62.5t101 23.5q60 0 104 -22t72 -59.5t40.5 -87.5t9.5 -105h-415zM448 285q-1 40 -14 78t-37 66.5
t-58.5 46t-78.5 17.5q-43 0 -76.5 -18t-57.5 -47.5t-38 -67t-17 -75.5h377z" />
    <glyph glyph-name="Ecaron" unicode="&#x11a;" horiz-adv-x="560" 
d="M548 38v-38h-485v714h480v-38h-436v-286h410v-38h-410v-314h441zM279 780l-115 140h38l97 -115l98 115h38l-116 -140h-40z" />
    <glyph glyph-name="ecaron" unicode="&#x11b;" 
d="M448 285q-1 40 -14 78t-37 66.5t-58.5 46t-78.5 17.5q-43 0 -76.5 -18t-57.5 -47.5t-38 -67t-17 -75.5h377zM71 252q-1 -45 10.5 -87t35.5 -74t59.5 -51t83.5 -19q73 0 121.5 40.5t62.5 112.5h38q-15 -91 -72.5 -138.5t-149.5 -47.5q-56 0 -99 20.5t-71.5 56t-43 83
t-13.5 100.5q-1 53 12.5 103t42 89t71.5 62.5t101 23.5q60 0 104 -22t72 -59.5t40.5 -87.5t9.5 -105h-415zM241 590l-115 140h38l97 -115l98 115h38l-116 -140h-40z" />
    <glyph glyph-name="Gcircumflex" unicode="&#x11c;" horiz-adv-x="741" 
d="M683 350v-350h-38v152h-2q-13 -39 -39 -70.5t-61.5 -53t-79 -33.5t-90.5 -12q-81 0 -143.5 29t-105.5 79t-65 117.5t-22 144.5q0 76 22.5 144.5t65.5 120.5t105.5 82.5t143.5 30.5q55 0 105 -16t89.5 -47t66.5 -75t36 -100h-42q-25 93 -90.5 146.5t-163.5 53.5
q-72 0 -127 -28t-92 -75t-56 -108.5t-19 -128.5q0 -68 18.5 -128.5t55 -105.5t91.5 -71.5t129 -26.5q64 0 115 21t86.5 59t53.5 91.5t15 119.5h-263v38h301zM399 920l116 -140h-38l-98 115l-97 -115h-38l115 140h40z" />
    <glyph glyph-name="gcircumflex" unicode="&#x11d;" horiz-adv-x="537" 
d="M481 514v-487q0 -10 -1 -31t-7 -46.5t-19.5 -52t-38 -48t-63 -34.5t-93.5 -11q-41 0 -77 8.5t-62.5 27t-43 49t-18.5 75.5h38q3 -34 17 -58t36.5 -39.5t50.5 -22.5t60 -7q45 0 76 11t51.5 28.5t31.5 38.5t16.5 41t6.5 36.5t1 25.5v118h-2q-27 -57 -73.5 -87t-112.5 -30
q-57 0 -98.5 19.5t-69 54t-41 80.5t-13.5 100q0 51 14.5 97t42.5 80.5t69.5 55t95.5 20.5q30 0 59 -8t53.5 -23t43.5 -37t30 -51h2v107h38zM255 493q-47 0 -81.5 -19t-57 -50t-34 -70.5t-11.5 -80.5q0 -45 11.5 -85.5t35 -70.5t58 -47.5t79.5 -17.5q47 0 82 18t58.5 49
t35 70.5t11.5 83.5q0 43 -11.5 83t-35 70.5t-58.5 48.5t-82 18zM296 730l116 -140h-38l-98 115l-97 -115h-38l115 140h40z" />
    <glyph glyph-name="Gbreve" unicode="&#x11e;" horiz-adv-x="741" 
d="M683 350v-350h-38v152h-2q-13 -39 -39 -70.5t-61.5 -53t-79 -33.5t-90.5 -12q-81 0 -143.5 29t-105.5 79t-65 117.5t-22 144.5q0 76 22.5 144.5t65.5 120.5t105.5 82.5t143.5 30.5q55 0 105 -16t89.5 -47t66.5 -75t36 -100h-42q-25 93 -90.5 146.5t-163.5 53.5
q-72 0 -127 -28t-92 -75t-56 -108.5t-19 -128.5q0 -68 18.5 -128.5t55 -105.5t91.5 -71.5t129 -26.5q64 0 115 21t86.5 59t53.5 91.5t15 119.5h-263v38h301zM510 910q-3 -24 -14.5 -46t-29 -38.5t-40 -26t-47.5 -9.5q-57 0 -95 31.5t-45 88.5h33q6 -25 18 -42.5t26.5 -28
t30.5 -13.5t31 -3q39 0 65.5 24t33.5 63h33z" />
    <glyph glyph-name="gbreve" unicode="&#x11f;" horiz-adv-x="537" 
d="M481 514v-487q0 -10 -1 -31t-7 -46.5t-19.5 -52t-38 -48t-63 -34.5t-93.5 -11q-41 0 -77 8.5t-62.5 27t-43 49t-18.5 75.5h38q3 -34 17 -58t36.5 -39.5t50.5 -22.5t60 -7q45 0 76 11t51.5 28.5t31.5 38.5t16.5 41t6.5 36.5t1 25.5v118h-2q-27 -57 -73.5 -87t-112.5 -30
q-57 0 -98.5 19.5t-69 54t-41 80.5t-13.5 100q0 51 14.5 97t42.5 80.5t69.5 55t95.5 20.5q30 0 59 -8t53.5 -23t43.5 -37t30 -51h2v107h38zM255 493q-47 0 -81.5 -19t-57 -50t-34 -70.5t-11.5 -80.5q0 -45 11.5 -85.5t35 -70.5t58 -47.5t79.5 -17.5q47 0 82 18t58.5 49
t35 70.5t11.5 83.5q0 43 -11.5 83t-35 70.5t-58.5 48.5t-82 18zM403 720q-3 -24 -14.5 -46t-29 -38.5t-40 -26t-47.5 -9.5q-57 0 -95 31.5t-45 88.5h33q6 -25 18 -42.5t26.5 -28t30.5 -13.5t31 -3q39 0 65.5 24t33.5 63h33z" />
    <glyph glyph-name="Gdotaccent" unicode="&#x120;" horiz-adv-x="741" 
d="M683 350v-350h-38v152h-2q-13 -39 -39 -70.5t-61.5 -53t-79 -33.5t-90.5 -12q-81 0 -143.5 29t-105.5 79t-65 117.5t-22 144.5q0 76 22.5 144.5t65.5 120.5t105.5 82.5t143.5 30.5q55 0 105 -16t89.5 -47t66.5 -75t36 -100h-42q-25 93 -90.5 146.5t-163.5 53.5
q-72 0 -127 -28t-92 -75t-56 -108.5t-19 -128.5q0 -68 18.5 -128.5t55 -105.5t91.5 -71.5t129 -26.5q64 0 115 21t86.5 59t53.5 91.5t15 119.5h-263v38h301zM347 793v103h44v-103h-44z" />
    <glyph glyph-name="gdotaccent" unicode="&#x121;" horiz-adv-x="537" 
d="M481 514v-487q0 -10 -1 -31t-7 -46.5t-19.5 -52t-38 -48t-63 -34.5t-93.5 -11q-41 0 -77 8.5t-62.5 27t-43 49t-18.5 75.5h38q3 -34 17 -58t36.5 -39.5t50.5 -22.5t60 -7q45 0 76 11t51.5 28.5t31.5 38.5t16.5 41t6.5 36.5t1 25.5v118h-2q-27 -57 -73.5 -87t-112.5 -30
q-57 0 -98.5 19.5t-69 54t-41 80.5t-13.5 100q0 51 14.5 97t42.5 80.5t69.5 55t95.5 20.5q30 0 59 -8t53.5 -23t43.5 -37t30 -51h2v107h38zM255 493q-47 0 -81.5 -19t-57 -50t-34 -70.5t-11.5 -80.5q0 -45 11.5 -85.5t35 -70.5t58 -47.5t79.5 -17.5q47 0 82 18t58.5 49
t35 70.5t11.5 83.5q0 43 -11.5 83t-35 70.5t-58.5 48.5t-82 18zM248 603v103h44v-103h-44z" />
    <glyph glyph-name="Gcommaaccent" unicode="&#x122;" horiz-adv-x="741" 
d="M683 350v-350h-38v152h-2q-13 -39 -39 -70.5t-61.5 -53t-79 -33.5t-90.5 -12q-81 0 -143.5 29t-105.5 79t-65 117.5t-22 144.5q0 76 22.5 144.5t65.5 120.5t105.5 82.5t143.5 30.5q55 0 105 -16t89.5 -47t66.5 -75t36 -100h-42q-25 93 -90.5 146.5t-163.5 53.5
q-72 0 -127 -28t-92 -75t-56 -108.5t-19 -128.5q0 -68 18.5 -128.5t55 -105.5t91.5 -71.5t129 -26.5q64 0 115 21t86.5 59t53.5 91.5t15 119.5h-263v38h301zM335 -176q13 3 21 10.5t10 22.5h-25v93h57v-80q0 -31 -16 -47.5t-47 -18.5v20z" />
    <glyph glyph-name="gcommaaccent" unicode="&#x123;" horiz-adv-x="537" 
d="M481 514v-487q0 -10 -1 -31t-7 -46.5t-19.5 -52t-38 -48t-63 -34.5t-93.5 -11q-41 0 -77 8.5t-62.5 27t-43 49t-18.5 75.5h38q3 -34 17 -58t36.5 -39.5t50.5 -22.5t60 -7q45 0 76 11t51.5 28.5t31.5 38.5t16.5 41t6.5 36.5t1 25.5v118h-2q-27 -57 -73.5 -87t-112.5 -30
q-57 0 -98.5 19.5t-69 54t-41 80.5t-13.5 100q0 51 14.5 97t42.5 80.5t69.5 55t95.5 20.5q30 0 59 -8t53.5 -23t43.5 -37t30 -51h2v107h38zM255 493q-47 0 -81.5 -19t-57 -50t-34 -70.5t-11.5 -80.5q0 -45 11.5 -85.5t35 -70.5t58 -47.5t79.5 -17.5q47 0 82 18t58.5 49
t35 70.5t11.5 83.5q0 43 -11.5 83t-35 70.5t-58.5 48.5t-82 18zM299 747q-13 -3 -21 -10.5t-10 -22.5h25v-93h-57v80q0 31 16 47.5t47 18.5v-20z" />
    <glyph glyph-name="Hcircumflex" unicode="&#x124;" horiz-adv-x="670" 
d="M107 352v-352h-44v714h44v-324h456v324h44v-714h-44v352h-456zM356 920l116 -140h-38l-98 115l-97 -115h-38l115 140h40z" />
    <glyph glyph-name="hcircumflex" unicode="&#x125;" 
d="M94 714v-310h2q10 29 28.5 51.5t43 38.5t53.5 24t59 8q45 0 76.5 -11t51.5 -29t31.5 -40.5t16.5 -45.5t6 -44.5t1 -37.5v-318h-38v325q0 20 -3 48.5t-17.5 55t-44 45.5t-81.5 19q-43 0 -77.5 -16t-58.5 -44.5t-36.5 -68t-12.5 -86.5v-278h-38v714h38zM275 920l116 -140
h-38l-98 115l-97 -115h-38l115 140h40z" />
    <glyph glyph-name="Hbar" unicode="&#x126;" horiz-adv-x="670" 
d="M107 352v-352h-44v714h44v-200h456v200h44v-714h-44v352h-456zM107 481v-91h456v91h-456z" />
    <glyph glyph-name="hbar" unicode="&#x127;" horiz-adv-x="524" 
d="M99 714v-78h151v-33h-151v-199h2q10 29 28.5 51.5t43 38.5t53.5 24t59 8q45 0 76.5 -11t51.5 -29t31.5 -40.5t16.5 -45.5t6 -44.5t1 -37.5v-318h-38v325q0 20 -3 48.5t-17.5 55t-44 45.5t-81.5 19q-43 0 -77.5 -16t-58.5 -44.5t-36.5 -68t-12.5 -86.5v-278h-38v603h-73
v33h73v78h38z" />
    <glyph glyph-name="Itilde" unicode="&#x128;" horiz-adv-x="170" 
d="M63 714h44v-714h-44v714zM-59 799q1 16 7 32.5t15.5 29t23 20.5t31.5 8t35 -7.5t35 -18.5t35.5 -21t32.5 -10q21 0 32 18.5t13 38.5h29q-2 -17 -7 -33t-14 -28t-22 -20.5t-33 -8.5q-17 0 -35 9.5t-34 19.5q-31 19 -42.5 23.5t-25.5 4.5q-20 0 -31.5 -17t-15.5 -40h-29z
" />
    <glyph glyph-name="itilde" unicode="&#x129;" horiz-adv-x="168" 
d="M65 0v514h38v-514h-38zM-60 609q1 16 7 32.5t15.5 29t23 20.5t31.5 8t35 -7.5t35 -18.5t35.5 -21t32.5 -10q21 0 32 18.5t13 38.5h29q-2 -17 -7 -33t-14 -28t-22 -20.5t-33 -8.5q-17 0 -35 9.5t-34 19.5q-31 19 -42.5 23.5t-25.5 4.5q-20 0 -31.5 -17t-15.5 -40h-29z" />
    <glyph glyph-name="Imacron" unicode="&#x12a;" horiz-adv-x="170" 
d="M63 714h44v-714h-44v714zM-36 828v33h242v-33h-242z" />
    <glyph glyph-name="imacron" unicode="&#x12b;" horiz-adv-x="168" 
d="M65 0v514h38v-514h-38zM-36 638v33h242v-33h-242z" />
    <glyph glyph-name="Iogonek" unicode="&#x12e;" horiz-adv-x="170" 
d="M107 0q-23 -22 -37 -39.5t-22 -31.5t-11.5 -25.5t-3.5 -24.5q0 -20 11.5 -31t26.5 -11q18 0 29 7.5t24 27.5l21 -8q-11 -28 -30 -44t-48 -16q-10 0 -20.5 1.5t-23.5 8.5t-21.5 21.5t-8.5 36.5q0 12 3.5 24.5t13.5 29.5t28.5 35t46.5 39h-22v714h44v-714z" />
    <glyph glyph-name="iogonek" unicode="&#x12f;" horiz-adv-x="168" 
d="M103 0q-23 -22 -37 -39.5t-22 -31.5t-11.5 -25.5t-3.5 -24.5q0 -20 11.5 -31t26.5 -11q18 0 29 7.5t24 27.5l21 -8q-11 -28 -30 -44t-48 -16q-10 0 -20.5 1.5t-23.5 8.5t-21.5 21.5t-8.5 36.5q0 12 3.5 24.5t13.5 29.5t28.5 35t46.5 39h-16v514h38v-514zM65 611v103h38
v-103h-38z" />
    <glyph glyph-name="Idotaccent" unicode="&#x130;" horiz-adv-x="170" 
d="M63 714h44v-714h-44v714zM63 793v103h44v-103h-44z" />
    <glyph glyph-name="dotlessi" unicode="&#x131;" horiz-adv-x="168" 
d="M65 0v514h38v-514h-38z" />
    <glyph glyph-name="Jcircumflex" unicode="&#x134;" horiz-adv-x="481" 
d="M64 227q-3 -40 1 -77t20 -65.5t47.5 -46t84.5 -17.5q62 0 94 20t46 51t15.5 69.5t1.5 75.5v477h44v-492q0 -21 -0.5 -47t-6 -52.5t-17 -51.5t-33.5 -44.5t-55.5 -31.5t-83.5 -12q-72 0 -113 23t-60.5 59t-24 79t-4.5 83h44zM412 920l116 -140h-38l-98 115l-97 -115h-38
l115 140h40z" />
    <glyph glyph-name="jcircumflex" unicode="&#x135;" horiz-adv-x="168" 
d="M103 514v-569q0 -26 -4 -49.5t-15.5 -41t-32 -28t-53.5 -10.5h-16t-16 1v33q5 -1 11 -1.5t14 -0.5q20 0 34 4.5t23 16t13 31t4 48.5v566h38zM101 730l116 -140h-38l-98 115l-97 -115h-38l115 140h40z" />
    <glyph glyph-name="Kcommaaccent" unicode="&#x136;" horiz-adv-x="613" 
d="M63 714h44v-411l449 411h57l-326 -297l346 -417h-55l-323 387l-148 -135v-252h-44v714zM291 -176q13 3 21 10.5t10 22.5h-25v93h57v-80q0 -31 -16 -47.5t-47 -18.5v20z" />
    <glyph glyph-name="kcommaaccent" unicode="&#x137;" horiz-adv-x="463" 
d="M58 714h38v-473l317 273h55l-225 -192l241 -322h-52l-219 293l-117 -99v-194h-38v714zM225 -176q13 3 21 10.5t10 22.5h-25v93h57v-80q0 -31 -16 -47.5t-47 -18.5v20z" />
    <glyph glyph-name="Lacute" unicode="&#x139;" horiz-adv-x="500" 
d="M63 714h44v-676h405v-38h-449v714zM185 920h51l-134 -140h-37z" />
    <glyph glyph-name="lacute" unicode="&#x13a;" horiz-adv-x="168" 
d="M103 714v-714h-38v714h38zM185 920h51l-134 -140h-37z" />
    <glyph glyph-name="Lcommaaccent" unicode="&#x13b;" horiz-adv-x="500" 
d="M63 714h44v-676h405v-38h-449v714zM239 -176q13 3 21 10.5t10 22.5h-25v93h57v-80q0 -31 -16 -47.5t-47 -18.5v20z" />
    <glyph glyph-name="lcommaaccent" unicode="&#x13c;" horiz-adv-x="168" 
d="M103 714v-714h-38v714h38zM53 -176q13 3 21 10.5t10 22.5h-25v93h57v-80q0 -31 -16 -47.5t-47 -18.5v20z" />
    <glyph glyph-name="Lcaron" unicode="&#x13d;" horiz-adv-x="500" 
d="M63 714h44v-676h405v-38h-449v714zM276 714h51l-87 -140h-29z" />
    <glyph glyph-name="lcaron" unicode="&#x13e;" horiz-adv-x="228" 
d="M103 714v-714h-38v714h38zM223 714h51l-87 -140h-29z" />
    <glyph glyph-name="Ldot" unicode="&#x13f;" horiz-adv-x="500" 
d="M63 714h44v-676h405v-38h-449v714zM264 412v103h44v-103h-44z" />
    <glyph glyph-name="ldot" unicode="&#x140;" horiz-adv-x="246" 
d="M103 714v-714h-38v714h38zM166 412v103h44v-103h-44z" />
    <glyph glyph-name="Lslash" unicode="&#x141;" horiz-adv-x="500" 
d="M107 714v-383l235 143v-36l-235 -142v-258h405v-38h-449v269l-85 -53v38l85 51v409h44z" />
    <glyph glyph-name="lslash" unicode="&#x142;" horiz-adv-x="168" 
d="M65 714h38v-350l65 51v-33l-65 -51v-331h-38v301l-65 -51v33l65 51v380z" />
    <glyph glyph-name="Nacute" unicode="&#x143;" horiz-adv-x="678" 
d="M63 714h55l451 -655h2v655h44v-714h-52l-454 660h-2v-660h-44v714zM436 920h51l-134 -140h-37z" />
    <glyph glyph-name="nacute" unicode="&#x144;" 
d="M56 514h38v-110h2q10 29 28.5 51.5t43 38.5t53.5 24t59 8q45 0 76.5 -11t51.5 -29t31.5 -40.5t16.5 -45.5t6 -44.5t1 -37.5v-318h-38v325q0 20 -3 48.5t-17.5 55t-44 45.5t-81.5 19q-43 0 -77.5 -16t-58.5 -44.5t-36.5 -68t-12.5 -86.5v-278h-38v514zM357 730h51
l-134 -140h-37z" />
    <glyph glyph-name="Ncommaaccent" unicode="&#x145;" horiz-adv-x="678" 
d="M63 714h55l451 -655h2v655h44v-714h-52l-454 660h-2v-660h-44v714zM300 -176q13 3 21 10.5t10 22.5h-25v93h57v-80q0 -31 -16 -47.5t-47 -18.5v20z" />
    <glyph glyph-name="ncommaaccent" unicode="&#x146;" 
d="M56 514h38v-110h2q10 29 28.5 51.5t43 38.5t53.5 24t59 8q45 0 76.5 -11t51.5 -29t31.5 -40.5t16.5 -45.5t6 -44.5t1 -37.5v-318h-38v325q0 20 -3 48.5t-17.5 55t-44 45.5t-81.5 19q-43 0 -77.5 -16t-58.5 -44.5t-36.5 -68t-12.5 -86.5v-278h-38v514zM225 -176
q13 3 21 10.5t10 22.5h-25v93h57v-80q0 -31 -16 -47.5t-47 -18.5v20z" />
    <glyph glyph-name="Ncaron" unicode="&#x147;" horiz-adv-x="678" 
d="M63 714h55l451 -655h2v655h44v-714h-52l-454 660h-2v-660h-44v714zM316 780l-115 140h38l97 -115l98 115h38l-116 -140h-40z" />
    <glyph glyph-name="ncaron" unicode="&#x148;" 
d="M56 514h38v-110h2q10 29 28.5 51.5t43 38.5t53.5 24t59 8q45 0 76.5 -11t51.5 -29t31.5 -40.5t16.5 -45.5t6 -44.5t1 -37.5v-318h-38v325q0 20 -3 48.5t-17.5 55t-44 45.5t-81.5 19q-43 0 -77.5 -16t-58.5 -44.5t-36.5 -68t-12.5 -86.5v-278h-38v514zM240 590l-115 140
h38l97 -115l98 115h38l-116 -140h-40z" />
    <glyph glyph-name="Omacron" unicode="&#x14c;" horiz-adv-x="741" 
d="M75 357q0 -69 20 -130t58 -106.5t93 -72.5t125 -27t124.5 27t92.5 72.5t58 106.5t20 130t-20 130t-58 106.5t-92.5 72.5t-124.5 27t-125 -27t-93 -72.5t-58 -106.5t-20 -130zM710 357q0 -78 -23 -146.5t-66.5 -119t-106.5 -79.5t-143 -29t-143.5 29t-107 79.5t-66.5 119
t-23 146.5t23 146.5t66.5 119t107 79.5t143.5 29t143 -29t106.5 -79.5t66.5 -119t23 -146.5zM251 828v33h242v-33h-242z" />
    <glyph glyph-name="omacron" unicode="&#x14d;" horiz-adv-x="537" 
d="M70 257q0 -46 13 -88.5t38 -75.5t62 -52.5t85 -19.5t85 19.5t62 52.5t38 75.5t13 88.5t-13 88.5t-38 75.5t-62 52.5t-85 19.5t-85 -19.5t-62 -52.5t-38 -75.5t-13 -88.5zM32 257q0 55 15.5 103.5t45.5 85.5t74 58.5t101 21.5t101 -21.5t74 -58.5t45.5 -85.5t15.5 -103.5
t-15.5 -104t-45.5 -85.5t-74 -58t-101 -21.5t-101 21.5t-74 58t-45.5 85.5t-15.5 104zM148 638v33h242v-33h-242z" />
    <glyph glyph-name="Obreve" unicode="&#x14e;" horiz-adv-x="741" 
d="M75 357q0 -69 20 -130t58 -106.5t93 -72.5t125 -27t124.5 27t92.5 72.5t58 106.5t20 130t-20 130t-58 106.5t-92.5 72.5t-124.5 27t-125 -27t-93 -72.5t-58 -106.5t-20 -130zM710 357q0 -78 -23 -146.5t-66.5 -119t-106.5 -79.5t-143 -29t-143.5 29t-107 79.5t-66.5 119
t-23 146.5t23 146.5t66.5 119t107 79.5t143.5 29t143 -29t106.5 -79.5t66.5 -119t23 -146.5zM505 910q-3 -24 -14.5 -46t-29 -38.5t-40 -26t-47.5 -9.5q-57 0 -95 31.5t-45 88.5h33q6 -25 18 -42.5t26.5 -28t30.5 -13.5t31 -3q39 0 65.5 24t33.5 63h33z" />
    <glyph glyph-name="obreve" unicode="&#x14f;" horiz-adv-x="537" 
d="M70 257q0 -46 13 -88.5t38 -75.5t62 -52.5t85 -19.5t85 19.5t62 52.5t38 75.5t13 88.5t-13 88.5t-38 75.5t-62 52.5t-85 19.5t-85 -19.5t-62 -52.5t-38 -75.5t-13 -88.5zM32 257q0 55 15.5 103.5t45.5 85.5t74 58.5t101 21.5t101 -21.5t74 -58.5t45.5 -85.5t15.5 -103.5
t-15.5 -104t-45.5 -85.5t-74 -58t-101 -21.5t-101 21.5t-74 58t-45.5 85.5t-15.5 104zM402 720q-3 -24 -14.5 -46t-29 -38.5t-40 -26t-47.5 -9.5q-57 0 -95 31.5t-45 88.5h33q6 -25 18 -42.5t26.5 -28t30.5 -13.5t31 -3q39 0 65.5 24t33.5 63h33z" />
    <glyph glyph-name="Ohungarumlaut" unicode="&#x150;" horiz-adv-x="741" 
d="M75 357q0 -69 20 -130t58 -106.5t93 -72.5t125 -27t124.5 27t92.5 72.5t58 106.5t20 130t-20 130t-58 106.5t-92.5 72.5t-124.5 27t-125 -27t-93 -72.5t-58 -106.5t-20 -130zM710 357q0 -78 -23 -146.5t-66.5 -119t-106.5 -79.5t-143 -29t-143.5 29t-107 79.5t-66.5 119
t-23 146.5t23 146.5t66.5 119t107 79.5t143.5 29t143 -29t106.5 -79.5t66.5 -119t23 -146.5zM431 781l120 140h51l-134 -140h-37zM273 781l120 140h51l-134 -140h-37z" />
    <glyph glyph-name="ohungarumlaut" unicode="&#x151;" horiz-adv-x="537" 
d="M70 257q0 -46 13 -88.5t38 -75.5t62 -52.5t85 -19.5t85 19.5t62 52.5t38 75.5t13 88.5t-13 88.5t-38 75.5t-62 52.5t-85 19.5t-85 -19.5t-62 -52.5t-38 -75.5t-13 -88.5zM32 257q0 55 15.5 103.5t45.5 85.5t74 58.5t101 21.5t101 -21.5t74 -58.5t45.5 -85.5t15.5 -103.5
t-15.5 -104t-45.5 -85.5t-74 -58t-101 -21.5t-101 21.5t-74 58t-45.5 85.5t-15.5 104zM326 591l120 140h51l-134 -140h-37zM168 591l120 140h51l-134 -140h-37z" />
    <glyph glyph-name="OE" unicode="&#x152;" horiz-adv-x="1056" 
d="M617 390h378v-38h-378v-314h424v-38h-468v66h-2q-25 -32 -78.5 -57.5t-132.5 -25.5q-80 0 -141 28.5t-103 79t-63.5 118t-21.5 145.5q0 76 22 144.5t65 120t106 82t144 30.5q56 0 111.5 -21t93.5 -62v66h466v-38h-422v-286zM573 578q0 10 -6 20.5t-14.5 20t-18.5 17.5
t-18 13q-65 44 -144 44q-73 0 -128.5 -27.5t-93 -74t-56.5 -108t-19 -129.5t17.5 -128.5t53 -106t89.5 -72t128 -26.5q32 0 64.5 5.5t61.5 21.5q10 5 24.5 14t27.5 19.5t22.5 22.5t9.5 23v451z" />
    <glyph glyph-name="oe" unicode="&#x153;" horiz-adv-x="889" 
d="M819 285q0 40 -11 78t-32.5 66.5t-54.5 46t-76 17.5q-46 0 -80.5 -17.5t-57 -46.5t-33.5 -66.5t-10 -77.5h355zM464 252q-3 -44 6 -86t31 -74t57.5 -51.5t86.5 -19.5q71 0 112.5 41t57.5 107h38q-18 -82 -69.5 -131.5t-138.5 -49.5q-81 0 -133.5 39.5t-66.5 111.5h-2
q-20 -74 -67 -112.5t-125 -38.5q-61 0 -102.5 22t-67.5 58.5t-37.5 83.5t-11.5 98q0 55 13 105t40 88t69 60.5t100 22.5q75 0 124.5 -40t65.5 -112h2q41 152 199 152q58 0 99.5 -23t67.5 -61t37 -87.5t8 -102.5h-393zM252 21q52 0 86 21.5t53.5 54.5t27 73.5t7.5 79.5
q0 47 -8.5 91t-29 77.5t-53.5 54t-82 20.5q-53 0 -88 -22t-56 -57.5t-30 -78.5t-9 -85q0 -45 10.5 -86.5t32.5 -73t56.5 -50.5t82.5 -19z" />
    <glyph glyph-name="Racute" unicode="&#x154;" horiz-adv-x="630" 
d="M63 714h298q47 0 88 -9.5t72 -31t48.5 -56.5t17.5 -87q0 -72 -40.5 -121.5t-112.5 -61.5v-2q40 -5 65.5 -19t41 -34.5t22.5 -46t10 -53.5t3 -56t1 -53.5t5 -47t15 -35.5h-49q-10 18 -13 42t-3.5 50.5t0 54t-2.5 53.5t-12.5 48.5t-28 39.5t-49.5 27t-78 10h-254v-325h-44
v714zM361 363q39 0 72.5 9.5t57.5 29.5t38 51t14 74q0 40 -15 68.5t-40 46.5t-58 26t-69 8h-254v-313h254zM390 920h51l-134 -140h-37z" />
    <glyph glyph-name="racute" unicode="&#x155;" horiz-adv-x="278" 
d="M94 400h3q7 25 26 47t45 38t58.5 24.5t67.5 7.5v-38q-30 4 -68.5 -6t-73.5 -44q-14 -15 -24.5 -29t-17.5 -31t-11 -38t-5 -50v-281h-38v514h38v-114zM176 730h51l-134 -140h-37z" />
    <glyph glyph-name="Rcommaaccent" unicode="&#x156;" horiz-adv-x="630" 
d="M63 714h298q47 0 88 -9.5t72 -31t48.5 -56.5t17.5 -87q0 -72 -40.5 -121.5t-112.5 -61.5v-2q40 -5 65.5 -19t41 -34.5t22.5 -46t10 -53.5t3 -56t1 -53.5t5 -47t15 -35.5h-49q-10 18 -13 42t-3.5 50.5t0 54t-2.5 53.5t-12.5 48.5t-28 39.5t-49.5 27t-78 10h-254v-325h-44
v714zM361 363q39 0 72.5 9.5t57.5 29.5t38 51t14 74q0 40 -15 68.5t-40 46.5t-58 26t-69 8h-254v-313h254zM286 -176q13 3 21 10.5t10 22.5h-25v93h57v-80q0 -31 -16 -47.5t-47 -18.5v20z" />
    <glyph glyph-name="rcommaaccent" unicode="&#x157;" horiz-adv-x="278" 
d="M94 400h3q7 25 26 47t45 38t58.5 24.5t67.5 7.5v-38q-30 4 -68.5 -6t-73.5 -44q-14 -15 -24.5 -29t-17.5 -31t-11 -38t-5 -50v-281h-38v514h38v-114zM46 -176q13 3 21 10.5t10 22.5h-25v93h57v-80q0 -31 -16 -47.5t-47 -18.5v20z" />
    <glyph glyph-name="Rcaron" unicode="&#x158;" horiz-adv-x="630" 
d="M63 714h298q47 0 88 -9.5t72 -31t48.5 -56.5t17.5 -87q0 -72 -40.5 -121.5t-112.5 -61.5v-2q40 -5 65.5 -19t41 -34.5t22.5 -46t10 -53.5t3 -56t1 -53.5t5 -47t15 -35.5h-49q-10 18 -13 42t-3.5 50.5t0 54t-2.5 53.5t-12.5 48.5t-28 39.5t-49.5 27t-78 10h-254v-325h-44
v714zM361 363q39 0 72.5 9.5t57.5 29.5t38 51t14 74q0 40 -15 68.5t-40 46.5t-58 26t-69 8h-254v-313h254zM273 780l-115 140h38l97 -115l98 115h38l-116 -140h-40z" />
    <glyph glyph-name="rcaron" unicode="&#x159;" horiz-adv-x="278" 
d="M94 400h3q7 25 26 47t45 38t58.5 24.5t67.5 7.5v-38q-30 4 -68.5 -6t-73.5 -44q-14 -15 -24.5 -29t-17.5 -31t-11 -38t-5 -50v-281h-38v514h38v-114zM145 590l-115 140h38l97 -115l98 115h38l-116 -140h-40z" />
    <glyph glyph-name="Sacute" unicode="&#x15a;" horiz-adv-x="630" 
d="M529 510q-2 46 -19.5 80t-47.5 57t-71.5 34.5t-90.5 11.5q-30 0 -64.5 -7t-64 -24.5t-48.5 -47t-19 -73.5q0 -43 21 -70t55 -43.5t78 -26.5t89 -19q46 -9 89.5 -21.5t78 -34t55.5 -55.5t21 -87q0 -56 -24 -94t-60.5 -62t-81 -34.5t-85.5 -10.5q-63 0 -118 13.5t-96 44
t-64.5 78.5t-22.5 117h44q-3 -59 16.5 -99.5t55.5 -66.5t84 -37.5t101 -11.5q32 0 68.5 8t67 27t51 50t20.5 78q0 45 -21 73.5t-55.5 46t-78 28t-89.5 19.5q-45 9 -89 21t-78 32.5t-55 53t-21 83.5t21.5 87.5t56 59t77.5 33t85 10.5q56 0 104.5 -12.5t85 -39t58.5 -68.5
t25 -101h-44zM412 920h51l-134 -140h-37z" />
    <glyph glyph-name="sacute" unicode="&#x15b;" horiz-adv-x="481" 
d="M74 171q2 -36 16 -63.5t36.5 -47t52.5 -29.5t65 -10q25 0 53.5 4.5t53 16.5t40.5 33.5t16 54.5t-15 53t-40 32t-56.5 19t-64.5 14t-65 16t-57 24.5t-40 41t-15 64.5q0 38 17 63.5t43.5 40.5t59.5 21.5t66 6.5q41 0 75.5 -9t60 -29t40 -51t14.5 -75h-38q0 35 -12 60
t-32 40.5t-48 23t-60 7.5q-26 0 -52.5 -5t-47.5 -17t-34.5 -31t-13.5 -46q0 -31 15 -50t39.5 -30.5t55 -18.5t61.5 -14q38 -7 71.5 -16.5t58 -26t38.5 -42.5t14 -66q0 -42 -19 -69t-48 -43.5t-64.5 -23t-69.5 -6.5q-44 0 -81.5 11.5t-65.5 35t-44 57.5t-17 79h38zM334 730
h51l-134 -140h-37z" />
    <glyph glyph-name="Scircumflex" unicode="&#x15c;" horiz-adv-x="630" 
d="M529 510q-2 46 -19.5 80t-47.5 57t-71.5 34.5t-90.5 11.5q-30 0 -64.5 -7t-64 -24.5t-48.5 -47t-19 -73.5q0 -43 21 -70t55 -43.5t78 -26.5t89 -19q46 -9 89.5 -21.5t78 -34t55.5 -55.5t21 -87q0 -56 -24 -94t-60.5 -62t-81 -34.5t-85.5 -10.5q-63 0 -118 13.5t-96 44
t-64.5 78.5t-22.5 117h44q-3 -59 16.5 -99.5t55.5 -66.5t84 -37.5t101 -11.5q32 0 68.5 8t67 27t51 50t20.5 78q0 45 -21 73.5t-55.5 46t-78 28t-89.5 19.5q-45 9 -89 21t-78 32.5t-55 53t-21 83.5t21.5 87.5t56 59t77.5 33t85 10.5q56 0 104.5 -12.5t85 -39t58.5 -68.5
t25 -101h-44zM337 920l116 -140h-38l-98 115l-97 -115h-38l115 140h40z" />
    <glyph glyph-name="scircumflex" unicode="&#x15d;" horiz-adv-x="481" 
d="M74 171q2 -36 16 -63.5t36.5 -47t52.5 -29.5t65 -10q25 0 53.5 4.5t53 16.5t40.5 33.5t16 54.5t-15 53t-40 32t-56.5 19t-64.5 14t-65 16t-57 24.5t-40 41t-15 64.5q0 38 17 63.5t43.5 40.5t59.5 21.5t66 6.5q41 0 75.5 -9t60 -29t40 -51t14.5 -75h-38q0 35 -12 60
t-32 40.5t-48 23t-60 7.5q-26 0 -52.5 -5t-47.5 -17t-34.5 -31t-13.5 -46q0 -31 15 -50t39.5 -30.5t55 -18.5t61.5 -14q38 -7 71.5 -16.5t58 -26t38.5 -42.5t14 -66q0 -42 -19 -69t-48 -43.5t-64.5 -23t-69.5 -6.5q-44 0 -81.5 11.5t-65.5 35t-44 57.5t-17 79h38zM268 730
l116 -140h-38l-98 115l-97 -115h-38l115 140h40z" />
    <glyph glyph-name="Scedilla" unicode="&#x15e;" horiz-adv-x="630" 
d="M529 510q-2 46 -19.5 80t-47.5 57t-71.5 34.5t-90.5 11.5q-30 0 -64.5 -7t-64 -24.5t-48.5 -47t-19 -73.5q0 -43 21 -70t55 -43.5t78 -26.5t89 -19q46 -9 89.5 -21.5t78 -34t55.5 -55.5t21 -87q0 -56 -24 -94t-60.5 -62t-81 -34.5t-85.5 -10.5q-13 0 -25 1l-33 -40l2 -2
q7 3 16 5.5t21 2.5q29 1 51.5 -16.5t22.5 -52.5t-24 -56t-74 -21q-32 0 -55.5 8.5t-36.5 16.5l11 24q17 -8 35.5 -15t44.5 -7q24 0 42.5 11.5t18.5 38.5q0 12 -4.5 19t-12 13t-16 8.5t-15.5 2.5q-16 0 -29 -3.5t-24 -8.5l-16 13l45 61q-33 3 -63 11q-55 13 -96 43.5
t-64.5 78.5t-22.5 117h44q-3 -59 16.5 -99.5t55.5 -66.5t84 -37.5t101 -11.5q32 0 68.5 8t67 27t51 50t20.5 78q0 45 -21 73.5t-55.5 46t-78 28t-89.5 19.5q-45 9 -89 21t-78 32.5t-55 53t-21 83.5t21.5 87.5t56 59t77.5 33t85 10.5q56 0 104.5 -12.5t85 -39t58.5 -68.5
t25 -101h-44z" />
    <glyph glyph-name="scedilla" unicode="&#x15f;" horiz-adv-x="481" 
d="M74 171q2 -36 16 -63.5t36.5 -47t52.5 -29.5t65 -10q25 0 53.5 4.5t53 16.5t40.5 33.5t16 54.5t-15 53t-40 32t-56.5 19t-64.5 14t-65 16t-57 24.5t-40 41t-15 64.5q0 38 17 63.5t43.5 40.5t59.5 21.5t66 6.5q41 0 75.5 -9t60 -29t40 -51t14.5 -75h-38q0 35 -12 60
t-32 40.5t-48 23t-60 7.5q-26 0 -52.5 -5t-47.5 -17t-34.5 -31t-13.5 -46q0 -31 15 -50t39.5 -30.5t55 -18.5t61.5 -14q38 -7 71.5 -16.5t58 -26t38.5 -42.5t14 -66q0 -42 -19 -69t-48 -43.5t-65 -22.5q-30 -6 -60 -7l-37 -44l2 -2q7 3 16 5.5t21 2.5q29 1 51.5 -16.5
t22.5 -52.5t-24 -56t-74 -21q-32 0 -55.5 8.5t-36.5 16.5l11 24q17 -8 35.5 -15t44.5 -7q24 0 42.5 11.5t18.5 38.5q0 12 -4.5 19t-12 13t-16 8.5t-15.5 2.5q-16 0 -29 -3.5t-24 -8.5l-16 13l47 64q-31 2 -59 11q-37 11 -65 34.5t-44 57.5t-17 79h38z" />
    <glyph glyph-name="Scaron" unicode="&#x160;" horiz-adv-x="630" 
d="M529 510q-2 46 -19.5 80t-47.5 57t-71.5 34.5t-90.5 11.5q-30 0 -64.5 -7t-64 -24.5t-48.5 -47t-19 -73.5q0 -43 21 -70t55 -43.5t78 -26.5t89 -19q46 -9 89.5 -21.5t78 -34t55.5 -55.5t21 -87q0 -56 -24 -94t-60.5 -62t-81 -34.5t-85.5 -10.5q-63 0 -118 13.5t-96 44
t-64.5 78.5t-22.5 117h44q-3 -59 16.5 -99.5t55.5 -66.5t84 -37.5t101 -11.5q32 0 68.5 8t67 27t51 50t20.5 78q0 45 -21 73.5t-55.5 46t-78 28t-89.5 19.5q-45 9 -89 21t-78 32.5t-55 53t-21 83.5t21.5 87.5t56 59t77.5 33t85 10.5q56 0 104.5 -12.5t85 -39t58.5 -68.5
t25 -101h-44zM299 780l-115 140h38l97 -115l98 115h38l-116 -140h-40z" />
    <glyph glyph-name="scaron" unicode="&#x161;" horiz-adv-x="481" 
d="M74 171q2 -36 16 -63.5t36.5 -47t52.5 -29.5t65 -10q25 0 53.5 4.5t53 16.5t40.5 33.5t16 54.5t-15 53t-40 32t-56.5 19t-64.5 14t-65 16t-57 24.5t-40 41t-15 64.5q0 38 17 63.5t43.5 40.5t59.5 21.5t66 6.5q41 0 75.5 -9t60 -29t40 -51t14.5 -75h-38q0 35 -12 60
t-32 40.5t-48 23t-60 7.5q-26 0 -52.5 -5t-47.5 -17t-34.5 -31t-13.5 -46q0 -31 15 -50t39.5 -30.5t55 -18.5t61.5 -14q38 -7 71.5 -16.5t58 -26t38.5 -42.5t14 -66q0 -42 -19 -69t-48 -43.5t-64.5 -23t-69.5 -6.5q-44 0 -81.5 11.5t-65.5 35t-44 57.5t-17 79h38zM226 590
l-115 140h38l97 -115l98 115h38l-116 -140h-40z" />
    <glyph glyph-name="Tcommaaccent" unicode="&#x162;" 
d="M-14 676v38h547v-38h-252v-676h-44v676h-251zM228 -176q13 3 21 10.5t10 22.5h-25v93h57v-80q0 -31 -16 -47.5t-47 -18.5v20z" />
    <glyph glyph-name="tcommaaccent" unicode="&#x163;" horiz-adv-x="259" 
d="M245 481h-112v-359q0 -31 7 -49t21.5 -27t35 -11.5t47.5 -1.5v-33q-29 -2 -56.5 0.5t-48.5 15t-33.5 37.5t-10.5 69v359h-95v33h95v160h38v-160h112v-33zM128 -176q13 3 21 10.5t10 22.5h-25v93h57v-80q0 -31 -16 -47.5t-47 -18.5v20z" />
    <glyph glyph-name="Tcaron" unicode="&#x164;" 
d="M-14 676v38h547v-38h-252v-676h-44v676h-251zM239 780l-115 140h38l97 -115l98 115h38l-116 -140h-40z" />
    <glyph glyph-name="tcaron" unicode="&#x165;" horiz-adv-x="304" 
d="M299 714h51l-87 -140h-29zM245 481h-112v-359q0 -31 7 -49t21.5 -27t35 -11.5t47.5 -1.5v-33q-29 -2 -56.5 0.5t-48.5 15t-33.5 37.5t-10.5 69v359h-95v33h95v160h38v-160h112v-33z" />
    <glyph glyph-name="Tbar" unicode="&#x166;" 
d="M-14 676v38h547v-38h-252v-192h159v-33h-159v-451h-44v451h-159v33h159v192h-251z" />
    <glyph glyph-name="tbar" unicode="&#x167;" horiz-adv-x="259" 
d="M245 481h-112v-135h120v-33h-120v-191q0 -31 7 -49t21.5 -27t35 -11.5t47.5 -1.5v-33q-29 -2 -56.5 0.5t-48.5 15t-33.5 37.5t-10.5 69v191h-101v33h101v135h-95v33h95v160h38v-160h112v-33z" />
    <glyph glyph-name="Utilde" unicode="&#x168;" horiz-adv-x="672" 
d="M107 714v-428q0 -21 2.5 -49t10 -57.5t22 -58t39.5 -51t61.5 -36t88.5 -13.5q66 0 110.5 18.5t72 53t39.5 83.5t12 110v428h44v-428q0 -64 -13.5 -119t-45.5 -96t-85.5 -64.5t-133.5 -23.5q-63 0 -108 16t-74.5 41.5t-46.5 58.5t-26 66.5t-11 65t-2 55.5v428h44zM194 799
q1 16 7 32.5t15.5 29t23 20.5t31.5 8t35 -7.5t35 -18.5t35.5 -21t32.5 -10q21 0 32 18.5t13 38.5h29q-2 -17 -7 -33t-14 -28t-22 -20.5t-33 -8.5q-17 0 -35 9.5t-34 19.5q-31 19 -42.5 23.5t-25.5 4.5q-20 0 -31.5 -17t-15.5 -40h-29z" />
    <glyph glyph-name="utilde" unicode="&#x169;" 
d="M463 0h-38v110h-2q-10 -29 -28.5 -51.5t-43 -38.5t-53.5 -24t-59 -8q-45 0 -76.5 11t-51.5 29t-31.5 40.5t-16.5 45.5t-6 44.5t-1 37.5v318h38v-325q0 -20 3 -48.5t17.5 -55t43.5 -45.5t82 -19q43 0 77.5 16t58.5 44.5t36.5 68t12.5 86.5v278h38v-514zM116 609
q1 16 7 32.5t15.5 29t23 20.5t31.5 8t35 -7.5t35 -18.5t35.5 -21t32.5 -10q21 0 32 18.5t13 38.5h29q-2 -17 -7 -33t-14 -28t-22 -20.5t-33 -8.5q-17 0 -35 9.5t-34 19.5q-31 19 -42.5 23.5t-25.5 4.5q-20 0 -31.5 -17t-15.5 -40h-29z" />
    <glyph glyph-name="Umacron" unicode="&#x16a;" horiz-adv-x="672" 
d="M107 714v-428q0 -21 2.5 -49t10 -57.5t22 -58t39.5 -51t61.5 -36t88.5 -13.5q66 0 110.5 18.5t72 53t39.5 83.5t12 110v428h44v-428q0 -64 -13.5 -119t-45.5 -96t-85.5 -64.5t-133.5 -23.5q-63 0 -108 16t-74.5 41.5t-46.5 58.5t-26 66.5t-11 65t-2 55.5v428h44zM215 828
v33h242v-33h-242z" />
    <glyph glyph-name="umacron" unicode="&#x16b;" 
d="M463 0h-38v110h-2q-10 -29 -28.5 -51.5t-43 -38.5t-53.5 -24t-59 -8q-45 0 -76.5 11t-51.5 29t-31.5 40.5t-16.5 45.5t-6 44.5t-1 37.5v318h38v-325q0 -20 3 -48.5t17.5 -55t43.5 -45.5t82 -19q43 0 77.5 16t58.5 44.5t36.5 68t12.5 86.5v278h38v-514zM140 638v33h242
v-33h-242z" />
    <glyph glyph-name="Ubreve" unicode="&#x16c;" horiz-adv-x="672" 
d="M107 714v-428q0 -21 2.5 -49t10 -57.5t22 -58t39.5 -51t61.5 -36t88.5 -13.5q66 0 110.5 18.5t72 53t39.5 83.5t12 110v428h44v-428q0 -64 -13.5 -119t-45.5 -96t-85.5 -64.5t-133.5 -23.5q-63 0 -108 16t-74.5 41.5t-46.5 58.5t-26 66.5t-11 65t-2 55.5v428h44zM470 910
q-3 -24 -14.5 -46t-29 -38.5t-40 -26t-47.5 -9.5q-57 0 -95 31.5t-45 88.5h33q6 -25 18 -42.5t26.5 -28t30.5 -13.5t31 -3q39 0 65.5 24t33.5 63h33z" />
    <glyph glyph-name="ubreve" unicode="&#x16d;" 
d="M463 0h-38v110h-2q-10 -29 -28.5 -51.5t-43 -38.5t-53.5 -24t-59 -8q-45 0 -76.5 11t-51.5 29t-31.5 40.5t-16.5 45.5t-6 44.5t-1 37.5v318h38v-325q0 -20 3 -48.5t17.5 -55t43.5 -45.5t82 -19q43 0 77.5 16t58.5 44.5t36.5 68t12.5 86.5v278h38v-514zM391 720
q-3 -24 -14.5 -46t-29 -38.5t-40 -26t-47.5 -9.5q-57 0 -95 31.5t-45 88.5h33q6 -25 18 -42.5t26.5 -28t30.5 -13.5t31 -3q39 0 65.5 24t33.5 63h33z" />
    <glyph glyph-name="Uring" unicode="&#x16e;" horiz-adv-x="672" 
d="M107 714v-428q0 -21 2.5 -49t10 -57.5t22 -58t39.5 -51t61.5 -36t88.5 -13.5q66 0 110.5 18.5t72 53t39.5 83.5t12 110v428h44v-428q0 -64 -13.5 -119t-45.5 -96t-85.5 -64.5t-133.5 -23.5q-63 0 -108 16t-74.5 41.5t-46.5 58.5t-26 66.5t-11 65t-2 55.5v428h44zM259 850
q0 -30 21 -51t51 -21t51 21t21 51t-21 51t-51 21t-51 -21t-21 -51zM232 850q0 42 28.5 70.5t70.5 28.5t70.5 -28.5t28.5 -70.5t-28.5 -70.5t-70.5 -28.5t-70.5 28.5t-28.5 70.5z" />
    <glyph glyph-name="uring" unicode="&#x16f;" 
d="M463 0h-38v110h-2q-10 -29 -28.5 -51.5t-43 -38.5t-53.5 -24t-59 -8q-45 0 -76.5 11t-51.5 29t-31.5 40.5t-16.5 45.5t-6 44.5t-1 37.5v318h38v-325q0 -20 3 -48.5t17.5 -55t43.5 -45.5t82 -19q43 0 77.5 16t58.5 44.5t36.5 68t12.5 86.5v278h38v-514zM186 670
q0 -30 21 -51t51 -21t51 21t21 51t-21 51t-51 21t-51 -21t-21 -51zM159 670q0 42 28.5 70.5t70.5 28.5t70.5 -28.5t28.5 -70.5t-28.5 -70.5t-70.5 -28.5t-70.5 28.5t-28.5 70.5z" />
    <glyph glyph-name="Uhungarumlaut" unicode="&#x170;" horiz-adv-x="672" 
d="M107 714v-428q0 -21 2.5 -49t10 -57.5t22 -58t39.5 -51t61.5 -36t88.5 -13.5q66 0 110.5 18.5t72 53t39.5 83.5t12 110v428h44v-428q0 -64 -13.5 -119t-45.5 -96t-85.5 -64.5t-133.5 -23.5q-63 0 -108 16t-74.5 41.5t-46.5 58.5t-26 66.5t-11 65t-2 55.5v428h44zM386 781
l120 140h51l-134 -140h-37zM228 781l120 140h51l-134 -140h-37z" />
    <glyph glyph-name="uhungarumlaut" unicode="&#x171;" 
d="M463 0h-38v110h-2q-10 -29 -28.5 -51.5t-43 -38.5t-53.5 -24t-59 -8q-45 0 -76.5 11t-51.5 29t-31.5 40.5t-16.5 45.5t-6 44.5t-1 37.5v318h38v-325q0 -20 3 -48.5t17.5 -55t43.5 -45.5t82 -19q43 0 77.5 16t58.5 44.5t36.5 68t12.5 86.5v278h38v-514zM313 591l120 140
h51l-134 -140h-37zM155 591l120 140h51l-134 -140h-37z" />
    <glyph glyph-name="Uogonek" unicode="&#x172;" horiz-adv-x="672" 
d="M107 714v-428q0 -21 2.5 -49t10 -57.5t22 -58t39.5 -51t61.5 -36t88.5 -13.5q66 0 110.5 18.5t72 53t39.5 83.5t12 110v428h44v-428q0 -64 -13.5 -119t-45.5 -96t-86 -65q-43 -18 -104 -22q-12 -13 -22 -23q-15 -18 -24 -32t-13 -25.5t-4 -24.5q0 -20 13 -31t29 -11
q20 0 32.5 7.5t26.5 27.5l23 -8q-12 -28 -33 -44t-53 -16q-11 0 -23 1.5t-26 8.5t-23.5 21.5t-9.5 36.5q0 12 3.5 24.5t15 29.5t31.5 35q12 11 28 22q-63 0 -108 16t-74.5 41.5t-46.5 58.5t-26 66.5t-11 65t-2 55.5v428h44z" />
    <glyph glyph-name="uogonek" unicode="&#x173;" 
d="M463 0q-31 -22 -49 -39.5t-27 -31.5t-13 -25.5t-4 -24.5q0 -20 13 -31t29 -11q20 0 32.5 7.5t26.5 27.5l23 -8q-12 -28 -33 -44t-53 -16q-11 0 -23 1.5t-26 8.5t-23.5 21.5t-9.5 36.5q0 12 3.5 24.5t15 29.5t31.5 35q20 17 49 39v110h-2q-10 -29 -28.5 -51.5t-43 -38.5
t-53.5 -24t-59 -8q-45 0 -76.5 11t-51.5 29t-31.5 40.5t-16.5 45.5t-6 44.5t-1 37.5v318h38v-325q0 -20 3 -48.5t17.5 -55t43.5 -45.5t82 -19q43 0 77.5 16t58.5 44.5t36.5 68t12.5 86.5v278h38v-514z" />
    <glyph glyph-name="Wcircumflex" unicode="&#x174;" horiz-adv-x="889" 
d="M-6 714h45l186 -667h2l189 667h55l192 -667h2l183 667h47l-205 -714h-50l-196 676h-2l-193 -676h-49zM463 920l116 -140h-38l-98 115l-97 -115h-38l115 140h40z" />
    <glyph glyph-name="wcircumflex" unicode="&#x175;" horiz-adv-x="704" 
d="M184 44h2l140 470h51l141 -470h2l144 470h42l-165 -514h-47l-141 466h-2l-142 -466h-48l-163 514h41zM372 730l116 -140h-38l-98 115l-97 -115h-38l115 140h40z" />
    <glyph glyph-name="Ycircumflex" unicode="&#x176;" horiz-adv-x="574" 
d="M546 714h49l-287 -415v-299h-44v299l-285 415h50l258 -378zM308 920l116 -140h-38l-98 115l-97 -115h-38l115 140h40z" />
    <glyph glyph-name="ycircumflex" unicode="&#x177;" horiz-adv-x="444" 
d="M-6 514h45l191 -469l176 469h43l-220 -569q-16 -38 -29.5 -65.5t-30.5 -40.5q-20 -16 -48 -19.5t-72 -3.5v33q41 0 64 6.5t43 26.5q11 11 23 40.5t30 80.5zM250 730l116 -140h-38l-98 115l-97 -115h-38l115 140h40z" />
    <glyph glyph-name="Ydieresis" unicode="&#x178;" horiz-adv-x="574" 
d="M546 714h49l-287 -415v-299h-44v299l-285 415h50l258 -378zM344 793v103h44v-103h-44zM186 793v103h44v-103h-44z" />
    <glyph glyph-name="Zacute" unicode="&#x179;" horiz-adv-x="537" 
d="M28 714h501v-38l-484 -638h493v-38h-539v38l482 638h-453v38zM368 920h51l-134 -140h-37z" />
    <glyph glyph-name="zacute" unicode="&#x17a;" horiz-adv-x="426" 
d="M417 33v-33h-408v36l345 445h-318v33h365v-36l-346 -445h362zM311 730h51l-134 -140h-37z" />
    <glyph glyph-name="Zdotaccent" unicode="&#x17b;" horiz-adv-x="537" 
d="M28 714h501v-38l-484 -638h493v-38h-539v38l482 638h-453v38zM251 793v103h44v-103h-44z" />
    <glyph glyph-name="zdotaccent" unicode="&#x17c;" horiz-adv-x="426" 
d="M417 33v-33h-408v36l345 445h-318v33h365v-36l-346 -445h362zM198 603v103h44v-103h-44z" />
    <glyph glyph-name="Zcaron" unicode="&#x17d;" horiz-adv-x="537" 
d="M28 714h501v-38l-484 -638h493v-38h-539v38l482 638h-453v38zM247 780l-115 140h38l97 -115l98 115h38l-116 -140h-40z" />
    <glyph glyph-name="zcaron" unicode="&#x17e;" horiz-adv-x="426" 
d="M417 33v-33h-408v36l345 445h-318v33h365v-36l-346 -445h362zM191 590l-115 140h38l97 -115l98 115h38l-116 -140h-40z" />
    <glyph glyph-name="florin" unicode="&#x192;" horiz-adv-x="556" 
d="M12 -141q13 -2 25 -3.5t25 -1.5q43 0 68.5 38.5t36.5 99.5l79 404h-112l7 33h111l33 169q5 25 15.5 49t28 43t43 30t60.5 11q14 0 29 -1t32 -5l-8 -38q-32 6 -54 6q-37 0 -65.5 -22.5t-39.5 -77.5l-32 -164h120l-5 -33h-121l-80 -409q-4 -21 -12 -50.5t-24.5 -56.5
t-44 -45.5t-69.5 -18.5q-25 0 -53 6z" />
    <glyph glyph-name="Scommaaccent" unicode="&#x218;" horiz-adv-x="630" 
d="M529 510q-2 46 -19.5 80t-47.5 57t-71.5 34.5t-90.5 11.5q-30 0 -64.5 -7t-64 -24.5t-48.5 -47t-19 -73.5q0 -43 21 -70t55 -43.5t78 -26.5t89 -19q46 -9 89.5 -21.5t78 -34t55.5 -55.5t21 -87q0 -56 -24 -94t-60.5 -62t-81 -34.5t-85.5 -10.5q-63 0 -118 13.5t-96 44
t-64.5 78.5t-22.5 117h44q-3 -59 16.5 -99.5t55.5 -66.5t84 -37.5t101 -11.5q32 0 68.5 8t67 27t51 50t20.5 78q0 45 -21 73.5t-55.5 46t-78 28t-89.5 19.5q-45 9 -89 21t-78 32.5t-55 53t-21 83.5t21.5 87.5t56 59t77.5 33t85 10.5q56 0 104.5 -12.5t85 -39t58.5 -68.5
t25 -101h-44zM293 -176q13 3 21 10.5t10 22.5h-25v93h57v-80q0 -31 -16 -47.5t-47 -18.5v20z" />
    <glyph glyph-name="scommaaccent" unicode="&#x219;" horiz-adv-x="481" 
d="M74 171q2 -36 16 -63.5t36.5 -47t52.5 -29.5t65 -10q25 0 53.5 4.5t53 16.5t40.5 33.5t16 54.5t-15 53t-40 32t-56.5 19t-64.5 14t-65 16t-57 24.5t-40 41t-15 64.5q0 38 17 63.5t43.5 40.5t59.5 21.5t66 6.5q41 0 75.5 -9t60 -29t40 -51t14.5 -75h-38q0 35 -12 60
t-32 40.5t-48 23t-60 7.5q-26 0 -52.5 -5t-47.5 -17t-34.5 -31t-13.5 -46q0 -31 15 -50t39.5 -30.5t55 -18.5t61.5 -14q38 -7 71.5 -16.5t58 -26t38.5 -42.5t14 -66q0 -42 -19 -69t-48 -43.5t-64.5 -23t-69.5 -6.5q-44 0 -81.5 11.5t-65.5 35t-44 57.5t-17 79h38zM218 -176
q13 3 21 10.5t10 22.5h-25v93h57v-80q0 -31 -16 -47.5t-47 -18.5v20z" />
    <glyph glyph-name="uni021A" unicode="&#x21a;" 
d="M-14 676v38h547v-38h-252v-676h-44v676h-251zM228 -176q13 3 21 10.5t10 22.5h-25v93h57v-80q0 -31 -16 -47.5t-47 -18.5v20z" />
    <glyph glyph-name="uni021B" unicode="&#x21b;" horiz-adv-x="259" 
d="M245 481h-112v-359q0 -31 7 -49t21.5 -27t35 -11.5t47.5 -1.5v-33q-29 -2 -56.5 0.5t-48.5 15t-33.5 37.5t-10.5 69v359h-95v33h95v160h38v-160h112v-33zM128 -176q13 3 21 10.5t10 22.5h-25v93h57v-80q0 -31 -16 -47.5t-47 -18.5v20z" />
    <glyph glyph-name="circumflex" unicode="&#x2c6;" horiz-adv-x="167" 
d="M103 730l116 -140h-38l-98 115l-97 -115h-38l115 140h40z" />
    <glyph glyph-name="caron" unicode="&#x2c7;" horiz-adv-x="167" 
d="M63 590l-115 140h38l97 -115l98 115h38l-116 -140h-40z" />
    <glyph glyph-name="uni02C9" unicode="&#x2c9;" horiz-adv-x="167" 
d="M-37 638v33h242v-33h-242z" />
    <glyph glyph-name="breve" unicode="&#x2d8;" horiz-adv-x="167" 
d="M219 720q-3 -24 -14.5 -46t-29 -38.5t-40 -26t-47.5 -9.5q-57 0 -95 31.5t-45 88.5h33q6 -25 18 -42.5t26.5 -28t30.5 -13.5t31 -3q39 0 65.5 24t33.5 63h33z" />
    <glyph glyph-name="dotaccent" unicode="&#x2d9;" horiz-adv-x="167" 
d="M61 603v103h44v-103h-44z" />
    <glyph glyph-name="ring" unicode="&#x2da;" horiz-adv-x="167" 
d="M11 670q0 -30 21 -51t51 -21t51 21t21 51t-21 51t-51 21t-51 -21t-21 -51zM-16 670q0 42 28.5 70.5t70.5 28.5t70.5 -28.5t28.5 -70.5t-28.5 -70.5t-70.5 -28.5t-70.5 28.5t-28.5 70.5z" />
    <glyph glyph-name="ogonek" unicode="&#x2db;" horiz-adv-x="167" 
d="M132 0q-25 -22 -40.5 -39.5t-24.5 -31.5t-13 -25.5t-4 -24.5q0 -20 13 -31t29 -11q20 0 32.5 7.5t26.5 27.5l23 -8q-12 -28 -33 -44t-53 -16q-11 0 -23 1.5t-26 8.5t-23.5 21.5t-9.5 36.5q0 12 3.5 24.5t15 29.5t32 35t51.5 39h24z" />
    <glyph glyph-name="tilde" unicode="&#x2dc;" horiz-adv-x="167" 
d="M-61 609q1 16 7 32.5t15.5 29t23 20.5t31.5 8t35 -7.5t35 -18.5t35.5 -21t32.5 -10q21 0 32 18.5t13 38.5h29q-2 -17 -7 -33t-14 -28t-22 -20.5t-33 -8.5q-17 0 -35 9.5t-34 19.5q-31 19 -42.5 23.5t-25.5 4.5q-20 0 -31.5 -17t-15.5 -40h-29z" />
    <glyph glyph-name="hungarumlaut" unicode="&#x2dd;" horiz-adv-x="167" 
d="M102 591l120 140h51l-134 -140h-37zM-56 591l120 140h51l-134 -140h-37z" />
    <glyph glyph-name="uni0394" unicode="&#x394;" horiz-adv-x="639" 
d="M317 667l-252 -632h507zM14 0l287 712h34l291 -712h-612z" />
    <glyph glyph-name="uni03A9" unicode="&#x3a9;" horiz-adv-x="731" 
d="M441 0v166q48 8 84 30.5t60.5 55.5t37 74.5t12.5 88.5q0 57 -21 107t-58 86.5t-87 57.5t-107 21t-106.5 -21.5t-86 -58t-57.5 -86t-21 -106.5q0 -45 12.5 -87.5t37.5 -76t61.5 -56.5t83.5 -29v-166h-232v33h200v105q-48 13 -85.5 39.5t-62.5 63.5t-38 81.5t-13 93.5
q0 64 24 120t66 97t98 64.5t120 23.5t120 -23.5t98 -64.5t66 -96.5t24 -119.5q0 -50 -12.5 -94.5t-37.5 -80.5t-62 -62.5t-86 -41.5v-105h198v-33h-230z" />
    <glyph glyph-name="uni03BC" unicode="&#x3bc;" 
d="M463 0h-38v110h-2q-10 -29 -28.5 -51.5t-43 -38.5t-53.5 -24t-59 -8q-41 0 -79.5 12t-63.5 44h-2v-228h-38v698h38v-325q0 -20 3 -48.5t17.5 -55t43.5 -45.5t82 -19q43 0 77.5 16t58.5 44.5t36.5 68t12.5 86.5v278h38v-514z" />
    <glyph glyph-name="pi" unicode="&#x3c0;" horiz-adv-x="556" 
d="M525 10q-13 -6 -25 -10.5t-26 -4.5q-25 0 -38.5 9t-19.5 23.5t-7 33t-1 37.5v334h-286v-432h-36v432h-70v32h504v-32h-76v-337v-23t3 -22t11 -16t24 -6q22 0 43 13v-31v0z" />
    <glyph glyph-name="endash" unicode="&#x2013;" horiz-adv-x="500" 
d="M0 291h500v-38h-500v38z" />
    <glyph glyph-name="emdash" unicode="&#x2014;" horiz-adv-x="1000" 
d="M130 291h740v-38h-740v38z" />
    <glyph glyph-name="quoteleft" unicode="&#x2018;" horiz-adv-x="204" 
d="M143 681q-11 -5 -17.5 -16.5t-10.5 -25t-5 -27.5t-1 -24h21v-103h-51v103q0 40 13.5 76t50.5 50v-33z" />
    <glyph glyph-name="quoteright" unicode="&#x2019;" horiz-adv-x="204" 
d="M125 611q0 -40 -13.5 -76t-50.5 -50v33q11 5 17.5 16.5t10.5 25t5 27.5t1 24h-21v103h51v-103z" />
    <glyph glyph-name="quotesinglbase" unicode="&#x201a;" horiz-adv-x="204" 
d="M125 0q0 -40 -13.5 -76t-50.5 -50v33q11 5 17.5 16.5t10.5 25t5 27.5t1 24h-21v103h51v-103z" />
    <glyph glyph-name="quotedblleft" unicode="&#x201c;" horiz-adv-x="315" 
d="M254 681q-11 -5 -17.5 -16.5t-10.5 -25t-5 -27.5t-1 -24h21v-103h-51v103q0 40 13.5 76t50.5 50v-33zM128 681q-11 -5 -17.5 -16.5t-10.5 -25t-5 -27.5t-1 -24h21v-103h-51v103q0 40 13.5 76t50.5 50v-33z" />
    <glyph glyph-name="quotedblright" unicode="&#x201d;" horiz-adv-x="315" 
d="M125 611q0 -40 -13.5 -76t-50.5 -50v33q11 5 17.5 16.5t10.5 25t5 27.5t1 24h-21v103h51v-103zM251 611q0 -40 -13.5 -76t-50.5 -50v33q11 5 17.5 16.5t10.5 25t5 27.5t1 24h-21v103h51v-103z" />
    <glyph glyph-name="quotedblbase" unicode="&#x201e;" horiz-adv-x="315" 
d="M125 0q0 -40 -13.5 -76t-50.5 -50v33q11 5 17.5 16.5t10.5 25t5 27.5t1 24h-21v103h51v-103zM251 0q0 -40 -13.5 -76t-50.5 -50v33q11 5 17.5 16.5t10.5 25t5 27.5t1 24h-21v103h51v-103z" />
    <glyph glyph-name="dagger" unicode="&#x2020;" horiz-adv-x="556" 
d="M259 514v200h38v-200h205v-33h-205v-627h-38v627h-205v33h205z" />
    <glyph glyph-name="daggerdbl" unicode="&#x2021;" horiz-adv-x="556" 
d="M297 714v-200h205v-33h-205v-394h205v-33h-205v-200h-38v200h-205v33h205v394h-205v33h205v200h38z" />
    <glyph glyph-name="bullet" unicode="&#x2022;" horiz-adv-x="500" 
d="M72 357q0 37 14 69.5t38 56.5t56.5 38t69.5 14t69.5 -14t57 -38t38.5 -56.5t14 -69.5t-14 -69.5t-38.5 -57t-57 -38.5t-69.5 -14t-69.5 14t-56.5 38.5t-38 57t-14 69.5z" />
    <glyph glyph-name="ellipsis" unicode="&#x2026;" horiz-adv-x="1000" 
d="M807 103h51v-103h-51v103zM474 103h51v-103h-51v103zM141 103h51v-103h-51v103z" />
    <glyph glyph-name="perthousand" unicode="&#x2030;" horiz-adv-x="1074" 
d="M192 669q-57 0 -85.5 -38t-28.5 -96q0 -29 6.5 -54t20 -44t35 -29.5t52.5 -10.5q28 0 49.5 10.5t35.5 29t21.5 44t7.5 54.5q0 27 -7.5 51.5t-22 43t-35.5 29t-49 10.5zM193 702q36 0 64 -12.5t47.5 -35t29.5 -53t10 -66.5q0 -37 -10 -68.5t-29 -54t-47.5 -35.5t-64.5 -13
q-77 0 -115 47.5t-38 123.5q0 36 11 66.5t31 53t48 35t63 12.5zM882 21q28 0 49.5 10.5t35.5 29t21.5 43.5t7.5 54q0 27 -7.5 51.5t-22 43t-35.5 29.5t-49 11q-57 0 -85.5 -38.5t-28.5 -96.5q0 -29 6.5 -54t20 -43.5t35 -29t52.5 -10.5zM882 -12q-77 0 -114.5 47t-37.5 123
q0 36 11 66.5t30.5 53t47.5 35.5t63 13q36 0 64 -13t47.5 -35.5t30 -53t10.5 -66.5q0 -37 -10 -68.5t-29.5 -54t-48 -35t-64.5 -12.5zM525 21q28 0 49.5 10.5t36 29t22 43.5t7.5 54q0 27 -7.5 51.5t-22 43t-36 29.5t-49.5 11q-57 0 -85 -38.5t-28 -96.5q0 -29 6 -54
t19.5 -43.5t35 -29t52.5 -10.5zM527 -12q-77 0 -115 47t-38 123q0 36 11 66.5t31 53t48 35.5t63 13q36 0 64 -13t47.5 -35.5t29.5 -53t10 -66.5q0 -37 -10 -68.5t-29 -54t-47.5 -35t-64.5 -12.5zM570 714h40l-465 -738h-40z" />
    <glyph glyph-name="guilsinglleft" unicode="&#x2039;" horiz-adv-x="259" 
d="M67 252v40l114 131v-51l-85 -100l85 -102v-49z" />
    <glyph glyph-name="guilsinglright" unicode="&#x203a;" horiz-adv-x="259" 
d="M78 170l85 102l-85 100v51l114 -131v-40l-114 -131v49z" />
    <glyph glyph-name="fraction" unicode="&#x2044;" horiz-adv-x="167" 
d="M296 714h40l-465 -738h-40z" />
    <glyph glyph-name="Euro" unicode="&#x20ac;" horiz-adv-x="556" 
d="M509 557q-10 33 -28.5 53.5t-35.5 31.5q-28 18 -56 22.5t-52 4.5q-11 0 -28 -1t-37 -6.5t-42 -16.5t-42 -32q-17 -17 -29.5 -39.5t-21.5 -47t-14 -49.5t-7 -47h332l-15 -33h-320q-2 -26 -2 -50t2 -46h283l-15 -33h-264q4 -39 17 -82t37 -78q20 -30 43 -47.5t45.5 -26
t43.5 -11t38 -2.5q23 0 48 4t48 13q20 8 42 22.5t43 38.5v-46q-14 -13 -30.5 -24t-38.5 -19q-26 -11 -57 -16.5t-60 -5.5q-64 0 -114 25.5t-83 72.5q-27 38 -42.5 87t-19.5 95h-65l15 33h48q-5 51 0 96h-63l15 33h50q2 27 8.5 56.5t18 58t28 54.5t39.5 46t46.5 31.5t45.5 17
t41 7t33 1.5q31 0 64 -5.5t63 -24.5q18 -11 36 -29.5t30 -47.5z" />
    <glyph glyph-name="afii61289" unicode="&#x2113;" horiz-adv-x="500" 
d="M396 35q-49 -49 -110 -49q-22 0 -42 6.5t-35 20.5t-24 36.5t-9 55.5v148l-60 -68h-2l-15 19l77 83v269q0 83 31.5 124t74.5 41q39 0 64.5 -30.5t25.5 -87.5q0 -72 -42 -154t-119 -170v-168q0 -29 7.5 -48t19.5 -29.5t26 -14.5t28 -4q22 0 44.5 9t43.5 30h2l14 -19v0z
M342 599q0 44 -17.5 69.5t-42.5 25.5q-27 0 -49 -31.5t-22 -102.5v-246q62 74 96.5 148t34.5 137z" />
    <glyph glyph-name="trademark" unicode="&#x2122;" horiz-adv-x="990" 
d="M694 368l152 346h59v-412h-32v379h-3l-167 -379h-18l-167 379h-3v-379h-32v412h59zM404 681h-143v-379h-32v379h-144v33h319v-33z" />
    <glyph glyph-name="Omega" unicode="&#x2126;" horiz-adv-x="731" 
d="M441 0v166q48 8 84 30.5t60.5 55.5t37 74.5t12.5 88.5q0 57 -21 107t-58 86.5t-87 57.5t-107 21t-106.5 -21.5t-86 -58t-57.5 -86t-21 -106.5q0 -45 12.5 -87.5t37.5 -76t61.5 -56.5t83.5 -29v-166h-232v33h200v105q-48 13 -85.5 39.5t-62.5 63.5t-38 81.5t-13 93.5
q0 64 24 120t66 97t98 64.5t120 23.5t120 -23.5t98 -64.5t66 -96.5t24 -119.5q0 -50 -12.5 -94.5t-37.5 -80.5t-62 -62.5t-86 -41.5v-105h198v-33h-230z" />
    <glyph glyph-name="estimated" unicode="&#x212e;" horiz-adv-x="600" 
d="M157 259v-181q59 -59 145 -59q63 0 109 28.5t84 91.5l35 -21q-23 -36 -46.5 -61.5t-51 -42t-59.5 -24t-71 -7.5q-59 0 -106.5 21.5t-81.5 59t-52 87.5t-18 108t18 108.5t52 87.5t81.5 58.5t106.5 21.5q58 0 105.5 -20.5t81.5 -57t53 -87t19 -111.5h-404zM448 295v145
q-63 60 -147 60t-144 -60v-145h291z" />
    <glyph glyph-name="partialdiff" unicode="&#x2202;" horiz-adv-x="463" 
d="M384 284q-31 42 -73.5 73.5t-97.5 31.5q-38 0 -66 -15.5t-46.5 -41t-28 -57.5t-9.5 -66q0 -32 9.5 -65.5t28 -61.5t46 -45.5t64.5 -17.5q48 0 80 27.5t51.5 68t29 86.5t12.5 83zM424 369q0 -34 -3 -75.5t-11.5 -84t-23.5 -82.5t-39 -71t-57.5 -49.5t-79.5 -18.5
q-44 0 -78 20t-57.5 51.5t-35.5 71t-12 79.5q0 42 12 80t35.5 67t58 46.5t79.5 17.5q54 0 99 -27t77 -70q0 15 0.5 30.5t0.5 30.5q0 30 -3.5 63.5t-12 67.5t-22.5 65t-35 55t-50 38t-66 14q-35 0 -61.5 -12.5t-53.5 -32.5l-20 26q30 24 62.5 38t71.5 14q45 0 79.5 -16
t59.5 -43.5t41.5 -63.5t26.5 -75t14 -79t4 -75z" />
    <glyph glyph-name="Delta" unicode="&#x2206;" horiz-adv-x="639" 
d="M317 667l-252 -632h507zM14 0l287 712h34l291 -712h-612z" />
    <glyph glyph-name="product" unicode="&#x220f;" horiz-adv-x="704" 
d="M585 -214v965h-466v-965h-36v1000h538v-1000h-36z" />
    <glyph glyph-name="summation" unicode="&#x2211;" horiz-adv-x="593" 
d="M35 -214v32l338 471l-324 464v33h497v-35h-451l322 -462l-338 -468h479v-35h-523z" />
    <glyph glyph-name="minus" unicode="&#x2212;" horiz-adv-x="600" 
d="M48 233v38h504v-38h-504z" />
    <glyph glyph-name="uni2215" unicode="&#x2215;" horiz-adv-x="167" 
d="M296 714h40l-465 -738h-40z" />
    <glyph glyph-name="uni2219" unicode="&#x2219;" horiz-adv-x="278" 
d="M85 317q0 21 16.5 37.5t37.5 16.5t38 -16t17 -38t-16.5 -38.5t-38.5 -16.5t-38 17t-16 38z" />
    <glyph glyph-name="radical" unicode="&#x221a;" horiz-adv-x="463" 
d="M252 -217h-32l-178 366l-44 -21l-13 27l73 36l173 -359l203 950h33z" />
    <glyph glyph-name="infinity" unicode="&#x221e;" horiz-adv-x="722" 
d="M338 243q-17 14 -36.5 31.5t-41.5 32.5t-45.5 25.5t-46.5 10.5q-42 0 -65 -29.5t-23 -68.5q0 -43 24 -70.5t69 -27.5q24 0 46.5 9t43.5 23.5t40 31.5t35 32zM642 245q0 42 -24 70t-67 28q-22 0 -45 -10.5t-45 -25.5t-42 -32.5l-36 -31.5q17 -15 36 -32t40 -31.5t43.5 -24
t46.5 -9.5q45 0 69 27.5t24 71.5zM675 246q0 -57 -33.5 -95t-92.5 -38q-29 0 -54.5 10.5t-48.5 26t-44 35t-41 37.5q-21 -18 -42 -37t-43.5 -34.5t-47.5 -26t-55 -10.5q-29 0 -52 10t-39.5 27t-25.5 41t-9 52q0 27 9 51t25 42t38.5 28.5t50.5 10.5t54 -11t50 -27.5t45.5 -36
t41.5 -36.5q19 17 40.5 36.5t45.5 36t49.5 27.5t52.5 11q57 0 91.5 -37t34.5 -93z" />
    <glyph glyph-name="integral" unicode="&#x222b;" horiz-adv-x="534" 
d="M374 750q0 -12 -8 -19t-19 -7t-17 5t-10 10.5t-7 10.5t-9 5q-12 0 -20 -14t-13 -36t-7 -48t-2.5 -50t-0.5 -43v-24l1 -476q0 -19 0.5 -46.5t-1 -58.5t-6.5 -61.5t-16 -55t-30.5 -40t-48.5 -15.5q-16 0 -28.5 8.5t-12.5 25.5q0 10 8 17.5t18 7.5q7 0 12 -4t9.5 -9t9 -9
t9.5 -4q11 0 18.5 13.5t12 34.5t6.5 45.5t3 47.5t1 40v23v491q0 18 -1 45.5t0.5 57.5t6 60t15.5 54t29.5 39t48.5 15q17 0 33 -8t16 -28z" />
    <glyph glyph-name="approxequal" unicode="&#x2248;" horiz-adv-x="593" 
d="M547 220q-5 -22 -14 -43t-23 -37t-33.5 -26t-44.5 -10q-31 0 -68.5 12t-76 26t-75 26t-63.5 12q-18 0 -32.5 -7t-26 -18.5t-19 -26.5t-10.5 -31h-29q5 22 14 43t23 37t33.5 26t45.5 10q31 0 68.5 -12t76 -26t74 -26t63.5 -12q36 0 59 25.5t31 57.5h27v0zM547 383
q-5 -22 -14 -43t-23 -37t-33.5 -25.5t-44.5 -9.5q-32 0 -69.5 12t-76 26t-74 26t-63.5 12q-35 0 -58 -26t-30 -58h-29q5 22 14 43t23 37t33.5 26t45.5 10q31 0 68 -11.5t74.5 -26t73.5 -26t66 -11.5q36 0 59 25t31 57h27v0z" />
    <glyph glyph-name="notequal" unicode="&#x2260;" horiz-adv-x="593" 
d="M255 133l-75 -141l-29 15l67 126h-166v33h184l80 150h-264v33h282l76 143l29 -15l-68 -128h170v-33h-188l-81 -150h269v-33h-286z" />
    <glyph glyph-name="lessequal" unicode="&#x2264;" horiz-adv-x="593" 
d="M52 -14v33h489v-33h-489zM52 260v36l489 200v-37l-445 -181l445 -180v-37z" />
    <glyph glyph-name="greaterequal" unicode="&#x2265;" horiz-adv-x="593" 
d="M52 -14v33h489v-33h-489zM52 61v37l446 180l-446 181v37l489 -200v-36z" />
    <glyph glyph-name="lozenge" unicode="&#x25ca;" horiz-adv-x="593" 
d="M296 702l-148 -346l148 -346l148 346zM311 -35h-30l-169 391l169 391h30l170 -391z" />
    <glyph glyph-name="uniF8FF" unicode="&#xf8ff;" horiz-adv-x="512" 
d="M222 117v67h56v-67h-56zM225 234l-2 17q0 55 13 81t46 59q32 31 41 47.5t9 35.5q0 36 -22.5 60.5t-53.5 24.5t-53.5 -22t-28.5 -73l-50 8q7 71 44 104t91 33q53 0 88.5 -36t35.5 -95q0 -32 -12.5 -58.5t-50.5 -61.5q-37 -33 -43 -52t-6 -72h-46zM462 50v617h-412v-617
h412zM512 718v-718h-512v718h512z" />
    <glyph glyph-name="commaaccenttwo" horiz-adv-x="278" 
d="M165 747q-13 -3 -21 -10.5t-10 -22.5h25v-93h-57v80q0 31 16 47.5t47 18.5v-20z" />
    <glyph glyph-name="commaaccent" horiz-adv-x="278" 
d="M113 -176q13 3 21 10.5t10 22.5h-25v93h57v-80q0 -31 -16 -47.5t-47 -18.5v20z" />
    <glyph glyph-name="carontwo" horiz-adv-x="167" 
d="M96 714h51l-87 -140h-29z" />
    <glyph glyph-name="dotlessj" horiz-adv-x="168" 
d="M103 514v-569q0 -26 -4 -49.5t-15.5 -41t-32 -28t-53.5 -10.5h-16t-16 1v33q5 -1 11 -1.5t14 -0.5q20 0 34 4.5t23 16t13 31t4 48.5v566h38z" />
    </font>
</defs>
</svg>
